<ttFont>
    <TTGlyph name="A" xMin="-56" yMin="-20" xMax="566" yMax="660">
      <contour>
        <pt x="456" y="-20" on="1"/>
        <pt x="328" y="-20" on="0"/>
        <pt x="316" y="162" on="1"/>
        <pt x="144" y="162" on="1"/>
        <pt x="124" y="116" on="0"/>
        <pt x="110" y="76" on="1"/>
        <pt x="84" y="0" on="1"/>
        <pt x="-56" y="0" on="1"/>
        <pt x="259" y="660" on="1"/>
        <pt x="474" y="660" on="1"/>
        <pt x="516" y="174" on="1"/>
        <pt x="526" y="69" on="0"/>
        <pt x="566" y="38" on="1"/>
        <pt x="537" y="-20" on="0"/>
      </contour>
      <contour>
        <pt x="175" y="235" on="1"/>
        <pt x="313" y="235" on="1"/>
        <pt x="301" y="492" on="1"/>
        <pt x="301" y="519" on="1"/>
        <pt x="230" y="362" on="1"/>
      </contour>
    </TTGlyph>
    <TTGlyph name="AE" xMin="-65" yMin="-20" xMax="801" yMax="660">
      <contour>
        <pt x="716" y="90" on="1"/>
        <pt x="716" y="-20" on="0"/>
        <pt x="539" y="-20" on="1"/>
        <pt x="389" y="-20" on="0"/>
        <pt x="345" y="78" on="1"/>
        <pt x="330" y="112" on="0"/>
        <pt x="330" y="158" on="1"/>
        <pt x="330" y="165" on="1"/>
        <pt x="330" y="169" on="0"/>
        <pt x="331" y="177" on="1"/>
        <pt x="174" y="177" on="1"/>
        <pt x="91" y="0" on="1"/>
        <pt x="-65" y="0" on="1"/>
        <pt x="305" y="660" on="1"/>
        <pt x="800" y="660" on="1"/>
        <pt x="800" y="654" on="0"/>
        <pt x="800" y="626" on="0"/>
        <pt x="785" y="583" on="0"/>
        <pt x="769" y="567" on="1"/>
        <pt x="737" y="535" on="0"/>
        <pt x="638" y="535" on="0"/>
        <pt x="583" y="552" on="0"/>
        <pt x="561" y="562" on="1"/>
        <pt x="537" y="387" on="1"/>
        <pt x="726" y="387" on="1"/>
        <pt x="726" y="380" on="1"/>
        <pt x="726" y="330" on="0"/>
        <pt x="672" y="275" on="0"/>
        <pt x="578" y="275" on="0"/>
        <pt x="536" y="292" on="1"/>
        <pt x="527" y="296" on="0"/>
        <pt x="525" y="298" on="1"/>
        <pt x="523" y="287" on="1"/>
        <pt x="512" y="223" on="0"/>
        <pt x="512" y="169" on="1"/>
        <pt x="512" y="143" on="0"/>
        <pt x="541" y="107" on="0"/>
        <pt x="615" y="107" on="0"/>
        <pt x="676" y="134" on="0"/>
        <pt x="695" y="154" on="1"/>
        <pt x="716" y="128" on="0"/>
      </contour>
      <contour>
        <pt x="212" y="254" on="1"/>
        <pt x="341" y="254" on="1"/>
        <pt x="385" y="562" on="1"/>
        <pt x="337" y="484" on="0"/>
        <pt x="294" y="408" on="1"/>
      </contour>
    </TTGlyph>
    <TTGlyph name="Aacute" xMin="-56" yMin="-20" xMax="566" yMax="861">
      <contour>
        <pt x="456" y="-20" on="1"/>
        <pt x="328" y="-20" on="0"/>
        <pt x="316" y="162" on="1"/>
        <pt x="144" y="162" on="1"/>
        <pt x="125" y="116" on="0"/>
        <pt x="110" y="76" on="1"/>
        <pt x="84" y="0" on="1"/>
        <pt x="-56" y="0" on="1"/>
        <pt x="259" y="660" on="1"/>
        <pt x="474" y="660" on="1"/>
        <pt x="516" y="174" on="1"/>
        <pt x="526" y="69" on="0"/>
        <pt x="566" y="38" on="1"/>
        <pt x="537" y="-20" on="0"/>
      </contour>
      <contour>
        <pt x="175" y="235" on="1"/>
        <pt x="313" y="235" on="1"/>
        <pt x="301" y="492" on="1"/>
        <pt x="301" y="519" on="1"/>
        <pt x="230" y="362" on="1"/>
      </contour>
      <contour>
        <pt x="263" y="759" on="1"/>
        <pt x="508" y="861" on="1"/>
        <pt x="536" y="841" on="0"/>
        <pt x="536" y="784" on="0"/>
        <pt x="513" y="749" on="0"/>
        <pt x="494" y="738" on="1"/>
        <pt x="457" y="716" on="0"/>
        <pt x="394" y="714" on="1"/>
        <pt x="275" y="710" on="1"/>
      </contour>
    </TTGlyph>
    <TTGlyph name="Acircumflex" xMin="-56" yMin="-20" xMax="566" yMax="857">
      <contour>
        <pt x="456" y="-20" on="1"/>
        <pt x="328" y="-20" on="0"/>
        <pt x="316" y="162" on="1"/>
        <pt x="144" y="162" on="1"/>
        <pt x="125" y="116" on="0"/>
        <pt x="110" y="76" on="1"/>
        <pt x="84" y="0" on="1"/>
        <pt x="-56" y="0" on="1"/>
        <pt x="259" y="660" on="1"/>
        <pt x="474" y="660" on="1"/>
        <pt x="516" y="174" on="1"/>
        <pt x="526" y="69" on="0"/>
        <pt x="566" y="38" on="1"/>
        <pt x="537" y="-20" on="0"/>
      </contour>
      <contour>
        <pt x="175" y="235" on="1"/>
        <pt x="313" y="235" on="1"/>
        <pt x="301" y="492" on="1"/>
        <pt x="301" y="519" on="1"/>
        <pt x="230" y="362" on="1"/>
      </contour>
      <contour>
        <pt x="213" y="750" on="1"/>
        <pt x="406" y="857" on="1"/>
        <pt x="542" y="753" on="1"/>
        <pt x="498" y="700" on="1"/>
        <pt x="383" y="749" on="1"/>
        <pt x="238" y="695" on="1"/>
      </contour>
    </TTGlyph>
    <TTGlyph name="Adieresis" xMin="-56" yMin="-20" xMax="566" yMax="839">
      <contour>
        <pt x="456" y="-20" on="1"/>
        <pt x="328" y="-20" on="0"/>
        <pt x="316" y="162" on="1"/>
        <pt x="144" y="162" on="1"/>
        <pt x="125" y="116" on="0"/>
        <pt x="110" y="76" on="1"/>
        <pt x="84" y="0" on="1"/>
        <pt x="-56" y="0" on="1"/>
        <pt x="259" y="660" on="1"/>
        <pt x="474" y="660" on="1"/>
        <pt x="516" y="174" on="1"/>
        <pt x="526" y="69" on="0"/>
        <pt x="566" y="38" on="1"/>
        <pt x="537" y="-20" on="0"/>
      </contour>
      <contour>
        <pt x="175" y="235" on="1"/>
        <pt x="313" y="235" on="1"/>
        <pt x="301" y="492" on="1"/>
        <pt x="301" y="519" on="1"/>
        <pt x="230" y="362" on="1"/>
      </contour>
      <contour>
        <pt x="240" y="708" on="0"/>
        <pt x="194" y="742" on="0"/>
        <pt x="194" y="805" on="0"/>
        <pt x="244" y="839" on="0"/>
        <pt x="315" y="839" on="0"/>
        <pt x="358" y="805" on="0"/>
        <pt x="358" y="742" on="0"/>
        <pt x="310" y="708" on="0"/>
        <pt x="275" y="708" on="1"/>
      </contour>
      <contour>
        <pt x="426" y="708" on="0"/>
        <pt x="381" y="742" on="0"/>
        <pt x="381" y="805" on="0"/>
        <pt x="430" y="839" on="0"/>
        <pt x="501" y="839" on="0"/>
        <pt x="545" y="805" on="0"/>
        <pt x="545" y="742" on="0"/>
        <pt x="496" y="708" on="0"/>
        <pt x="461" y="708" on="1"/>
      </contour>
    </TTGlyph>
    <TTGlyph name="Agrave" xMin="-56" yMin="-20" xMax="566" yMax="862">
      <contour>
        <pt x="456" y="-20" on="1"/>
        <pt x="328" y="-20" on="0"/>
        <pt x="316" y="162" on="1"/>
        <pt x="144" y="162" on="1"/>
        <pt x="125" y="116" on="0"/>
        <pt x="110" y="76" on="1"/>
        <pt x="84" y="0" on="1"/>
        <pt x="-56" y="0" on="1"/>
        <pt x="259" y="660" on="1"/>
        <pt x="474" y="660" on="1"/>
        <pt x="516" y="174" on="1"/>
        <pt x="526" y="69" on="0"/>
        <pt x="566" y="38" on="1"/>
        <pt x="537" y="-20" on="0"/>
      </contour>
      <contour>
        <pt x="175" y="235" on="1"/>
        <pt x="313" y="235" on="1"/>
        <pt x="301" y="492" on="1"/>
        <pt x="301" y="519" on="1"/>
        <pt x="230" y="362" on="1"/>
      </contour>
      <contour>
        <pt x="212" y="814" on="1"/>
        <pt x="212" y="842" on="0"/>
        <pt x="240" y="862" on="1"/>
        <pt x="485" y="760" on="1"/>
        <pt x="473" y="711" on="1"/>
        <pt x="354" y="715" on="1"/>
        <pt x="212" y="720" on="0"/>
      </contour>
    </TTGlyph>
    <TTGlyph name="Aring" xMin="-56" yMin="-20" xMax="566" yMax="854">
      <contour>
        <pt x="456" y="-20" on="1"/>
        <pt x="328" y="-20" on="0"/>
        <pt x="316" y="162" on="1"/>
        <pt x="144" y="162" on="1"/>
        <pt x="125" y="116" on="0"/>
        <pt x="110" y="76" on="1"/>
        <pt x="84" y="0" on="1"/>
        <pt x="-56" y="0" on="1"/>
        <pt x="259" y="660" on="1"/>
        <pt x="474" y="660" on="1"/>
        <pt x="516" y="174" on="1"/>
        <pt x="526" y="69" on="0"/>
        <pt x="566" y="38" on="1"/>
        <pt x="537" y="-20" on="0"/>
      </contour>
      <contour>
        <pt x="175" y="235" on="1"/>
        <pt x="313" y="235" on="1"/>
        <pt x="301" y="492" on="1"/>
        <pt x="301" y="519" on="1"/>
        <pt x="230" y="362" on="1"/>
      </contour>
      <contour>
        <pt x="319" y="690" on="0"/>
        <pt x="267" y="725" on="0"/>
        <pt x="267" y="780" on="0"/>
        <pt x="290" y="816" on="0"/>
        <pt x="309" y="828" on="1"/>
        <pt x="348" y="854" on="0"/>
        <pt x="398" y="854" on="1"/>
        <pt x="498" y="854" on="0"/>
        <pt x="498" y="787" on="1"/>
        <pt x="498" y="743" on="0"/>
        <pt x="458" y="716" on="1"/>
        <pt x="420" y="690" on="0"/>
      </contour>
      <contour>
        <pt x="340" y="760" on="1"/>
        <pt x="340" y="726" on="0"/>
        <pt x="370" y="726" on="1"/>
        <pt x="392" y="726" on="0"/>
        <pt x="428" y="758" on="0"/>
        <pt x="428" y="776" on="1"/>
        <pt x="428" y="815" on="0"/>
        <pt x="395" y="815" on="1"/>
        <pt x="372" y="815" on="0"/>
        <pt x="340" y="782" on="0"/>
      </contour>
    </TTGlyph>
    <TTGlyph name="Atilde" xMin="-56" yMin="-20" xMax="568" yMax="835">
      <contour>
        <pt x="316" y="162" on="1"/>
        <pt x="328" y="-20" on="0"/>
        <pt x="456" y="-20" on="1"/>
        <pt x="537" y="-20" on="0"/>
        <pt x="566" y="38" on="1"/>
        <pt x="526" y="69" on="0"/>
        <pt x="516" y="174" on="1"/>
        <pt x="474" y="660" on="1"/>
        <pt x="259" y="660" on="1"/>
        <pt x="-56" y="0" on="1"/>
        <pt x="84" y="0" on="1"/>
        <pt x="110" y="76" on="1"/>
        <pt x="125" y="116" on="0"/>
        <pt x="144" y="162" on="1"/>
      </contour>
      <contour>
        <pt x="175" y="235" on="1"/>
        <pt x="230" y="362" on="1"/>
        <pt x="301" y="519" on="1"/>
        <pt x="301" y="492" on="1"/>
        <pt x="313" y="235" on="1"/>
      </contour>
      <contour>
        <pt x="267" y="728" on="1"/>
        <pt x="225" y="728" on="0"/>
        <pt x="200" y="711" on="1"/>
        <pt x="180" y="740" on="0"/>
        <pt x="180" y="800" on="0"/>
        <pt x="231" y="835" on="0"/>
        <pt x="279" y="835" on="1"/>
        <pt x="315" y="835" on="0"/>
        <pt x="367" y="829" on="1"/>
        <pt x="461" y="818" on="0"/>
        <pt x="532" y="818" on="0"/>
        <pt x="549" y="835" on="1"/>
        <pt x="568" y="813" on="0"/>
        <pt x="568" y="748" on="0"/>
        <pt x="517" y="710" on="0"/>
        <pt x="472" y="710" on="1"/>
        <pt x="454" y="710" on="0"/>
        <pt x="425" y="713" on="1"/>
        <pt x="366" y="719" on="1"/>
        <pt x="336" y="722" on="0"/>
        <pt x="282" y="728" on="0"/>
      </contour>
    </TTGlyph>
    <TTGlyph name="B" xMin="7" yMin="-10" xMax="600" yMax="670">
      <contour>
        <pt x="7" y="5" on="1"/>
        <pt x="133" y="660" on="1"/>
        <pt x="251" y="670" on="0"/>
        <pt x="403" y="670" on="0"/>
        <pt x="501" y="657" on="0"/>
        <pt x="534" y="640" on="1"/>
        <pt x="600" y="608" on="0"/>
        <pt x="600" y="520" on="1"/>
        <pt x="600" y="469" on="0"/>
        <pt x="556" y="426" on="1"/>
        <pt x="515" y="387" on="0"/>
        <pt x="470" y="378" on="1"/>
        <pt x="518" y="370" on="0"/>
        <pt x="552" y="334" on="1"/>
        <pt x="588" y="296" on="0"/>
        <pt x="588" y="237" on="1"/>
        <pt x="588" y="123" on="0"/>
        <pt x="418" y="-10" on="0"/>
        <pt x="251" y="-10" on="1"/>
        <pt x="136" y="-10" on="0"/>
      </contour>
      <contour>
        <pt x="229" y="63" on="1"/>
        <pt x="238" y="62" on="0"/>
        <pt x="240" y="62" on="1"/>
        <pt x="249" y="62" on="1"/>
        <pt x="331" y="62" on="0"/>
        <pt x="366" y="116" on="1"/>
        <pt x="392" y="158" on="0"/>
        <pt x="392" y="235" on="1"/>
        <pt x="392" y="276" on="0"/>
        <pt x="339" y="320" on="0"/>
        <pt x="279" y="322" on="1"/>
      </contour>
      <contour>
        <pt x="431" y="519" on="1"/>
        <pt x="431" y="602" on="0"/>
        <pt x="351" y="602" on="1"/>
        <pt x="342" y="602" on="1"/>
        <pt x="338" y="602" on="0"/>
        <pt x="332" y="601" on="1"/>
        <pt x="292" y="390" on="1"/>
        <pt x="302" y="390" on="1"/>
        <pt x="431" y="393" on="0"/>
      </contour>
    </TTGlyph>
    <TTGlyph name="C" xMin="29" yMin="-20" xMax="644" yMax="680">
      <contour>
        <pt x="539" y="207" on="1"/>
        <pt x="565" y="188" on="0"/>
        <pt x="565" y="107" on="0"/>
        <pt x="530" y="50" on="0"/>
        <pt x="496" y="28" on="1"/>
        <pt x="423" y="-19" on="0"/>
        <pt x="168" y="-19" on="0"/>
        <pt x="29" y="114" on="0"/>
        <pt x="29" y="232" on="1"/>
        <pt x="29" y="399" on="0"/>
        <pt x="116" y="526" on="1"/>
        <pt x="182" y="620" on="0"/>
        <pt x="300" y="660" on="1"/>
        <pt x="361" y="680" on="0"/>
        <pt x="481" y="680" on="0"/>
        <pt x="555" y="664" on="0"/>
        <pt x="583" y="648" on="1"/>
        <pt x="644" y="613" on="0"/>
        <pt x="644" y="557" on="1"/>
        <pt x="644" y="506" on="0"/>
        <pt x="596" y="468" on="1"/>
        <pt x="552" y="434" on="0"/>
        <pt x="480" y="434" on="0"/>
        <pt x="465" y="439" on="1"/>
        <pt x="469" y="475" on="0"/>
        <pt x="469" y="522" on="0"/>
        <pt x="467" y="556" on="0"/>
        <pt x="462" y="572" on="1"/>
        <pt x="452" y="609" on="0"/>
        <pt x="391" y="609" on="0"/>
        <pt x="330" y="552" on="0"/>
        <pt x="304" y="504" on="1"/>
        <pt x="245" y="395" on="0"/>
        <pt x="245" y="266" on="1"/>
        <pt x="245" y="204" on="0"/>
        <pt x="315" y="133" on="0"/>
        <pt x="390" y="133" on="1"/>
        <pt x="446" y="133" on="0"/>
        <pt x="499" y="170" on="1"/>
        <pt x="522" y="186" on="0"/>
      </contour>
    </TTGlyph>
    <TTGlyph name="Ccaron" xMin="29" yMin="-19" xMax="644" yMax="907">
      <component glyphName="C" x="0" y="0" flags="0x1204"/>
      <component glyphName="caron" x="260" y="150" flags="0x1004"/>
    </TTGlyph>
    <TTGlyph name="Ccedilla" xMin="29" yMin="-258" xMax="644" yMax="680">
      <component glyphName="C" x="0" y="0" flags="0x1204"/>
      <component glyphName="cedilla" x="108" y="0" flags="0x1004"/>
    </TTGlyph>
    <TTGlyph name="D" xMin="8" yMin="-11" xMax="666" yMax="672">
      <contour>
        <pt x="666" y="415" on="1"/>
        <pt x="666" y="-11" on="0"/>
        <pt x="204" y="-11" on="1"/>
        <pt x="130" y="-11" on="0"/>
        <pt x="8" y="7" on="1"/>
        <pt x="120" y="598" on="1"/>
        <pt x="128" y="638" on="0"/>
        <pt x="133" y="661" on="1"/>
        <pt x="285" y="672" on="0"/>
        <pt x="420" y="672" on="0"/>
        <pt x="544" y="644" on="0"/>
        <pt x="585" y="613" on="1"/>
        <pt x="666" y="552" on="0"/>
      </contour>
      <contour>
        <pt x="460" y="452" on="1"/>
        <pt x="460" y="601" on="0"/>
        <pt x="353" y="601" on="1"/>
        <pt x="343" y="601" on="1"/>
        <pt x="338" y="601" on="0"/>
        <pt x="333" y="600" on="1"/>
        <pt x="230" y="63" on="1"/>
        <pt x="234" y="61" on="0"/>
        <pt x="238" y="61" on="1"/>
        <pt x="246" y="61" on="1"/>
        <pt x="283" y="61" on="0"/>
        <pt x="360" y="107" on="0"/>
        <pt x="390" y="154" on="1"/>
        <pt x="460" y="263" on="0"/>
      </contour>
    </TTGlyph>
    <TTGlyph name="E" xMin="8" yMin="-20" xMax="562" yMax="660">
      <contour>
        <pt x="444" y="154" on="1"/>
        <pt x="463" y="130" on="0"/>
        <pt x="463" y="91" on="1"/>
        <pt x="463" y="37" on="0"/>
        <pt x="383" y="-20" on="0"/>
        <pt x="320" y="-20" on="1"/>
        <pt x="284" y="-20" on="0"/>
        <pt x="229" y="-12" on="1"/>
        <pt x="121" y="5" on="0"/>
        <pt x="55" y="5" on="0"/>
        <pt x="29" y="2" on="0"/>
        <pt x="8" y="0" on="1"/>
        <pt x="131" y="660" on="1"/>
        <pt x="562" y="660" on="1"/>
        <pt x="562" y="599" on="0"/>
        <pt x="503" y="535" on="0"/>
        <pt x="387" y="535" on="0"/>
        <pt x="328" y="562" on="1"/>
        <pt x="297" y="387" on="1"/>
        <pt x="475" y="387" on="1"/>
        <pt x="475" y="334" on="0"/>
        <pt x="423" y="275" on="0"/>
        <pt x="336" y="275" on="0"/>
        <pt x="282" y="295" on="0"/>
        <pt x="279" y="298" on="1"/>
        <pt x="243" y="109" on="1"/>
        <pt x="267" y="106" on="0"/>
        <pt x="312" y="106" on="1"/>
        <pt x="389" y="106" on="0"/>
      </contour>
    </TTGlyph>
    <TTGlyph name="Eacute" xMin="8" yMin="-20" xMax="562" yMax="861">
      <contour>
        <pt x="444" y="154" on="1"/>
        <pt x="463" y="130" on="0"/>
        <pt x="463" y="91" on="1"/>
        <pt x="463" y="37" on="0"/>
        <pt x="383" y="-20" on="0"/>
        <pt x="320" y="-20" on="1"/>
        <pt x="284" y="-20" on="0"/>
        <pt x="229" y="-12" on="1"/>
        <pt x="121" y="5" on="0"/>
        <pt x="55" y="5" on="0"/>
        <pt x="29" y="2" on="0"/>
        <pt x="8" y="0" on="1"/>
        <pt x="131" y="660" on="1"/>
        <pt x="562" y="660" on="1"/>
        <pt x="562" y="599" on="0"/>
        <pt x="503" y="535" on="0"/>
        <pt x="387" y="535" on="0"/>
        <pt x="328" y="562" on="1"/>
        <pt x="297" y="387" on="1"/>
        <pt x="475" y="387" on="1"/>
        <pt x="475" y="334" on="0"/>
        <pt x="423" y="275" on="0"/>
        <pt x="336" y="275" on="0"/>
        <pt x="282" y="295" on="0"/>
        <pt x="279" y="298" on="1"/>
        <pt x="243" y="109" on="1"/>
        <pt x="267" y="106" on="0"/>
        <pt x="312" y="106" on="1"/>
        <pt x="389" y="106" on="0"/>
      </contour>
      <contour>
        <pt x="496" y="861" on="1"/>
        <pt x="524" y="841" on="0"/>
        <pt x="524" y="783" on="0"/>
        <pt x="501" y="748" on="0"/>
        <pt x="482" y="736" on="1"/>
        <pt x="447" y="716" on="0"/>
        <pt x="382" y="714" on="1"/>
        <pt x="263" y="710" on="1"/>
        <pt x="251" y="759" on="1"/>
      </contour>
    </TTGlyph>
    <TTGlyph name="Ecircumflex" xMin="8" yMin="-20" xMax="562" yMax="856">
      <contour>
        <pt x="444" y="154" on="1"/>
        <pt x="463" y="130" on="0"/>
        <pt x="463" y="91" on="1"/>
        <pt x="463" y="37" on="0"/>
        <pt x="383" y="-20" on="0"/>
        <pt x="320" y="-20" on="1"/>
        <pt x="284" y="-20" on="0"/>
        <pt x="229" y="-12" on="1"/>
        <pt x="121" y="5" on="0"/>
        <pt x="55" y="5" on="0"/>
        <pt x="29" y="2" on="0"/>
        <pt x="8" y="0" on="1"/>
        <pt x="131" y="660" on="1"/>
        <pt x="562" y="660" on="1"/>
        <pt x="562" y="599" on="0"/>
        <pt x="503" y="535" on="0"/>
        <pt x="387" y="535" on="0"/>
        <pt x="328" y="562" on="1"/>
        <pt x="297" y="387" on="1"/>
        <pt x="475" y="387" on="1"/>
        <pt x="475" y="334" on="0"/>
        <pt x="423" y="275" on="0"/>
        <pt x="336" y="275" on="0"/>
        <pt x="282" y="295" on="0"/>
        <pt x="279" y="298" on="1"/>
        <pt x="243" y="109" on="1"/>
        <pt x="267" y="106" on="0"/>
        <pt x="312" y="106" on="1"/>
        <pt x="389" y="106" on="0"/>
      </contour>
      <contour>
        <pt x="186" y="749" on="1"/>
        <pt x="379" y="856" on="1"/>
        <pt x="515" y="752" on="1"/>
        <pt x="471" y="699" on="1"/>
        <pt x="356" y="748" on="1"/>
        <pt x="211" y="694" on="1"/>
      </contour>
    </TTGlyph>
    <TTGlyph name="Edieresis" xMin="8" yMin="-20" xMax="562" yMax="831">
      <contour>
        <pt x="444" y="154" on="1"/>
        <pt x="463" y="130" on="0"/>
        <pt x="463" y="91" on="1"/>
        <pt x="463" y="37" on="0"/>
        <pt x="383" y="-20" on="0"/>
        <pt x="320" y="-20" on="1"/>
        <pt x="284" y="-20" on="0"/>
        <pt x="229" y="-12" on="1"/>
        <pt x="121" y="5" on="0"/>
        <pt x="55" y="5" on="0"/>
        <pt x="29" y="2" on="0"/>
        <pt x="8" y="0" on="1"/>
        <pt x="131" y="660" on="1"/>
        <pt x="562" y="660" on="1"/>
        <pt x="562" y="599" on="0"/>
        <pt x="503" y="535" on="0"/>
        <pt x="387" y="535" on="0"/>
        <pt x="328" y="562" on="1"/>
        <pt x="297" y="387" on="1"/>
        <pt x="475" y="387" on="1"/>
        <pt x="475" y="334" on="0"/>
        <pt x="423" y="275" on="0"/>
        <pt x="336" y="275" on="0"/>
        <pt x="282" y="295" on="0"/>
        <pt x="279" y="298" on="1"/>
        <pt x="243" y="109" on="1"/>
        <pt x="267" y="106" on="0"/>
        <pt x="312" y="106" on="1"/>
        <pt x="389" y="106" on="0"/>
      </contour>
      <contour>
        <pt x="228" y="700" on="0"/>
        <pt x="180" y="734" on="0"/>
        <pt x="180" y="797" on="0"/>
        <pt x="232" y="831" on="0"/>
        <pt x="307" y="831" on="0"/>
        <pt x="352" y="797" on="0"/>
        <pt x="352" y="734" on="0"/>
        <pt x="302" y="700" on="0"/>
        <pt x="265" y="700" on="1"/>
      </contour>
      <contour>
        <pt x="429" y="700" on="0"/>
        <pt x="382" y="734" on="0"/>
        <pt x="382" y="797" on="0"/>
        <pt x="433" y="831" on="0"/>
        <pt x="508" y="831" on="0"/>
        <pt x="554" y="797" on="0"/>
        <pt x="554" y="734" on="0"/>
        <pt x="503" y="700" on="0"/>
        <pt x="466" y="700" on="1"/>
      </contour>
    </TTGlyph>
    <TTGlyph name="Egrave" xMin="8" yMin="-20" xMax="562" yMax="861">
      <contour>
        <pt x="444" y="154" on="1"/>
        <pt x="463" y="130" on="0"/>
        <pt x="463" y="91" on="1"/>
        <pt x="463" y="37" on="0"/>
        <pt x="383" y="-20" on="0"/>
        <pt x="320" y="-20" on="1"/>
        <pt x="284" y="-20" on="0"/>
        <pt x="229" y="-12" on="1"/>
        <pt x="121" y="5" on="0"/>
        <pt x="55" y="5" on="0"/>
        <pt x="29" y="2" on="0"/>
        <pt x="8" y="0" on="1"/>
        <pt x="131" y="660" on="1"/>
        <pt x="562" y="660" on="1"/>
        <pt x="562" y="599" on="0"/>
        <pt x="503" y="535" on="0"/>
        <pt x="387" y="535" on="0"/>
        <pt x="328" y="562" on="1"/>
        <pt x="297" y="387" on="1"/>
        <pt x="475" y="387" on="1"/>
        <pt x="475" y="334" on="0"/>
        <pt x="423" y="275" on="0"/>
        <pt x="336" y="275" on="0"/>
        <pt x="282" y="295" on="0"/>
        <pt x="279" y="298" on="1"/>
        <pt x="243" y="109" on="1"/>
        <pt x="267" y="106" on="0"/>
        <pt x="312" y="106" on="1"/>
        <pt x="389" y="106" on="0"/>
      </contour>
      <contour>
        <pt x="170" y="812" on="1"/>
        <pt x="170" y="841" on="0"/>
        <pt x="198" y="861" on="1"/>
        <pt x="443" y="759" on="1"/>
        <pt x="431" y="710" on="1"/>
        <pt x="312" y="714" on="1"/>
        <pt x="170" y="719" on="0"/>
      </contour>
    </TTGlyph>
    <TTGlyph name="Eogonek" xMin="8" yMin="-258" xMax="562" yMax="660">
      <component glyphName="E" x="0" y="0" flags="0x1004"/>
      <component glyphName="ogonek" x="152" y="0" flags="0x1004"/>
    </TTGlyph>
    <TTGlyph name="Eth" xMin="-14" yMin="-11" xMax="689" yMax="672">
      <contour>
        <pt x="411" y="387" on="1"/>
        <pt x="416" y="370" on="0"/>
        <pt x="416" y="357" on="1"/>
        <pt x="416" y="325" on="0"/>
        <pt x="371" y="285" on="0"/>
        <pt x="333" y="285" on="1"/>
        <pt x="-10" y="285" on="1"/>
        <pt x="-14" y="298" on="0"/>
        <pt x="-14" y="346" on="0"/>
        <pt x="27" y="387" on="0"/>
        <pt x="60" y="387" on="1"/>
      </contour>
      <contour>
        <pt x="689" y="415" on="1"/>
        <pt x="689" y="-11" on="0"/>
        <pt x="227" y="-11" on="1"/>
        <pt x="153" y="-11" on="0"/>
        <pt x="31" y="7" on="1"/>
        <pt x="144" y="598" on="1"/>
        <pt x="151" y="638" on="0"/>
        <pt x="156" y="661" on="1"/>
        <pt x="255" y="672" on="0"/>
        <pt x="443" y="672" on="0"/>
        <pt x="567" y="644" on="0"/>
        <pt x="608" y="613" on="1"/>
        <pt x="689" y="552" on="0"/>
      </contour>
      <contour>
        <pt x="483" y="452" on="1"/>
        <pt x="483" y="601" on="0"/>
        <pt x="376" y="601" on="1"/>
        <pt x="366" y="601" on="1"/>
        <pt x="361" y="601" on="0"/>
        <pt x="356" y="600" on="1"/>
        <pt x="253" y="63" on="1"/>
        <pt x="257" y="61" on="0"/>
        <pt x="261" y="61" on="1"/>
        <pt x="269" y="61" on="1"/>
        <pt x="306" y="61" on="0"/>
        <pt x="383" y="107" on="0"/>
        <pt x="414" y="154" on="1"/>
        <pt x="483" y="263" on="0"/>
      </contour>
    </TTGlyph>
    <TTGlyph name="Euro" xMin="11" yMin="-20" xMax="658" yMax="680">
      <contour>
        <pt x="572" y="198" on="1"/>
        <pt x="592" y="182" on="0"/>
        <pt x="592" y="97" on="0"/>
        <pt x="553" y="43" on="0"/>
        <pt x="518" y="23" on="1"/>
        <pt x="444" y="-20" on="0"/>
        <pt x="225" y="-20" on="0"/>
        <pt x="104" y="97" on="0"/>
        <pt x="98" y="209" on="1"/>
        <pt x="16" y="209" on="1"/>
        <pt x="11" y="222" on="0"/>
        <pt x="11" y="259" on="0"/>
        <pt x="48" y="284" on="0"/>
        <pt x="78" y="284" on="1"/>
        <pt x="100" y="284" on="1"/>
        <pt x="102" y="314" on="0"/>
        <pt x="108" y="342" on="1"/>
        <pt x="42" y="342" on="1"/>
        <pt x="37" y="355" on="0"/>
        <pt x="37" y="392" on="0"/>
        <pt x="74" y="417" on="0"/>
        <pt x="104" y="417" on="1"/>
        <pt x="127" y="417" on="1"/>
        <pt x="170" y="539" on="0"/>
        <pt x="262" y="609" on="1"/>
        <pt x="356" y="680" on="0"/>
        <pt x="480" y="680" on="1"/>
        <pt x="552" y="680" on="0"/>
        <pt x="606" y="650" on="1"/>
        <pt x="658" y="622" on="0"/>
        <pt x="658" y="582" on="1"/>
        <pt x="658" y="489" on="0"/>
        <pt x="542" y="489" on="1"/>
        <pt x="510" y="489" on="0"/>
        <pt x="489" y="502" on="1"/>
        <pt x="505" y="532" on="0"/>
        <pt x="505" y="585" on="0"/>
        <pt x="479" y="615" on="0"/>
        <pt x="458" y="617" on="1"/>
        <pt x="413" y="617" on="0"/>
        <pt x="372" y="559" on="1"/>
        <pt x="330" y="502" on="0"/>
        <pt x="308" y="417" on="1"/>
        <pt x="469" y="417" on="1"/>
        <pt x="475" y="402" on="0"/>
        <pt x="475" y="388" on="1"/>
        <pt x="475" y="342" on="0"/>
        <pt x="399" y="342" on="1"/>
        <pt x="293" y="342" on="1"/>
        <pt x="288" y="307" on="0"/>
        <pt x="288" y="284" on="1"/>
        <pt x="443" y="284" on="1"/>
        <pt x="449" y="269" on="0"/>
        <pt x="449" y="255" on="1"/>
        <pt x="449" y="209" on="0"/>
        <pt x="373" y="209" on="1"/>
        <pt x="296" y="209" on="1"/>
        <pt x="325" y="123" on="0"/>
        <pt x="428" y="123" on="1"/>
        <pt x="483" y="123" on="0"/>
        <pt x="533" y="160" on="1"/>
        <pt x="555" y="177" on="0"/>
      </contour>
    </TTGlyph>
    <TTGlyph name="F" xMin="6" yMin="0" xMax="579" yMax="660">
      <contour>
        <pt x="472" y="530" on="1"/>
        <pt x="391" y="530" on="0"/>
        <pt x="332" y="557" on="1"/>
        <pt x="300" y="395" on="1"/>
        <pt x="493" y="395" on="1"/>
        <pt x="493" y="342" on="0"/>
        <pt x="440" y="275" on="0"/>
        <pt x="392" y="275" on="1"/>
        <pt x="340" y="275" on="0"/>
        <pt x="292" y="294" on="1"/>
        <pt x="282" y="298" on="0"/>
        <pt x="281" y="299" on="1"/>
        <pt x="224" y="0" on="1"/>
        <pt x="6" y="0" on="1"/>
        <pt x="133" y="660" on="1"/>
        <pt x="579" y="660" on="1"/>
        <pt x="579" y="599" on="0"/>
        <pt x="522" y="530" on="0"/>
      </contour>
    </TTGlyph>
    <TTGlyph name="G" xMin="31" yMin="-20" xMax="641" yMax="680">
      <contour>
        <pt x="624" y="340" on="1"/>
        <pt x="552" y="182" on="0"/>
        <pt x="552" y="-1" on="1"/>
        <pt x="525" y="-20" on="0"/>
        <pt x="446" y="-20" on="0"/>
        <pt x="396" y="17" on="0"/>
        <pt x="391" y="36" on="1"/>
        <pt x="366" y="10" on="0"/>
        <pt x="285" y="-20" on="0"/>
        <pt x="199" y="-20" on="0"/>
        <pt x="124" y="8" on="0"/>
        <pt x="95" y="39" on="1"/>
        <pt x="31" y="107" on="0"/>
        <pt x="31" y="236" on="1"/>
        <pt x="31" y="436" on="0"/>
        <pt x="138" y="556" on="1"/>
        <pt x="248" y="680" on="0"/>
        <pt x="443" y="680" on="1"/>
        <pt x="578" y="680" on="0"/>
        <pt x="626" y="610" on="1"/>
        <pt x="641" y="588" on="0"/>
        <pt x="641" y="535" on="0"/>
        <pt x="618" y="490" on="0"/>
        <pt x="600" y="472" on="1"/>
        <pt x="557" y="432" on="0"/>
        <pt x="504" y="432" on="1"/>
        <pt x="483" y="432" on="0"/>
        <pt x="463" y="439" on="1"/>
        <pt x="467" y="469" on="0"/>
        <pt x="467" y="539" on="0"/>
        <pt x="462" y="571" on="0"/>
        <pt x="456" y="584" on="1"/>
        <pt x="443" y="611" on="0"/>
        <pt x="386" y="611" on="0"/>
        <pt x="323" y="550" on="0"/>
        <pt x="298" y="500" on="1"/>
        <pt x="243" y="388" on="0"/>
        <pt x="243" y="253" on="1"/>
        <pt x="243" y="191" on="0"/>
        <pt x="267" y="147" on="1"/>
        <pt x="293" y="99" on="0"/>
        <pt x="339" y="99" on="1"/>
        <pt x="355" y="99" on="0"/>
        <pt x="384" y="115" on="0"/>
        <pt x="390" y="121" on="1"/>
        <pt x="422" y="322" on="1"/>
      </contour>
    </TTGlyph>
    <TTGlyph name="H" xMin="6" yMin="-20" xMax="700" yMax="660">
      <contour>
        <pt x="390" y="75" on="1"/>
        <pt x="390" y="145" on="0"/>
        <pt x="418" y="285" on="1"/>
        <pt x="270" y="285" on="1"/>
        <pt x="215" y="0" on="1"/>
        <pt x="6" y="0" on="1"/>
        <pt x="133" y="660" on="1"/>
        <pt x="344" y="660" on="1"/>
        <pt x="286" y="365" on="1"/>
        <pt x="434" y="365" on="1"/>
        <pt x="489" y="660" on="1"/>
        <pt x="700" y="660" on="1"/>
        <pt x="686" y="586" on="0"/>
        <pt x="668" y="503" on="1"/>
        <pt x="634" y="340" on="1"/>
        <pt x="596" y="150" on="0"/>
        <pt x="596" y="67" on="1"/>
        <pt x="596" y="33" on="0"/>
        <pt x="607" y="14" on="1"/>
        <pt x="557" y="-20" on="0"/>
        <pt x="440" y="-20" on="0"/>
        <pt x="390" y="36" on="0"/>
      </contour>
    </TTGlyph>
    <TTGlyph name="I" xMin="6" yMin="0" xMax="353" yMax="660">
      <contour>
        <pt x="6" y="0" on="1"/>
        <pt x="133" y="660" on="1"/>
        <pt x="353" y="660" on="1"/>
        <pt x="224" y="0" on="1"/>
      </contour>
    </TTGlyph>
    <TTGlyph name="Iacute" xMin="6" yMin="0" xMax="405" yMax="861">
      <contour>
        <pt x="6" y="0" on="1"/>
        <pt x="133" y="660" on="1"/>
        <pt x="353" y="660" on="1"/>
        <pt x="224" y="0" on="1"/>
      </contour>
      <contour>
        <pt x="377" y="861" on="1"/>
        <pt x="405" y="841" on="0"/>
        <pt x="405" y="783" on="0"/>
        <pt x="381" y="748" on="0"/>
        <pt x="362" y="736" on="1"/>
        <pt x="327" y="716" on="0"/>
        <pt x="263" y="714" on="1"/>
        <pt x="144" y="710" on="1"/>
        <pt x="132" y="759" on="1"/>
      </contour>
    </TTGlyph>
    <TTGlyph name="Icircumflex" xMin="6" yMin="0" xMax="426" yMax="856">
      <contour>
        <pt x="6" y="0" on="1"/>
        <pt x="133" y="660" on="1"/>
        <pt x="353" y="660" on="1"/>
        <pt x="224" y="0" on="1"/>
      </contour>
      <contour>
        <pt x="97" y="749" on="1"/>
        <pt x="290" y="856" on="1"/>
        <pt x="426" y="752" on="1"/>
        <pt x="382" y="699" on="1"/>
        <pt x="267" y="748" on="1"/>
        <pt x="122" y="694" on="1"/>
      </contour>
    </TTGlyph>
    <TTGlyph name="Idieresis" xMin="6" yMin="0" xMax="433" yMax="831">
      <contour>
        <pt x="6" y="0" on="1"/>
        <pt x="133" y="660" on="1"/>
        <pt x="353" y="660" on="1"/>
        <pt x="224" y="0" on="1"/>
      </contour>
      <contour>
        <pt x="128" y="700" on="0"/>
        <pt x="82" y="734" on="0"/>
        <pt x="82" y="797" on="0"/>
        <pt x="132" y="831" on="0"/>
        <pt x="203" y="831" on="0"/>
        <pt x="246" y="797" on="0"/>
        <pt x="246" y="734" on="0"/>
        <pt x="198" y="700" on="0"/>
        <pt x="163" y="700" on="1"/>
      </contour>
      <contour>
        <pt x="314" y="700" on="0"/>
        <pt x="269" y="734" on="0"/>
        <pt x="269" y="797" on="0"/>
        <pt x="318" y="831" on="0"/>
        <pt x="389" y="831" on="0"/>
        <pt x="433" y="797" on="0"/>
        <pt x="433" y="734" on="0"/>
        <pt x="384" y="700" on="0"/>
        <pt x="349" y="700" on="1"/>
      </contour>
    </TTGlyph>
    <TTGlyph name="Igrave" xMin="6" yMin="0" xMax="376" yMax="861">
      <contour>
        <pt x="6" y="0" on="1"/>
        <pt x="133" y="660" on="1"/>
        <pt x="353" y="660" on="1"/>
        <pt x="224" y="0" on="1"/>
      </contour>
      <contour>
        <pt x="103" y="812" on="1"/>
        <pt x="103" y="841" on="0"/>
        <pt x="131" y="861" on="1"/>
        <pt x="376" y="759" on="1"/>
        <pt x="364" y="710" on="1"/>
        <pt x="245" y="714" on="1"/>
        <pt x="103" y="719" on="0"/>
      </contour>
    </TTGlyph>
    <TTGlyph name="J" xMin="-109" yMin="-190" xMax="351" yMax="660">
      <contour>
        <pt x="-109" y="-138" on="1"/>
        <pt x="-58" y="-132" on="0"/>
        <pt x="-26" y="-66" on="1"/>
        <pt x="7" y="1" on="0"/>
        <pt x="37" y="155" on="1"/>
        <pt x="134" y="660" on="1"/>
        <pt x="351" y="660" on="1"/>
        <pt x="254" y="155" on="1"/>
        <pt x="217" y="-41" on="0"/>
        <pt x="156" y="-118" on="1"/>
        <pt x="124" y="-158" on="0"/>
        <pt x="43" y="-190" on="0"/>
        <pt x="-45" y="-190" on="0"/>
        <pt x="-102" y="-158" on="0"/>
      </contour>
    </TTGlyph>
    <TTGlyph name="K" xMin="8" yMin="-20" xMax="744" yMax="677">
      <contour>
        <pt x="8" y="0" on="1"/>
        <pt x="122" y="608" on="1"/>
        <pt x="133" y="660" on="1"/>
        <pt x="347" y="660" on="1"/>
        <pt x="221" y="0" on="1"/>
      </contour>
      <contour>
        <pt x="627" y="59" on="1"/>
        <pt x="600" y="-20" on="0"/>
        <pt x="496" y="-20" on="1"/>
        <pt x="419" y="-20" on="0"/>
        <pt x="366" y="72" on="1"/>
        <pt x="312" y="164" on="0"/>
        <pt x="302" y="314" on="1"/>
        <pt x="412" y="515" on="0"/>
        <pt x="488" y="598" on="1"/>
        <pt x="561" y="677" on="0"/>
        <pt x="637" y="677" on="1"/>
        <pt x="678" y="677" on="0"/>
        <pt x="737" y="633" on="0"/>
        <pt x="744" y="598" on="1"/>
        <pt x="710" y="584" on="0"/>
        <pt x="694" y="573" on="1"/>
        <pt x="654" y="543" on="0"/>
        <pt x="600" y="476" on="1"/>
        <pt x="509" y="367" on="1"/>
        <pt x="487" y="341" on="0"/>
        <pt x="478" y="329" on="1"/>
        <pt x="493" y="245" on="0"/>
        <pt x="538" y="162" on="1"/>
        <pt x="581" y="83" on="0"/>
      </contour>
    </TTGlyph>
    <TTGlyph name="L" xMin="9" yMin="-20" xMax="454" yMax="660">
      <contour>
        <pt x="435" y="154" on="1"/>
        <pt x="454" y="130" on="0"/>
        <pt x="454" y="37" on="0"/>
        <pt x="383" y="-20" on="0"/>
        <pt x="321" y="-20" on="1"/>
        <pt x="285" y="-20" on="0"/>
        <pt x="229" y="-12" on="1"/>
        <pt x="119" y="5" on="0"/>
        <pt x="56" y="5" on="0"/>
        <pt x="30" y="2" on="0"/>
        <pt x="9" y="0" on="1"/>
        <pt x="130" y="660" on="1"/>
        <pt x="349" y="660" on="1"/>
        <pt x="249" y="110" on="1"/>
        <pt x="262" y="108" on="0"/>
        <pt x="274" y="108" on="1"/>
        <pt x="299" y="108" on="1"/>
        <pt x="383" y="108" on="0"/>
      </contour>
    </TTGlyph>
    <TTGlyph name="Lslash" xMin="-29" yMin="-20" xMax="479" yMax="660">
      <contour>
        <pt x="-8" y="199" on="1"/>
        <pt x="-29" y="218" on="0"/>
        <pt x="-29" y="241" on="1"/>
        <pt x="-29" y="289" on="0"/>
        <pt x="16" y="304" on="1"/>
        <pt x="417" y="451" on="1"/>
        <pt x="436" y="435" on="0"/>
        <pt x="436" y="400" on="1"/>
        <pt x="436" y="357" on="0"/>
        <pt x="366" y="333" on="1"/>
      </contour>
      <contour>
        <pt x="460" y="154" on="1"/>
        <pt x="479" y="130" on="0"/>
        <pt x="479" y="37" on="0"/>
        <pt x="408" y="-20" on="0"/>
        <pt x="346" y="-20" on="1"/>
        <pt x="310" y="-20" on="0"/>
        <pt x="254" y="-12" on="1"/>
        <pt x="144" y="5" on="0"/>
        <pt x="81" y="5" on="0"/>
        <pt x="55" y="2" on="0"/>
        <pt x="34" y="0" on="1"/>
        <pt x="155" y="660" on="1"/>
        <pt x="374" y="660" on="1"/>
        <pt x="274" y="110" on="1"/>
        <pt x="287" y="108" on="0"/>
        <pt x="299" y="108" on="1"/>
        <pt x="324" y="108" on="1"/>
        <pt x="408" y="108" on="0"/>
      </contour>
    </TTGlyph>
    <TTGlyph name="M" xMin="-13" yMin="-20" xMax="854" yMax="660">
      <contour>
        <pt x="-13" y="0" on="1"/>
        <pt x="168" y="660" on="1"/>
        <pt x="377" y="660" on="1"/>
        <pt x="423" y="283" on="1"/>
        <pt x="609" y="660" on="1"/>
        <pt x="784" y="660" on="1"/>
        <pt x="802" y="166" on="1"/>
        <pt x="806" y="68" on="0"/>
        <pt x="854" y="38" on="1"/>
        <pt x="843" y="18" on="0"/>
        <pt x="779" y="-20" on="0"/>
        <pt x="694" y="-20" on="0"/>
        <pt x="644" y="4" on="0"/>
        <pt x="630" y="24" on="1"/>
        <pt x="605" y="60" on="0"/>
        <pt x="605" y="129" on="1"/>
        <pt x="605" y="438" on="1"/>
        <pt x="408" y="0" on="1"/>
        <pt x="284" y="0" on="1"/>
        <pt x="214" y="449" on="1"/>
        <pt x="102" y="0" on="1"/>
      </contour>
    </TTGlyph>
    <TTGlyph name="N" xMin="10" yMin="0" xMax="695" yMax="660">
      <contour>
        <pt x="10" y="0" on="1"/>
        <pt x="130" y="660" on="1"/>
        <pt x="345" y="660" on="1"/>
        <pt x="501" y="206" on="1"/>
        <pt x="584" y="660" on="1"/>
        <pt x="695" y="659" on="1"/>
        <pt x="573" y="0" on="1"/>
        <pt x="344" y="0" on="1"/>
        <pt x="200" y="437" on="1"/>
        <pt x="120" y="0" on="1"/>
      </contour>
    </TTGlyph>
    <TTGlyph name="Ntilde" xMin="10" yMin="0" xMax="695" yMax="826">
      <component glyphName="N" x="0" y="0" flags="0x1204"/>
      <component glyphName="tilde" x="270" y="99" flags="0x1004"/>
    </TTGlyph>
    <TTGlyph name="O" xMin="32" yMin="-20" xMax="678" yMax="681">
      <contour>
        <pt x="32" y="244" on="1"/>
        <pt x="32" y="433" on="0"/>
        <pt x="130" y="552" on="1"/>
        <pt x="234" y="681" on="0"/>
        <pt x="415" y="681" on="1"/>
        <pt x="546" y="681" on="0"/>
        <pt x="678" y="554" on="0"/>
        <pt x="678" y="420" on="1"/>
        <pt x="678" y="216" on="0"/>
        <pt x="574" y="97" on="1"/>
        <pt x="471" y="-20" on="0"/>
        <pt x="298" y="-20" on="1"/>
        <pt x="163" y="-20" on="0"/>
        <pt x="32" y="115" on="0"/>
      </contour>
      <contour>
        <pt x="295" y="451" on="1"/>
        <pt x="250" y="271" on="0"/>
        <pt x="250" y="129" on="1"/>
        <pt x="250" y="95" on="0"/>
        <pt x="273" y="51" on="0"/>
        <pt x="334" y="51" on="0"/>
        <pt x="372" y="80" on="0"/>
        <pt x="387" y="113" on="1"/>
        <pt x="411" y="167" on="0"/>
        <pt x="456" y="396" on="0"/>
        <pt x="460" y="491" on="0"/>
        <pt x="460" y="563" on="0"/>
        <pt x="438" y="609" on="0"/>
        <pt x="379" y="609" on="0"/>
        <pt x="359" y="591" on="1"/>
        <pt x="322" y="557" on="0"/>
      </contour>
    </TTGlyph>
    <TTGlyph name="OE" xMin="30" yMin="-20" xMax="915" yMax="680">
      <contour>
        <pt x="693" y="109" on="1"/>
        <pt x="766" y="109" on="0"/>
        <pt x="809" y="154" on="1"/>
        <pt x="830" y="128" on="0"/>
        <pt x="830" y="90" on="1"/>
        <pt x="830" y="-20" on="0"/>
        <pt x="650" y="-20" on="1"/>
        <pt x="599" y="-20" on="0"/>
        <pt x="554" y="2" on="1"/>
        <pt x="510" y="22" on="0"/>
        <pt x="502" y="52" on="1"/>
        <pt x="468" y="17" on="0"/>
        <pt x="368" y="-20" on="0"/>
        <pt x="285" y="-20" on="1"/>
        <pt x="160" y="-20" on="0"/>
        <pt x="30" y="119" on="0"/>
        <pt x="30" y="248" on="1"/>
        <pt x="30" y="339" on="0"/>
        <pt x="88" y="497" on="0"/>
        <pt x="189" y="613" on="0"/>
        <pt x="326" y="680" on="0"/>
        <pt x="465" y="680" on="0"/>
        <pt x="514" y="660" on="1"/>
        <pt x="914" y="660" on="1"/>
        <pt x="914" y="655" on="0"/>
        <pt x="914" y="651" on="1"/>
        <pt x="914" y="601" on="0"/>
        <pt x="853" y="535" on="0"/>
        <pt x="736" y="535" on="0"/>
        <pt x="680" y="562" on="1"/>
        <pt x="656" y="387" on="1"/>
        <pt x="840" y="387" on="1"/>
        <pt x="840" y="380" on="1"/>
        <pt x="840" y="331" on="0"/>
        <pt x="787" y="275" on="0"/>
        <pt x="739" y="275" on="1"/>
        <pt x="699" y="275" on="0"/>
        <pt x="647" y="294" on="0"/>
        <pt x="642" y="298" on="1"/>
        <pt x="640" y="287" on="1"/>
        <pt x="629" y="219" on="0"/>
        <pt x="629" y="169" on="1"/>
        <pt x="629" y="144" on="0"/>
        <pt x="667" y="109" on="0"/>
      </contour>
      <contour>
        <pt x="253" y="343" on="0"/>
        <pt x="239" y="244" on="0"/>
        <pt x="239" y="156" on="0"/>
        <pt x="244" y="103" on="0"/>
        <pt x="250" y="87" on="1"/>
        <pt x="261" y="57" on="0"/>
        <pt x="321" y="57" on="0"/>
        <pt x="383" y="128" on="0"/>
        <pt x="407" y="186" on="1"/>
        <pt x="460" y="314" on="0"/>
        <pt x="460" y="470" on="1"/>
        <pt x="460" y="551" on="0"/>
        <pt x="443" y="596" on="0"/>
        <pt x="422" y="609" on="0"/>
        <pt x="386" y="609" on="0"/>
        <pt x="347" y="575" on="0"/>
        <pt x="309" y="515" on="0"/>
        <pt x="277" y="435" on="0"/>
      </contour>
    </TTGlyph>
    <TTGlyph name="Oacute" xMin="32" yMin="-20" xMax="678" yMax="861">
      <contour>
        <pt x="32" y="244" on="1"/>
        <pt x="32" y="433" on="0"/>
        <pt x="130" y="552" on="1"/>
        <pt x="234" y="681" on="0"/>
        <pt x="415" y="681" on="1"/>
        <pt x="546" y="681" on="0"/>
        <pt x="678" y="554" on="0"/>
        <pt x="678" y="420" on="1"/>
        <pt x="678" y="216" on="0"/>
        <pt x="574" y="97" on="1"/>
        <pt x="471" y="-20" on="0"/>
        <pt x="298" y="-20" on="1"/>
        <pt x="163" y="-20" on="0"/>
        <pt x="32" y="115" on="0"/>
      </contour>
      <contour>
        <pt x="295" y="451" on="1"/>
        <pt x="250" y="271" on="0"/>
        <pt x="250" y="129" on="1"/>
        <pt x="250" y="95" on="0"/>
        <pt x="273" y="51" on="0"/>
        <pt x="334" y="51" on="0"/>
        <pt x="372" y="80" on="0"/>
        <pt x="387" y="113" on="1"/>
        <pt x="411" y="167" on="0"/>
        <pt x="456" y="396" on="0"/>
        <pt x="460" y="491" on="0"/>
        <pt x="460" y="563" on="0"/>
        <pt x="438" y="609" on="0"/>
        <pt x="379" y="609" on="0"/>
        <pt x="359" y="591" on="1"/>
        <pt x="322" y="557" on="0"/>
      </contour>
      <contour>
        <pt x="336" y="759" on="1"/>
        <pt x="581" y="861" on="1"/>
        <pt x="609" y="841" on="0"/>
        <pt x="609" y="784" on="0"/>
        <pt x="588" y="748" on="0"/>
        <pt x="569" y="736" on="1"/>
        <pt x="535" y="716" on="0"/>
        <pt x="467" y="714" on="1"/>
        <pt x="348" y="710" on="1"/>
      </contour>
    </TTGlyph>
    <TTGlyph name="Ocircumflex" xMin="32" yMin="-20" xMax="678" yMax="856">
      <contour>
        <pt x="32" y="244" on="1"/>
        <pt x="32" y="433" on="0"/>
        <pt x="130" y="552" on="1"/>
        <pt x="234" y="681" on="0"/>
        <pt x="415" y="681" on="1"/>
        <pt x="546" y="681" on="0"/>
        <pt x="678" y="554" on="0"/>
        <pt x="678" y="420" on="1"/>
        <pt x="678" y="216" on="0"/>
        <pt x="574" y="97" on="1"/>
        <pt x="471" y="-20" on="0"/>
        <pt x="298" y="-20" on="1"/>
        <pt x="163" y="-20" on="0"/>
        <pt x="32" y="115" on="0"/>
      </contour>
      <contour>
        <pt x="295" y="451" on="1"/>
        <pt x="250" y="271" on="0"/>
        <pt x="250" y="129" on="1"/>
        <pt x="250" y="95" on="0"/>
        <pt x="273" y="51" on="0"/>
        <pt x="334" y="51" on="0"/>
        <pt x="372" y="80" on="0"/>
        <pt x="387" y="113" on="1"/>
        <pt x="411" y="167" on="0"/>
        <pt x="456" y="396" on="0"/>
        <pt x="460" y="491" on="0"/>
        <pt x="460" y="563" on="0"/>
        <pt x="438" y="609" on="0"/>
        <pt x="379" y="609" on="0"/>
        <pt x="359" y="591" on="1"/>
        <pt x="322" y="557" on="0"/>
      </contour>
      <contour>
        <pt x="264" y="749" on="1"/>
        <pt x="457" y="856" on="1"/>
        <pt x="593" y="752" on="1"/>
        <pt x="549" y="699" on="1"/>
        <pt x="434" y="748" on="1"/>
        <pt x="289" y="694" on="1"/>
      </contour>
    </TTGlyph>
    <TTGlyph name="Odieresis" xMin="32" yMin="-20" xMax="678" yMax="831">
      <contour>
        <pt x="32" y="244" on="1"/>
        <pt x="32" y="433" on="0"/>
        <pt x="130" y="552" on="1"/>
        <pt x="234" y="681" on="0"/>
        <pt x="415" y="681" on="1"/>
        <pt x="546" y="681" on="0"/>
        <pt x="678" y="554" on="0"/>
        <pt x="678" y="420" on="1"/>
        <pt x="678" y="216" on="0"/>
        <pt x="574" y="97" on="1"/>
        <pt x="471" y="-20" on="0"/>
        <pt x="298" y="-20" on="1"/>
        <pt x="163" y="-20" on="0"/>
        <pt x="32" y="115" on="0"/>
      </contour>
      <contour>
        <pt x="295" y="451" on="1"/>
        <pt x="250" y="271" on="0"/>
        <pt x="250" y="129" on="1"/>
        <pt x="250" y="95" on="0"/>
        <pt x="273" y="51" on="0"/>
        <pt x="334" y="51" on="0"/>
        <pt x="372" y="80" on="0"/>
        <pt x="387" y="113" on="1"/>
        <pt x="411" y="167" on="0"/>
        <pt x="456" y="396" on="0"/>
        <pt x="460" y="491" on="0"/>
        <pt x="460" y="563" on="0"/>
        <pt x="438" y="609" on="0"/>
        <pt x="379" y="609" on="0"/>
        <pt x="359" y="591" on="1"/>
        <pt x="322" y="557" on="0"/>
      </contour>
      <contour>
        <pt x="299" y="700" on="0"/>
        <pt x="251" y="734" on="0"/>
        <pt x="251" y="797" on="0"/>
        <pt x="303" y="831" on="0"/>
        <pt x="378" y="831" on="0"/>
        <pt x="423" y="797" on="0"/>
        <pt x="423" y="734" on="0"/>
        <pt x="373" y="700" on="0"/>
        <pt x="336" y="700" on="1"/>
      </contour>
      <contour>
        <pt x="500" y="700" on="0"/>
        <pt x="453" y="734" on="0"/>
        <pt x="453" y="797" on="0"/>
        <pt x="504" y="831" on="0"/>
        <pt x="579" y="831" on="0"/>
        <pt x="625" y="797" on="0"/>
        <pt x="625" y="734" on="0"/>
        <pt x="574" y="700" on="0"/>
        <pt x="537" y="700" on="1"/>
      </contour>
    </TTGlyph>
    <TTGlyph name="Ograve" xMin="32" yMin="-20" xMax="678" yMax="861">
      <contour>
        <pt x="32" y="244" on="1"/>
        <pt x="32" y="433" on="0"/>
        <pt x="130" y="552" on="1"/>
        <pt x="234" y="681" on="0"/>
        <pt x="415" y="681" on="1"/>
        <pt x="546" y="681" on="0"/>
        <pt x="678" y="554" on="0"/>
        <pt x="678" y="420" on="1"/>
        <pt x="678" y="216" on="0"/>
        <pt x="574" y="97" on="1"/>
        <pt x="471" y="-20" on="0"/>
        <pt x="298" y="-20" on="1"/>
        <pt x="163" y="-20" on="0"/>
        <pt x="32" y="115" on="0"/>
      </contour>
      <contour>
        <pt x="295" y="451" on="1"/>
        <pt x="250" y="271" on="0"/>
        <pt x="250" y="129" on="1"/>
        <pt x="250" y="95" on="0"/>
        <pt x="273" y="51" on="0"/>
        <pt x="334" y="51" on="0"/>
        <pt x="372" y="80" on="0"/>
        <pt x="387" y="113" on="1"/>
        <pt x="411" y="167" on="0"/>
        <pt x="456" y="396" on="0"/>
        <pt x="460" y="491" on="0"/>
        <pt x="460" y="563" on="0"/>
        <pt x="438" y="609" on="0"/>
        <pt x="379" y="609" on="0"/>
        <pt x="359" y="591" on="1"/>
        <pt x="322" y="557" on="0"/>
      </contour>
      <contour>
        <pt x="280" y="812" on="1"/>
        <pt x="280" y="841" on="0"/>
        <pt x="308" y="861" on="1"/>
        <pt x="553" y="759" on="1"/>
        <pt x="541" y="710" on="1"/>
        <pt x="422" y="714" on="1"/>
        <pt x="280" y="719" on="0"/>
      </contour>
    </TTGlyph>
    <TTGlyph name="Omega" xMin="9" yMin="0" xMax="679" yMax="681">
      <contour>
        <pt x="473" y="474" on="1"/>
        <pt x="471" y="609" on="0"/>
        <pt x="410" y="609" on="1"/>
        <pt x="375" y="609" on="0"/>
        <pt x="318" y="547" on="0"/>
        <pt x="298" y="497" on="1"/>
        <pt x="255" y="393" on="0"/>
        <pt x="255" y="260" on="1"/>
        <pt x="255" y="173" on="0"/>
        <pt x="276" y="133" on="1"/>
        <pt x="284" y="119" on="0"/>
        <pt x="295" y="105" on="1"/>
        <pt x="265" y="0" on="1"/>
        <pt x="96" y="0" on="1"/>
        <pt x="45" y="0" on="0"/>
        <pt x="9" y="43" on="0"/>
        <pt x="9" y="67" on="1"/>
        <pt x="9" y="115" on="0"/>
        <pt x="34" y="150" on="1"/>
        <pt x="53" y="127" on="0"/>
        <pt x="76" y="120" on="1"/>
        <pt x="117" y="108" on="0"/>
        <pt x="183" y="108" on="1"/>
        <pt x="114" y="127" on="0"/>
        <pt x="47" y="235" on="0"/>
        <pt x="47" y="332" on="1"/>
        <pt x="47" y="395" on="0"/>
        <pt x="98" y="520" on="0"/>
        <pt x="194" y="619" on="0"/>
        <pt x="329" y="681" on="0"/>
        <pt x="413" y="681" on="1"/>
        <pt x="538" y="681" on="0"/>
        <pt x="679" y="559" on="0"/>
        <pt x="679" y="428" on="1"/>
        <pt x="679" y="308" on="0"/>
        <pt x="618" y="223" on="1"/>
        <pt x="556" y="136" on="0"/>
        <pt x="446" y="108" on="1"/>
        <pt x="521" y="108" on="0"/>
        <pt x="618" y="135" on="0"/>
        <pt x="629" y="150" on="1"/>
        <pt x="645" y="122" on="0"/>
        <pt x="645" y="50" on="0"/>
        <pt x="593" y="0" on="0"/>
        <pt x="526" y="0" on="1"/>
        <pt x="344" y="0" on="1"/>
        <pt x="344" y="105" on="1"/>
        <pt x="398" y="137" on="0"/>
        <pt x="437" y="260" on="1"/>
        <pt x="473" y="372" on="0"/>
      </contour>
    </TTGlyph>
    <TTGlyph name="Oslash" xMin="23" yMin="-58" xMax="678" yMax="721">
      <contour>
        <pt x="55" y="-58" on="0"/>
        <pt x="24" y="-25" on="0"/>
        <pt x="23" y="38" on="0"/>
        <pt x="47" y="65" on="1"/>
        <pt x="592" y="685" on="1"/>
        <pt x="607" y="704" on="0"/>
        <pt x="617" y="721" on="1"/>
        <pt x="639" y="721" on="0"/>
        <pt x="674" y="680" on="0"/>
        <pt x="674" y="622" on="0"/>
        <pt x="648" y="594" on="1"/>
        <pt x="141" y="24" on="1"/>
        <pt x="107" y="-11" on="0"/>
        <pt x="80" y="-58" on="1"/>
      </contour>
      <contour>
        <pt x="32" y="244" on="1"/>
        <pt x="32" y="433" on="0"/>
        <pt x="130" y="552" on="1"/>
        <pt x="234" y="681" on="0"/>
        <pt x="415" y="681" on="1"/>
        <pt x="546" y="681" on="0"/>
        <pt x="678" y="554" on="0"/>
        <pt x="678" y="420" on="1"/>
        <pt x="678" y="216" on="0"/>
        <pt x="574" y="97" on="1"/>
        <pt x="471" y="-20" on="0"/>
        <pt x="298" y="-20" on="1"/>
        <pt x="163" y="-20" on="0"/>
        <pt x="32" y="115" on="0"/>
      </contour>
      <contour>
        <pt x="295" y="451" on="1"/>
        <pt x="250" y="271" on="0"/>
        <pt x="250" y="129" on="1"/>
        <pt x="250" y="95" on="0"/>
        <pt x="273" y="51" on="0"/>
        <pt x="334" y="51" on="0"/>
        <pt x="372" y="80" on="0"/>
        <pt x="387" y="113" on="1"/>
        <pt x="411" y="167" on="0"/>
        <pt x="456" y="396" on="0"/>
        <pt x="460" y="491" on="0"/>
        <pt x="460" y="563" on="0"/>
        <pt x="438" y="609" on="0"/>
        <pt x="379" y="609" on="0"/>
        <pt x="359" y="591" on="1"/>
        <pt x="322" y="557" on="0"/>
      </contour>
    </TTGlyph>
    <TTGlyph name="Otilde" xMin="32" yMin="-20" xMax="678" yMax="835">
      <component glyphName="O" x="0" y="0" flags="0x1204"/>
      <component glyphName="tilde" x="267" y="108" flags="0x1004"/>
    </TTGlyph>
    <TTGlyph name="P" xMin="7" yMin="0" xMax="653" yMax="667">
      <contour>
        <pt x="408" y="667" on="1"/>
        <pt x="653" y="667" on="0"/>
        <pt x="653" y="494" on="1"/>
        <pt x="653" y="399" on="0"/>
        <pt x="592" y="342" on="1"/>
        <pt x="532" y="285" on="0"/>
        <pt x="427" y="285" on="1"/>
        <pt x="378" y="285" on="0"/>
        <pt x="340" y="313" on="1"/>
        <pt x="322" y="325" on="0"/>
        <pt x="310" y="341" on="1"/>
        <pt x="383" y="341" on="0"/>
        <pt x="460" y="430" on="0"/>
        <pt x="460" y="604" on="0"/>
        <pt x="374" y="604" on="1"/>
        <pt x="350" y="604" on="1"/>
        <pt x="344" y="604" on="0"/>
        <pt x="339" y="603" on="1"/>
        <pt x="224" y="0" on="1"/>
        <pt x="7" y="0" on="1"/>
        <pt x="130" y="655" on="1"/>
        <pt x="237" y="665" on="0"/>
        <pt x="361" y="667" on="0"/>
      </contour>
    </TTGlyph>
    <TTGlyph name="Q" xMin="35" yMin="-179" xMax="699" yMax="681">
      <contour>
        <pt x="135" y="60" on="1"/>
        <pt x="170" y="41" on="0"/>
        <pt x="274" y="41" on="0"/>
        <pt x="361" y="104" on="0"/>
        <pt x="392" y="162" on="1"/>
        <pt x="456" y="285" on="0"/>
        <pt x="456" y="483" on="1"/>
        <pt x="456" y="609" on="0"/>
        <pt x="399" y="609" on="1"/>
        <pt x="369" y="609" on="0"/>
        <pt x="311" y="543" on="0"/>
        <pt x="288" y="490" on="1"/>
        <pt x="238" y="369" on="0"/>
        <pt x="238" y="227" on="1"/>
        <pt x="238" y="198" on="0"/>
        <pt x="266" y="163" on="0"/>
        <pt x="291" y="163" on="1"/>
        <pt x="287" y="132" on="0"/>
        <pt x="233" y="88" on="0"/>
        <pt x="199" y="88" on="1"/>
        <pt x="118" y="88" on="0"/>
        <pt x="35" y="189" on="0"/>
        <pt x="35" y="372" on="0"/>
        <pt x="91" y="516" on="0"/>
        <pt x="189" y="621" on="0"/>
        <pt x="324" y="681" on="0"/>
        <pt x="404" y="681" on="1"/>
        <pt x="672" y="681" on="0"/>
        <pt x="672" y="420" on="1"/>
        <pt x="672" y="232" on="0"/>
        <pt x="582" y="117" on="1"/>
        <pt x="492" y="1" on="0"/>
        <pt x="336" y="-13" on="1"/>
        <pt x="428" y="-33" on="0"/>
        <pt x="521" y="-33" on="1"/>
        <pt x="594" y="-33" on="0"/>
        <pt x="648" y="-2" on="1"/>
        <pt x="663" y="7" on="0"/>
        <pt x="669" y="17" on="1"/>
        <pt x="699" y="-10" on="0"/>
        <pt x="699" y="-117" on="0"/>
        <pt x="604" y="-179" on="0"/>
        <pt x="419" y="-179" on="0"/>
        <pt x="205" y="-93" on="0"/>
        <pt x="113" y="-13" on="1"/>
      </contour>
    </TTGlyph>
    <TTGlyph name="R" xMin="8" yMin="-20" xMax="652" yMax="668">
      <contour>
        <pt x="8" y="0" on="1"/>
        <pt x="130" y="657" on="1"/>
        <pt x="229" y="668" on="0"/>
        <pt x="518" y="668" on="0"/>
        <pt x="652" y="584" on="0"/>
        <pt x="652" y="415" on="0"/>
        <pt x="565" y="309" on="0"/>
        <pt x="490" y="292" on="1"/>
        <pt x="507" y="209" on="0"/>
        <pt x="546" y="142" on="1"/>
        <pt x="582" y="79" on="0"/>
        <pt x="624" y="59" on="1"/>
        <pt x="609" y="17" on="0"/>
        <pt x="548" y="-20" on="0"/>
        <pt x="461" y="-20" on="0"/>
        <pt x="393" y="31" on="0"/>
        <pt x="366" y="78" on="1"/>
        <pt x="309" y="180" on="0"/>
        <pt x="303" y="341" on="1"/>
        <pt x="310" y="341" on="1"/>
        <pt x="384" y="343" on="0"/>
        <pt x="458" y="420" on="0"/>
        <pt x="458" y="501" on="1"/>
        <pt x="458" y="602" on="0"/>
        <pt x="373" y="606" on="1"/>
        <pt x="351" y="606" on="1"/>
        <pt x="342" y="606" on="0"/>
        <pt x="337" y="605" on="1"/>
        <pt x="222" y="0" on="1"/>
      </contour>
    </TTGlyph>
    <TTGlyph name="S" xMin="2" yMin="-20" xMax="586" yMax="680">
      <contour>
        <pt x="407" y="462" on="1"/>
        <pt x="422" y="492" on="0"/>
        <pt x="422" y="548" on="0"/>
        <pt x="416" y="579" on="0"/>
        <pt x="409" y="591" on="1"/>
        <pt x="394" y="617" on="0"/>
        <pt x="364" y="617" on="1"/>
        <pt x="327" y="617" on="0"/>
        <pt x="297" y="590" on="1"/>
        <pt x="265" y="562" on="0"/>
        <pt x="265" y="518" on="1"/>
        <pt x="265" y="490" on="0"/>
        <pt x="304" y="447" on="0"/>
        <pt x="364" y="407" on="0"/>
        <pt x="432" y="367" on="0"/>
        <pt x="462" y="343" on="1"/>
        <pt x="531" y="288" on="0"/>
        <pt x="531" y="214" on="1"/>
        <pt x="531" y="164" on="0"/>
        <pt x="478" y="79" on="0"/>
        <pt x="434" y="48" on="1"/>
        <pt x="338" y="-20" on="0"/>
        <pt x="211" y="-20" on="1"/>
        <pt x="108" y="-20" on="0"/>
        <pt x="2" y="47" on="0"/>
        <pt x="2" y="98" on="1"/>
        <pt x="2" y="189" on="0"/>
        <pt x="73" y="212" on="1"/>
        <pt x="93" y="219" on="0"/>
        <pt x="154" y="219" on="0"/>
        <pt x="189" y="206" on="1"/>
        <pt x="173" y="165" on="0"/>
        <pt x="173" y="128" on="1"/>
        <pt x="173" y="48" on="0"/>
        <pt x="230" y="48" on="1"/>
        <pt x="267" y="48" on="0"/>
        <pt x="328" y="102" on="0"/>
        <pt x="328" y="163" on="0"/>
        <pt x="289" y="207" on="0"/>
        <pt x="231" y="242" on="0"/>
        <pt x="164" y="276" on="0"/>
        <pt x="135" y="300" on="1"/>
        <pt x="67" y="355" on="0"/>
        <pt x="67" y="443" on="1"/>
        <pt x="67" y="500" on="0"/>
        <pt x="123" y="589" on="0"/>
        <pt x="168" y="619" on="1"/>
        <pt x="258" y="680" on="0"/>
        <pt x="479" y="680" on="0"/>
        <pt x="586" y="614" on="0"/>
        <pt x="586" y="558" on="1"/>
        <pt x="586" y="509" on="0"/>
        <pt x="548" y="478" on="1"/>
        <pt x="515" y="452" on="0"/>
        <pt x="435" y="452" on="0"/>
      </contour>
    </TTGlyph>
    <TTGlyph name="Scaron" xMin="2" yMin="-20" xMax="586" yMax="855">
      <contour>
        <pt x="407" y="462" on="1"/>
        <pt x="422" y="492" on="0"/>
        <pt x="422" y="548" on="0"/>
        <pt x="416" y="579" on="0"/>
        <pt x="409" y="591" on="1"/>
        <pt x="394" y="617" on="0"/>
        <pt x="364" y="617" on="1"/>
        <pt x="327" y="617" on="0"/>
        <pt x="297" y="590" on="1"/>
        <pt x="265" y="562" on="0"/>
        <pt x="265" y="518" on="1"/>
        <pt x="265" y="490" on="0"/>
        <pt x="304" y="447" on="0"/>
        <pt x="364" y="407" on="0"/>
        <pt x="432" y="367" on="0"/>
        <pt x="462" y="343" on="1"/>
        <pt x="531" y="288" on="0"/>
        <pt x="531" y="214" on="1"/>
        <pt x="531" y="164" on="0"/>
        <pt x="478" y="79" on="0"/>
        <pt x="434" y="48" on="1"/>
        <pt x="338" y="-20" on="0"/>
        <pt x="211" y="-20" on="1"/>
        <pt x="108" y="-20" on="0"/>
        <pt x="2" y="47" on="0"/>
        <pt x="2" y="98" on="1"/>
        <pt x="2" y="189" on="0"/>
        <pt x="73" y="212" on="1"/>
        <pt x="93" y="219" on="0"/>
        <pt x="154" y="219" on="0"/>
        <pt x="189" y="206" on="1"/>
        <pt x="173" y="165" on="0"/>
        <pt x="173" y="128" on="1"/>
        <pt x="173" y="48" on="0"/>
        <pt x="230" y="48" on="1"/>
        <pt x="267" y="48" on="0"/>
        <pt x="328" y="102" on="0"/>
        <pt x="328" y="163" on="0"/>
        <pt x="289" y="207" on="0"/>
        <pt x="231" y="242" on="0"/>
        <pt x="164" y="276" on="0"/>
        <pt x="135" y="300" on="1"/>
        <pt x="67" y="355" on="0"/>
        <pt x="67" y="443" on="1"/>
        <pt x="67" y="500" on="0"/>
        <pt x="123" y="589" on="0"/>
        <pt x="168" y="619" on="1"/>
        <pt x="258" y="680" on="0"/>
        <pt x="479" y="680" on="0"/>
        <pt x="586" y="614" on="0"/>
        <pt x="586" y="558" on="1"/>
        <pt x="586" y="509" on="0"/>
        <pt x="548" y="478" on="1"/>
        <pt x="515" y="452" on="0"/>
        <pt x="435" y="452" on="0"/>
      </contour>
      <contour>
        <pt x="245" y="807" on="1"/>
        <pt x="281" y="855" on="1"/>
        <pt x="405" y="801" on="1"/>
        <pt x="553" y="851" on="1"/>
        <pt x="584" y="807" on="1"/>
        <pt x="388" y="700" on="1"/>
      </contour>
    </TTGlyph>
    <TTGlyph name="T" xMin="63" yMin="-20" xMax="567" yMax="682">
      <contour>
        <pt x="97" y="487" on="1"/>
        <pt x="63" y="513" on="0"/>
        <pt x="63" y="624" on="0"/>
        <pt x="136" y="682" on="0"/>
        <pt x="199" y="682" on="1"/>
        <pt x="239" y="682" on="0"/>
        <pt x="334" y="668" on="1"/>
        <pt x="402" y="658" on="1"/>
        <pt x="436" y="654" on="0"/>
        <pt x="507" y="654" on="0"/>
        <pt x="531" y="669" on="1"/>
        <pt x="567" y="637" on="0"/>
        <pt x="567" y="545" on="0"/>
        <pt x="526" y="512" on="1"/>
        <pt x="484" y="477" on="0"/>
        <pt x="430" y="477" on="1"/>
        <pt x="404" y="477" on="0"/>
        <pt x="362" y="484" on="1"/>
        <pt x="313" y="330" on="0"/>
        <pt x="313" y="116" on="0"/>
        <pt x="367" y="60" on="1"/>
        <pt x="342" y="15" on="0"/>
        <pt x="268" y="-20" on="0"/>
        <pt x="157" y="-20" on="0"/>
        <pt x="88" y="41" on="0"/>
        <pt x="88" y="104" on="1"/>
        <pt x="88" y="177" on="0"/>
        <pt x="128" y="297" on="1"/>
        <pt x="168" y="416" on="0"/>
        <pt x="228" y="507" on="1"/>
        <pt x="199" y="510" on="0"/>
        <pt x="169" y="510" on="1"/>
        <pt x="107" y="510" on="0"/>
      </contour>
    </TTGlyph>
    <TTGlyph name="Thorn" xMin="6" yMin="0" xMax="629" yMax="660">
      <contour>
        <pt x="410" y="530" on="1"/>
        <pt x="629" y="530" on="0"/>
        <pt x="629" y="357" on="1"/>
        <pt x="629" y="261" on="0"/>
        <pt x="506" y="146" on="0"/>
        <pt x="403" y="146" on="1"/>
        <pt x="353" y="146" on="0"/>
        <pt x="315" y="174" on="1"/>
        <pt x="297" y="186" on="0"/>
        <pt x="284" y="202" on="1"/>
        <pt x="360" y="202" on="0"/>
        <pt x="400" y="252" on="1"/>
        <pt x="436" y="299" on="0"/>
        <pt x="436" y="378" on="1"/>
        <pt x="436" y="467" on="0"/>
        <pt x="350" y="467" on="1"/>
        <pt x="329" y="467" on="1"/>
        <pt x="321" y="467" on="0"/>
        <pt x="316" y="466" on="1"/>
        <pt x="225" y="0" on="1"/>
        <pt x="6" y="0" on="1"/>
        <pt x="133" y="660" on="1"/>
        <pt x="353" y="660" on="1"/>
        <pt x="327" y="529" on="1"/>
        <pt x="347" y="530" on="0"/>
        <pt x="367" y="530" on="1"/>
      </contour>
    </TTGlyph>
    <TTGlyph name="U" xMin="36" yMin="-20" xMax="666" yMax="660">
      <contour>
        <pt x="36" y="148" on="1"/>
        <pt x="36" y="187" on="0"/>
        <pt x="46" y="237" on="1"/>
        <pt x="127" y="660" on="1"/>
        <pt x="348" y="660" on="1"/>
        <pt x="268" y="234" on="1"/>
        <pt x="259" y="187" on="0"/>
        <pt x="259" y="118" on="0"/>
        <pt x="288" y="82" on="0"/>
        <pt x="342" y="82" on="0"/>
        <pt x="376" y="96" on="0"/>
        <pt x="390" y="113" on="1"/>
        <pt x="417" y="147" on="0"/>
        <pt x="434" y="234" on="1"/>
        <pt x="515" y="660" on="1"/>
        <pt x="666" y="660" on="1"/>
        <pt x="586" y="235" on="1"/>
        <pt x="558" y="93" on="0"/>
        <pt x="481" y="36" on="1"/>
        <pt x="406" y="-20" on="0"/>
        <pt x="258" y="-20" on="1"/>
        <pt x="147" y="-20" on="0"/>
        <pt x="88" y="28" on="1"/>
        <pt x="36" y="70" on="0"/>
      </contour>
    </TTGlyph>
    <TTGlyph name="Uacute" xMin="36" yMin="-20" xMax="666" yMax="861">
      <contour>
        <pt x="36" y="148" on="1"/>
        <pt x="36" y="187" on="0"/>
        <pt x="46" y="237" on="1"/>
        <pt x="127" y="660" on="1"/>
        <pt x="348" y="660" on="1"/>
        <pt x="268" y="234" on="1"/>
        <pt x="259" y="187" on="0"/>
        <pt x="259" y="118" on="0"/>
        <pt x="288" y="82" on="0"/>
        <pt x="342" y="82" on="0"/>
        <pt x="376" y="96" on="0"/>
        <pt x="390" y="113" on="1"/>
        <pt x="417" y="147" on="0"/>
        <pt x="434" y="234" on="1"/>
        <pt x="515" y="660" on="1"/>
        <pt x="666" y="660" on="1"/>
        <pt x="586" y="235" on="1"/>
        <pt x="558" y="93" on="0"/>
        <pt x="481" y="36" on="1"/>
        <pt x="406" y="-20" on="0"/>
        <pt x="258" y="-20" on="1"/>
        <pt x="147" y="-20" on="0"/>
        <pt x="88" y="28" on="1"/>
        <pt x="36" y="70" on="0"/>
      </contour>
      <contour>
        <pt x="335" y="759" on="1"/>
        <pt x="580" y="861" on="1"/>
        <pt x="594" y="851" on="0"/>
        <pt x="608" y="830" on="0"/>
        <pt x="608" y="784" on="0"/>
        <pt x="585" y="748" on="0"/>
        <pt x="566" y="737" on="1"/>
        <pt x="529" y="716" on="0"/>
        <pt x="466" y="714" on="1"/>
        <pt x="347" y="710" on="1"/>
      </contour>
    </TTGlyph>
    <TTGlyph name="Ucircumflex" xMin="36" yMin="-20" xMax="666" yMax="856">
      <contour>
        <pt x="36" y="148" on="1"/>
        <pt x="36" y="187" on="0"/>
        <pt x="46" y="237" on="1"/>
        <pt x="127" y="660" on="1"/>
        <pt x="348" y="660" on="1"/>
        <pt x="268" y="234" on="1"/>
        <pt x="259" y="187" on="0"/>
        <pt x="259" y="118" on="0"/>
        <pt x="288" y="82" on="0"/>
        <pt x="342" y="82" on="0"/>
        <pt x="376" y="96" on="0"/>
        <pt x="390" y="113" on="1"/>
        <pt x="417" y="147" on="0"/>
        <pt x="434" y="234" on="1"/>
        <pt x="515" y="660" on="1"/>
        <pt x="666" y="660" on="1"/>
        <pt x="586" y="235" on="1"/>
        <pt x="558" y="93" on="0"/>
        <pt x="481" y="36" on="1"/>
        <pt x="406" y="-20" on="0"/>
        <pt x="258" y="-20" on="1"/>
        <pt x="147" y="-20" on="0"/>
        <pt x="88" y="28" on="1"/>
        <pt x="36" y="70" on="0"/>
      </contour>
      <contour>
        <pt x="267" y="749" on="1"/>
        <pt x="460" y="856" on="1"/>
        <pt x="596" y="752" on="1"/>
        <pt x="552" y="699" on="1"/>
        <pt x="437" y="748" on="1"/>
        <pt x="292" y="694" on="1"/>
      </contour>
    </TTGlyph>
    <TTGlyph name="Udieresis" xMin="36" yMin="-20" xMax="666" yMax="831">
      <contour>
        <pt x="36" y="148" on="1"/>
        <pt x="36" y="187" on="0"/>
        <pt x="46" y="237" on="1"/>
        <pt x="127" y="660" on="1"/>
        <pt x="348" y="660" on="1"/>
        <pt x="268" y="234" on="1"/>
        <pt x="259" y="187" on="0"/>
        <pt x="259" y="118" on="0"/>
        <pt x="288" y="82" on="0"/>
        <pt x="342" y="82" on="0"/>
        <pt x="376" y="96" on="0"/>
        <pt x="390" y="113" on="1"/>
        <pt x="417" y="147" on="0"/>
        <pt x="434" y="234" on="1"/>
        <pt x="515" y="660" on="1"/>
        <pt x="666" y="660" on="1"/>
        <pt x="586" y="235" on="1"/>
        <pt x="558" y="93" on="0"/>
        <pt x="481" y="36" on="1"/>
        <pt x="406" y="-20" on="0"/>
        <pt x="258" y="-20" on="1"/>
        <pt x="147" y="-20" on="0"/>
        <pt x="88" y="28" on="1"/>
        <pt x="36" y="70" on="0"/>
      </contour>
      <contour>
        <pt x="299" y="700" on="0"/>
        <pt x="251" y="734" on="0"/>
        <pt x="251" y="797" on="0"/>
        <pt x="303" y="831" on="0"/>
        <pt x="378" y="831" on="0"/>
        <pt x="423" y="797" on="0"/>
        <pt x="423" y="734" on="0"/>
        <pt x="373" y="700" on="0"/>
        <pt x="336" y="700" on="1"/>
      </contour>
      <contour>
        <pt x="500" y="700" on="0"/>
        <pt x="453" y="734" on="0"/>
        <pt x="453" y="797" on="0"/>
        <pt x="504" y="831" on="0"/>
        <pt x="579" y="831" on="0"/>
        <pt x="625" y="797" on="0"/>
        <pt x="625" y="734" on="0"/>
        <pt x="574" y="700" on="0"/>
        <pt x="537" y="700" on="1"/>
      </contour>
    </TTGlyph>
    <TTGlyph name="Ugrave" xMin="36" yMin="-20" xMax="666" yMax="861">
      <contour>
        <pt x="36" y="148" on="1"/>
        <pt x="36" y="187" on="0"/>
        <pt x="46" y="237" on="1"/>
        <pt x="127" y="660" on="1"/>
        <pt x="348" y="660" on="1"/>
        <pt x="268" y="234" on="1"/>
        <pt x="259" y="187" on="0"/>
        <pt x="259" y="118" on="0"/>
        <pt x="288" y="82" on="0"/>
        <pt x="342" y="82" on="0"/>
        <pt x="376" y="96" on="0"/>
        <pt x="390" y="113" on="1"/>
        <pt x="417" y="147" on="0"/>
        <pt x="434" y="234" on="1"/>
        <pt x="515" y="660" on="1"/>
        <pt x="666" y="660" on="1"/>
        <pt x="586" y="235" on="1"/>
        <pt x="558" y="93" on="0"/>
        <pt x="481" y="36" on="1"/>
        <pt x="406" y="-20" on="0"/>
        <pt x="258" y="-20" on="1"/>
        <pt x="147" y="-20" on="0"/>
        <pt x="88" y="28" on="1"/>
        <pt x="36" y="70" on="0"/>
      </contour>
      <contour>
        <pt x="264" y="812" on="1"/>
        <pt x="264" y="841" on="0"/>
        <pt x="292" y="861" on="1"/>
        <pt x="537" y="759" on="1"/>
        <pt x="525" y="710" on="1"/>
        <pt x="406" y="714" on="1"/>
        <pt x="264" y="719" on="0"/>
      </contour>
    </TTGlyph>
    <TTGlyph name="V" xMin="42" yMin="0" xMax="669" yMax="680">
      <contour>
        <pt x="42" y="620" on="1"/>
        <pt x="71" y="680" on="0"/>
        <pt x="232" y="680" on="0"/>
        <pt x="307" y="587" on="0"/>
        <pt x="307" y="480" on="1"/>
        <pt x="307" y="123" on="1"/>
        <pt x="550" y="659" on="1"/>
        <pt x="669" y="659" on="1"/>
        <pt x="358" y="0" on="1"/>
        <pt x="124" y="0" on="1"/>
        <pt x="94" y="480" on="1"/>
        <pt x="91" y="533" on="0"/>
        <pt x="62" y="605" on="0"/>
      </contour>
    </TTGlyph>
    <TTGlyph name="W" xMin="42" yMin="0" xMax="1050" yMax="679">
      <contour>
        <pt x="42" y="620" on="1"/>
        <pt x="56" y="648" on="0"/>
        <pt x="117" y="679" on="0"/>
        <pt x="159" y="679" on="1"/>
        <pt x="225" y="679" on="0"/>
        <pt x="304" y="584" on="0"/>
        <pt x="304" y="480" on="1"/>
        <pt x="304" y="123" on="1"/>
        <pt x="533" y="659" on="1"/>
        <pt x="651" y="659" on="1"/>
        <pt x="678" y="153" on="1"/>
        <pt x="675" y="124" on="1"/>
        <pt x="913" y="659" on="1"/>
        <pt x="1050" y="659" on="1"/>
        <pt x="730" y="0" on="1"/>
        <pt x="517" y="0" on="1"/>
        <pt x="497" y="304" on="1"/>
        <pt x="365" y="0" on="1"/>
        <pt x="124" y="0" on="1"/>
        <pt x="94" y="480" on="1"/>
        <pt x="91" y="534" on="0"/>
        <pt x="62" y="605" on="0"/>
      </contour>
    </TTGlyph>
    <TTGlyph name="X" xMin="-37" yMin="-20" xMax="651" yMax="678">
      <contour>
        <pt x="48" y="623" on="1"/>
        <pt x="95" y="678" on="0"/>
        <pt x="173" y="678" on="1"/>
        <pt x="235" y="678" on="0"/>
        <pt x="268" y="654" on="1"/>
        <pt x="301" y="629" on="0"/>
        <pt x="323" y="568" on="1"/>
        <pt x="365" y="449" on="1"/>
        <pt x="516" y="659" on="1"/>
        <pt x="651" y="659" on="1"/>
        <pt x="406" y="334" on="1"/>
        <pt x="469" y="156" on="1"/>
        <pt x="483" y="116" on="0"/>
        <pt x="532" y="57" on="0"/>
        <pt x="554" y="52" on="1"/>
        <pt x="534" y="14" on="0"/>
        <pt x="465" y="-20" on="0"/>
        <pt x="364" y="-20" on="0"/>
        <pt x="293" y="46" on="0"/>
        <pt x="266" y="120" on="1"/>
        <pt x="237" y="200" on="1"/>
        <pt x="86" y="0" on="1"/>
        <pt x="-37" y="0" on="1"/>
        <pt x="193" y="319" on="1"/>
        <pt x="121" y="520" on="1"/>
        <pt x="105" y="564" on="0"/>
        <pt x="73" y="609" on="0"/>
      </contour>
    </TTGlyph>
    <TTGlyph name="Y" xMin="39" yMin="0" xMax="667" yMax="678">
      <contour>
        <pt x="170" y="294" on="1"/>
        <pt x="141" y="565" on="0"/>
        <pt x="39" y="623" on="1"/>
        <pt x="60" y="649" on="0"/>
        <pt x="128" y="678" on="0"/>
        <pt x="210" y="678" on="0"/>
        <pt x="272" y="649" on="0"/>
        <pt x="292" y="618" on="1"/>
        <pt x="330" y="559" on="0"/>
        <pt x="330" y="418" on="1"/>
        <pt x="330" y="346" on="1"/>
        <pt x="390" y="522" on="0"/>
        <pt x="450" y="598" on="1"/>
        <pt x="511" y="676" on="0"/>
        <pt x="587" y="676" on="1"/>
        <pt x="617" y="676" on="0"/>
        <pt x="657" y="645" on="0"/>
        <pt x="667" y="622" on="1"/>
        <pt x="590" y="588" on="0"/>
        <pt x="516" y="490" on="1"/>
        <pt x="442" y="392" on="0"/>
        <pt x="394" y="255" on="1"/>
        <pt x="335" y="0" on="1"/>
        <pt x="112" y="0" on="1"/>
      </contour>
    </TTGlyph>
    <TTGlyph name="Yacute" xMin="39" yMin="0" xMax="667" yMax="851">
      <contour>
        <pt x="170" y="294" on="1"/>
        <pt x="141" y="565" on="0"/>
        <pt x="39" y="623" on="1"/>
        <pt x="60" y="649" on="0"/>
        <pt x="128" y="678" on="0"/>
        <pt x="210" y="678" on="0"/>
        <pt x="272" y="649" on="0"/>
        <pt x="292" y="618" on="1"/>
        <pt x="330" y="559" on="0"/>
        <pt x="330" y="418" on="1"/>
        <pt x="330" y="346" on="1"/>
        <pt x="390" y="522" on="0"/>
        <pt x="450" y="598" on="1"/>
        <pt x="511" y="676" on="0"/>
        <pt x="587" y="676" on="1"/>
        <pt x="617" y="676" on="0"/>
        <pt x="657" y="645" on="0"/>
        <pt x="667" y="622" on="1"/>
        <pt x="590" y="588" on="0"/>
        <pt x="516" y="490" on="1"/>
        <pt x="442" y="392" on="0"/>
        <pt x="394" y="255" on="1"/>
        <pt x="335" y="0" on="1"/>
        <pt x="112" y="0" on="1"/>
      </contour>
      <contour>
        <pt x="256" y="749" on="1"/>
        <pt x="501" y="851" on="1"/>
        <pt x="515" y="841" on="0"/>
        <pt x="529" y="820" on="0"/>
        <pt x="529" y="774" on="0"/>
        <pt x="506" y="738" on="0"/>
        <pt x="486" y="727" on="1"/>
        <pt x="450" y="706" on="0"/>
        <pt x="387" y="704" on="1"/>
        <pt x="268" y="700" on="1"/>
      </contour>
    </TTGlyph>
    <TTGlyph name="Ydieresis" xMin="39" yMin="0" xMax="667" yMax="829">
      <component glyphName="Y" x="0" y="0" flags="0x1204"/>
      <component glyphName="dieresis" x="226" y="116" scalex="1.0" scaley="0.989990234375" flags="0x1004"/>
    </TTGlyph>
    <TTGlyph name="Z" xMin="6" yMin="-12" xMax="573" yMax="670">
      <contour>
        <pt x="175" y="7" on="0"/>
        <pt x="119" y="15" on="0"/>
        <pt x="60" y="15" on="0"/>
        <pt x="45" y="0" on="1"/>
        <pt x="22" y="17" on="0"/>
        <pt x="10" y="71" on="1"/>
        <pt x="6" y="86" on="0"/>
        <pt x="6" y="111" on="1"/>
        <pt x="6" y="165" on="0"/>
        <pt x="68" y="218" on="1"/>
        <pt x="380" y="474" on="1"/>
        <pt x="251" y="495" on="0"/>
        <pt x="147" y="495" on="0"/>
        <pt x="99" y="472" on="1"/>
        <pt x="72" y="516" on="0"/>
        <pt x="72" y="618" on="0"/>
        <pt x="147" y="670" on="0"/>
        <pt x="210" y="670" on="1"/>
        <pt x="238" y="670" on="0"/>
        <pt x="298" y="662" on="0"/>
        <pt x="328" y="658" on="1"/>
        <pt x="387" y="649" on="1"/>
        <pt x="416" y="645" on="0"/>
        <pt x="491" y="645" on="0"/>
        <pt x="533" y="655" on="1"/>
        <pt x="573" y="620" on="0"/>
        <pt x="573" y="562" on="1"/>
        <pt x="573" y="492" on="0"/>
        <pt x="525" y="454" on="1"/>
        <pt x="185" y="182" on="1"/>
        <pt x="258" y="162" on="0"/>
        <pt x="379" y="162" on="1"/>
        <pt x="439" y="162" on="0"/>
        <pt x="477" y="192" on="1"/>
        <pt x="494" y="170" on="0"/>
        <pt x="503" y="133" on="0"/>
        <pt x="503" y="80" on="0"/>
        <pt x="485" y="37" on="0"/>
        <pt x="466" y="21" on="1"/>
        <pt x="428" y="-12" on="0"/>
        <pt x="344" y="-12" on="1"/>
        <pt x="282" y="-12" on="0"/>
      </contour>
    </TTGlyph>
    <TTGlyph name="Zcaron" xMin="6" yMin="-12" xMax="573" yMax="855">
      <contour>
        <pt x="175" y="7" on="0"/>
        <pt x="119" y="15" on="0"/>
        <pt x="60" y="15" on="0"/>
        <pt x="45" y="0" on="1"/>
        <pt x="22" y="17" on="0"/>
        <pt x="10" y="71" on="1"/>
        <pt x="6" y="86" on="0"/>
        <pt x="6" y="111" on="1"/>
        <pt x="6" y="165" on="0"/>
        <pt x="68" y="218" on="1"/>
        <pt x="380" y="474" on="1"/>
        <pt x="251" y="495" on="0"/>
        <pt x="147" y="495" on="0"/>
        <pt x="99" y="472" on="1"/>
        <pt x="72" y="516" on="0"/>
        <pt x="72" y="618" on="0"/>
        <pt x="147" y="670" on="0"/>
        <pt x="210" y="670" on="1"/>
        <pt x="238" y="670" on="0"/>
        <pt x="298" y="662" on="0"/>
        <pt x="328" y="658" on="1"/>
        <pt x="387" y="649" on="1"/>
        <pt x="416" y="645" on="0"/>
        <pt x="491" y="645" on="0"/>
        <pt x="533" y="655" on="1"/>
        <pt x="573" y="620" on="0"/>
        <pt x="573" y="562" on="1"/>
        <pt x="573" y="492" on="0"/>
        <pt x="525" y="454" on="1"/>
        <pt x="185" y="182" on="1"/>
        <pt x="258" y="162" on="0"/>
        <pt x="379" y="162" on="1"/>
        <pt x="439" y="162" on="0"/>
        <pt x="477" y="192" on="1"/>
        <pt x="494" y="170" on="0"/>
        <pt x="503" y="133" on="0"/>
        <pt x="503" y="80" on="0"/>
        <pt x="485" y="37" on="0"/>
        <pt x="466" y="21" on="1"/>
        <pt x="428" y="-12" on="0"/>
        <pt x="344" y="-12" on="1"/>
        <pt x="282" y="-12" on="0"/>
      </contour>
      <contour>
        <pt x="217" y="807" on="1"/>
        <pt x="253" y="855" on="1"/>
        <pt x="377" y="801" on="1"/>
        <pt x="525" y="851" on="1"/>
        <pt x="556" y="807" on="1"/>
        <pt x="360" y="700" on="1"/>
      </contour>
    </TTGlyph>
    <TTGlyph name="Zdotaccent" xMin="6" yMin="-12" xMax="573" yMax="870">
      <component glyphName="Z" x="0" y="0" flags="0x1204"/>
      <component glyphName="dotaccent" x="238" y="150" flags="0x1004"/>
    </TTGlyph>
    <TTGlyph name="a" xMin="16" yMin="-20" xMax="591" yMax="530">
      <contour>
        <pt x="37" y="56" on="0"/>
        <pt x="16" y="138" on="0"/>
        <pt x="16" y="272" on="0"/>
        <pt x="62" y="394" on="0"/>
        <pt x="104" y="438" on="1"/>
        <pt x="190" y="530" on="0"/>
        <pt x="332" y="530" on="1"/>
        <pt x="383" y="530" on="0"/>
        <pt x="420" y="513" on="1"/>
        <pt x="591" y="530" on="1"/>
        <pt x="517" y="140" on="1"/>
        <pt x="514" y="128" on="0"/>
        <pt x="514" y="84" on="0"/>
        <pt x="541" y="56" on="0"/>
        <pt x="561" y="54" on="1"/>
        <pt x="551" y="20" on="0"/>
        <pt x="478" y="-20" on="0"/>
        <pt x="396" y="-20" on="0"/>
        <pt x="341" y="11" on="0"/>
        <pt x="333" y="37" on="1"/>
        <pt x="317" y="12" on="0"/>
        <pt x="249" y="-20" on="0"/>
        <pt x="158" y="-20" on="0"/>
        <pt x="84" y="4" on="0"/>
      </contour>
      <contour>
        <pt x="260" y="418" on="0"/>
        <pt x="240" y="357" on="0"/>
        <pt x="207" y="194" on="0"/>
        <pt x="207" y="78" on="0"/>
        <pt x="225" y="44" on="0"/>
        <pt x="241" y="44" on="1"/>
        <pt x="273" y="44" on="0"/>
        <pt x="320" y="105" on="0"/>
        <pt x="329" y="159" on="1"/>
        <pt x="382" y="452" on="1"/>
        <pt x="361" y="470" on="0"/>
        <pt x="312" y="470" on="0"/>
        <pt x="283" y="454" on="0"/>
      </contour>
    </TTGlyph>
    <TTGlyph name="aacute" xMin="16" yMin="-20" xMax="591" yMax="769">
      <component glyphName="acute" x="314" y="33" flags="0x1004"/>
      <component glyphName="a" x="0" y="0" flags="0x1004"/>
    </TTGlyph>
    <TTGlyph name="acircumflex" xMin="16" yMin="-20" xMax="591" yMax="769">
      <component glyphName="a" x="0" y="0" flags="0x1204"/>
      <component glyphName="circumflex" x="220" y="-1" flags="0x1004"/>
    </TTGlyph>
    <TTGlyph name="acute" xMin="-36" yMin="542" xMax="236" yMax="736">
      <contour>
        <pt x="200" y="736" on="1"/>
        <pt x="236" y="722" on="0"/>
        <pt x="236" y="670" on="1"/>
        <pt x="236" y="626" on="0"/>
        <pt x="194" y="598" on="1"/>
        <pt x="159" y="574" on="0"/>
        <pt x="108" y="565" on="1"/>
        <pt x="-15" y="542" on="1"/>
        <pt x="-36" y="590" on="1"/>
      </contour>
    </TTGlyph>
    <TTGlyph name="adieresis" xMin="16" yMin="-20" xMax="591" yMax="720">
      <component glyphName="a" x="0" y="0" flags="0x1204"/>
      <component glyphName="dieresis" x="203" y="0" flags="0x1004"/>
    </TTGlyph>
    <TTGlyph name="ae" xMin="16" yMin="-21" xMax="840" yMax="530">
      <contour>
        <pt x="536" y="235" on="1"/>
        <pt x="532" y="199" on="0"/>
        <pt x="532" y="187" on="1"/>
        <pt x="532" y="106" on="0"/>
        <pt x="607" y="106" on="1"/>
        <pt x="674" y="106" on="0"/>
        <pt x="724" y="144" on="1"/>
        <pt x="739" y="156" on="0"/>
        <pt x="747" y="169" on="1"/>
        <pt x="772" y="151" on="0"/>
        <pt x="772" y="79" on="0"/>
        <pt x="736" y="32" on="0"/>
        <pt x="705" y="15" on="1"/>
        <pt x="641" y="-20" on="0"/>
        <pt x="470" y="-20" on="0"/>
        <pt x="376" y="19" on="0"/>
        <pt x="352" y="63" on="1"/>
        <pt x="335" y="28" on="0"/>
        <pt x="256" y="-20" on="0"/>
        <pt x="148" y="-20" on="0"/>
        <pt x="78" y="8" on="0"/>
        <pt x="56" y="36" on="1"/>
        <pt x="16" y="89" on="0"/>
        <pt x="16" y="197" on="1"/>
        <pt x="16" y="347" on="0"/>
        <pt x="104" y="438" on="1"/>
        <pt x="191" y="530" on="0"/>
        <pt x="330" y="530" on="1"/>
        <pt x="403" y="526" on="0"/>
        <pt x="459" y="488" on="1"/>
        <pt x="543" y="530" on="0"/>
        <pt x="663" y="530" on="1"/>
        <pt x="746" y="530" on="0"/>
        <pt x="840" y="467" on="0"/>
        <pt x="840" y="411" on="1"/>
        <pt x="840" y="235" on="0"/>
      </contour>
      <contour>
        <pt x="382" y="452" on="1"/>
        <pt x="360" y="470" on="0"/>
        <pt x="310" y="470" on="0"/>
        <pt x="263" y="424" on="0"/>
        <pt x="244" y="381" on="1"/>
        <pt x="203" y="285" on="0"/>
        <pt x="203" y="138" on="1"/>
        <pt x="203" y="41" on="0"/>
        <pt x="245" y="41" on="1"/>
        <pt x="277" y="41" on="0"/>
        <pt x="300" y="83" on="1"/>
        <pt x="329" y="136" on="0"/>
        <pt x="347" y="259" on="1"/>
      </contour>
      <contour>
        <pt x="543" y="278" on="1"/>
        <pt x="612" y="278" on="0"/>
        <pt x="696" y="362" on="0"/>
        <pt x="696" y="431" on="1"/>
        <pt x="696" y="479" on="0"/>
        <pt x="656" y="479" on="1"/>
        <pt x="620" y="479" on="0"/>
        <pt x="561" y="375" on="0"/>
      </contour>
    </TTGlyph>
    <TTGlyph name="agrave" xMin="16" yMin="-20" xMax="591" yMax="766">
      <component glyphName="a" x="0" y="0" flags="0x1204"/>
      <component glyphName="grave" x="255" y="33" flags="0x1004"/>
    </TTGlyph>
    <TTGlyph name="ampersand" xMin="5" yMin="-20" xMax="686" yMax="680">
      <contour>
        <pt x="435" y="17" on="1"/>
        <pt x="346" y="-20" on="0"/>
        <pt x="237" y="-20" on="1"/>
        <pt x="141" y="-20" on="0"/>
        <pt x="76" y="30" on="1"/>
        <pt x="5" y="83" on="0"/>
        <pt x="5" y="177" on="1"/>
        <pt x="5" y="316" on="0"/>
        <pt x="172" y="355" on="1"/>
        <pt x="144" y="434" on="0"/>
        <pt x="144" y="544" on="0"/>
        <pt x="186" y="615" on="0"/>
        <pt x="222" y="638" on="1"/>
        <pt x="290" y="680" on="0"/>
        <pt x="404" y="680" on="1"/>
        <pt x="483" y="680" on="0"/>
        <pt x="533" y="650" on="1"/>
        <pt x="584" y="619" on="0"/>
        <pt x="584" y="573" on="1"/>
        <pt x="584" y="521" on="0"/>
        <pt x="548" y="492" on="1"/>
        <pt x="516" y="465" on="0"/>
        <pt x="463" y="465" on="1"/>
        <pt x="432" y="465" on="0"/>
        <pt x="422" y="468" on="1"/>
        <pt x="426" y="490" on="0"/>
        <pt x="426" y="562" on="0"/>
        <pt x="402" y="611" on="0"/>
        <pt x="382" y="611" on="1"/>
        <pt x="345" y="611" on="0"/>
        <pt x="317" y="546" on="0"/>
        <pt x="317" y="451" on="0"/>
        <pt x="336" y="364" on="0"/>
        <pt x="354" y="322" on="1"/>
        <pt x="392" y="235" on="0"/>
        <pt x="453" y="176" on="1"/>
        <pt x="469" y="215" on="0"/>
        <pt x="471" y="276" on="1"/>
        <pt x="471" y="330" on="0"/>
        <pt x="434" y="362" on="1"/>
        <pt x="448" y="375" on="0"/>
        <pt x="502" y="391" on="0"/>
        <pt x="526" y="391" on="1"/>
        <pt x="579" y="391" on="0"/>
        <pt x="629" y="327" on="0"/>
        <pt x="629" y="276" on="1"/>
        <pt x="629" y="185" on="0"/>
        <pt x="564" y="110" on="1"/>
        <pt x="589" y="103" on="0"/>
        <pt x="612" y="103" on="1"/>
        <pt x="662" y="103" on="0"/>
        <pt x="678" y="116" on="1"/>
        <pt x="686" y="97" on="0"/>
        <pt x="686" y="72" on="1"/>
        <pt x="686" y="22" on="0"/>
        <pt x="621" y="-20" on="0"/>
        <pt x="505" y="-20" on="0"/>
      </contour>
      <contour>
        <pt x="206" y="279" on="1"/>
        <pt x="184" y="257" on="0"/>
        <pt x="184" y="179" on="0"/>
        <pt x="202" y="130" on="0"/>
        <pt x="216" y="112" on="1"/>
        <pt x="248" y="73" on="0"/>
        <pt x="290" y="73" on="1"/>
        <pt x="328" y="73" on="0"/>
        <pt x="350" y="81" on="1"/>
        <pt x="266" y="160" on="0"/>
      </contour>
    </TTGlyph>
    <TTGlyph name="approxequal" xMin="40" yMin="78" xMax="466" yMax="384">
      <contour>
        <pt x="62" y="85" on="1"/>
        <pt x="40" y="113" on="0"/>
        <pt x="40" y="171" on="0"/>
        <pt x="98" y="209" on="0"/>
        <pt x="151" y="209" on="1"/>
        <pt x="175" y="209" on="0"/>
        <pt x="206" y="203" on="1"/>
        <pt x="329" y="178" on="1"/>
        <pt x="357" y="172" on="0"/>
        <pt x="395" y="172" on="0"/>
        <pt x="437" y="189" on="0"/>
        <pt x="445" y="204" on="1"/>
        <pt x="466" y="180" on="0"/>
        <pt x="466" y="121" on="0"/>
        <pt x="409" y="78" on="0"/>
        <pt x="358" y="78" on="1"/>
        <pt x="326" y="78" on="0"/>
        <pt x="270" y="90" on="1"/>
        <pt x="164" y="114" on="0"/>
        <pt x="116" y="114" on="0"/>
        <pt x="71" y="98" on="0"/>
      </contour>
      <contour>
        <pt x="62" y="260" on="1"/>
        <pt x="40" y="288" on="0"/>
        <pt x="40" y="345" on="0"/>
        <pt x="98" y="384" on="0"/>
        <pt x="151" y="384" on="1"/>
        <pt x="175" y="384" on="0"/>
        <pt x="206" y="378" on="1"/>
        <pt x="270" y="366" on="1"/>
        <pt x="329" y="353" on="1"/>
        <pt x="357" y="347" on="0"/>
        <pt x="395" y="347" on="0"/>
        <pt x="437" y="364" on="0"/>
        <pt x="445" y="379" on="1"/>
        <pt x="466" y="355" on="0"/>
        <pt x="466" y="295" on="0"/>
        <pt x="409" y="253" on="0"/>
        <pt x="358" y="253" on="1"/>
        <pt x="330" y="253" on="0"/>
        <pt x="272" y="265" on="1"/>
        <pt x="161" y="288" on="0"/>
        <pt x="116" y="288" on="0"/>
        <pt x="71" y="273" on="0"/>
      </contour>
    </TTGlyph>
    <TTGlyph name="aring" xMin="16" yMin="-20" xMax="591" yMax="751">
      <contour>
        <pt x="37" y="56" on="0"/>
        <pt x="16" y="138" on="0"/>
        <pt x="16" y="272" on="0"/>
        <pt x="62" y="394" on="0"/>
        <pt x="104" y="438" on="1"/>
        <pt x="190" y="530" on="0"/>
        <pt x="332" y="530" on="1"/>
        <pt x="383" y="530" on="0"/>
        <pt x="420" y="513" on="1"/>
        <pt x="591" y="530" on="1"/>
        <pt x="517" y="140" on="1"/>
        <pt x="514" y="128" on="0"/>
        <pt x="514" y="84" on="0"/>
        <pt x="541" y="56" on="0"/>
        <pt x="561" y="54" on="1"/>
        <pt x="551" y="20" on="0"/>
        <pt x="478" y="-20" on="0"/>
        <pt x="396" y="-20" on="0"/>
        <pt x="341" y="11" on="0"/>
        <pt x="333" y="37" on="1"/>
        <pt x="317" y="12" on="0"/>
        <pt x="249" y="-20" on="0"/>
        <pt x="158" y="-20" on="0"/>
        <pt x="84" y="4" on="0"/>
      </contour>
      <contour>
        <pt x="260" y="418" on="0"/>
        <pt x="240" y="357" on="0"/>
        <pt x="207" y="194" on="0"/>
        <pt x="207" y="78" on="0"/>
        <pt x="225" y="44" on="0"/>
        <pt x="241" y="44" on="1"/>
        <pt x="273" y="44" on="0"/>
        <pt x="320" y="105" on="0"/>
        <pt x="329" y="159" on="1"/>
        <pt x="382" y="452" on="1"/>
        <pt x="361" y="470" on="0"/>
        <pt x="312" y="470" on="0"/>
        <pt x="283" y="454" on="0"/>
      </contour>
      <contour>
        <pt x="307" y="579" on="0"/>
        <pt x="255" y="616" on="0"/>
        <pt x="255" y="673" on="0"/>
        <pt x="278" y="711" on="0"/>
        <pt x="297" y="724" on="1"/>
        <pt x="336" y="751" on="0"/>
        <pt x="436" y="751" on="0"/>
        <pt x="486" y="714" on="0"/>
        <pt x="486" y="657" on="0"/>
        <pt x="464" y="619" on="0"/>
        <pt x="446" y="606" on="1"/>
        <pt x="407" y="579" on="0"/>
      </contour>
      <contour>
        <pt x="362" y="710" on="0"/>
        <pt x="332" y="675" on="0"/>
        <pt x="332" y="656" on="1"/>
        <pt x="332" y="617" on="0"/>
        <pt x="360" y="617" on="1"/>
        <pt x="383" y="617" on="0"/>
        <pt x="412" y="651" on="0"/>
        <pt x="412" y="670" on="1"/>
        <pt x="412" y="710" on="0"/>
        <pt x="383" y="710" on="1"/>
      </contour>
    </TTGlyph>
    <TTGlyph name="asciicircum" xMin="-58" yMin="277" xMax="458" yMax="660">
      <contour>
        <pt x="-58" y="320" on="1"/>
        <pt x="8" y="348" on="0"/>
        <pt x="125" y="523" on="0"/>
        <pt x="170" y="660" on="1"/>
        <pt x="335" y="660" on="1"/>
        <pt x="337" y="533" on="0"/>
        <pt x="401" y="350" on="0"/>
        <pt x="458" y="313" on="1"/>
        <pt x="440" y="292" on="0"/>
        <pt x="380" y="281" on="1"/>
        <pt x="363" y="278" on="0"/>
        <pt x="315" y="278" on="0"/>
        <pt x="272" y="302" on="0"/>
        <pt x="256" y="331" on="1"/>
        <pt x="228" y="381" on="0"/>
        <pt x="210" y="536" on="1"/>
        <pt x="162" y="397" on="0"/>
        <pt x="116" y="338" on="1"/>
        <pt x="68" y="277" on="0"/>
        <pt x="5" y="277" on="1"/>
        <pt x="-20" y="277" on="0"/>
        <pt x="-53" y="300" on="0"/>
      </contour>
    </TTGlyph>
    <TTGlyph name="asciitilde" xMin="22" yMin="165" xMax="448" yMax="296">
      <contour>
        <pt x="44" y="172" on="1"/>
        <pt x="22" y="200" on="0"/>
        <pt x="22" y="257" on="0"/>
        <pt x="80" y="296" on="0"/>
        <pt x="133" y="296" on="1"/>
        <pt x="157" y="296" on="0"/>
        <pt x="188" y="290" on="1"/>
        <pt x="252" y="278" on="1"/>
        <pt x="311" y="265" on="1"/>
        <pt x="339" y="259" on="0"/>
        <pt x="377" y="259" on="0"/>
        <pt x="419" y="276" on="0"/>
        <pt x="427" y="291" on="1"/>
        <pt x="448" y="267" on="0"/>
        <pt x="448" y="207" on="0"/>
        <pt x="391" y="165" on="0"/>
        <pt x="340" y="165" on="1"/>
        <pt x="312" y="165" on="0"/>
        <pt x="254" y="177" on="1"/>
        <pt x="143" y="200" on="0"/>
        <pt x="98" y="200" on="0"/>
        <pt x="53" y="185" on="0"/>
      </contour>
    </TTGlyph>
    <TTGlyph name="asterisk" xMin="58" yMin="271" xMax="493" yMax="701">
      <contour>
        <pt x="327" y="287" on="1"/>
        <pt x="272" y="287" on="0"/>
        <pt x="245" y="406" on="1"/>
        <pt x="182" y="324" on="1"/>
        <pt x="157" y="289" on="0"/>
        <pt x="149" y="271" on="1"/>
        <pt x="125" y="271" on="0"/>
        <pt x="88" y="302" on="0"/>
        <pt x="88" y="359" on="0"/>
        <pt x="130" y="400" on="1"/>
        <pt x="159" y="432" on="0"/>
        <pt x="198" y="462" on="1"/>
        <pt x="165" y="470" on="0"/>
        <pt x="95" y="485" on="0"/>
        <pt x="58" y="485" on="1"/>
        <pt x="58" y="523" on="0"/>
        <pt x="98" y="581" on="0"/>
        <pt x="166" y="581" on="0"/>
        <pt x="194" y="566" on="1"/>
        <pt x="249" y="536" on="1"/>
        <pt x="260" y="620" on="0"/>
        <pt x="260" y="680" on="0"/>
        <pt x="259" y="685" on="1"/>
        <pt x="283" y="701" on="0"/>
        <pt x="310" y="701" on="1"/>
        <pt x="360" y="701" on="0"/>
        <pt x="360" y="650" on="1"/>
        <pt x="360" y="602" on="0"/>
        <pt x="326" y="526" on="1"/>
        <pt x="444" y="573" on="0"/>
        <pt x="472" y="597" on="1"/>
        <pt x="493" y="576" on="0"/>
        <pt x="493" y="517" on="0"/>
        <pt x="458" y="482" on="0"/>
        <pt x="432" y="472" on="1"/>
        <pt x="394" y="456" on="0"/>
        <pt x="324" y="447" on="1"/>
        <pt x="347" y="409" on="0"/>
        <pt x="394" y="351" on="0"/>
        <pt x="407" y="343" on="1"/>
        <pt x="377" y="287" on="0"/>
      </contour>
    </TTGlyph>
    <TTGlyph name="at" xMin="15" yMin="-98" xMax="763" yMax="601">
      <contour>
        <pt x="533" y="159" on="1"/>
        <pt x="533" y="121" on="0"/>
        <pt x="559" y="121" on="1"/>
        <pt x="599" y="121" on="0"/>
        <pt x="630" y="179" on="1"/>
        <pt x="659" y="236" on="0"/>
        <pt x="659" y="304" on="1"/>
        <pt x="659" y="421" on="0"/>
        <pt x="547" y="530" on="0"/>
        <pt x="430" y="530" on="1"/>
        <pt x="370" y="530" on="0"/>
        <pt x="260" y="478" on="0"/>
        <pt x="176" y="385" on="0"/>
        <pt x="126" y="257" on="0"/>
        <pt x="126" y="182" on="1"/>
        <pt x="126" y="73" on="0"/>
        <pt x="254" y="-20" on="0"/>
        <pt x="375" y="-20" on="1"/>
        <pt x="424" y="-20" on="0"/>
        <pt x="516" y="11" on="0"/>
        <pt x="541" y="29" on="1"/>
        <pt x="546" y="26" on="0"/>
        <pt x="555" y="7" on="0"/>
        <pt x="555" y="0" on="1"/>
        <pt x="555" y="-38" on="0"/>
        <pt x="518" y="-59" on="1"/>
        <pt x="448" y="-98" on="0"/>
        <pt x="272" y="-98" on="0"/>
        <pt x="149" y="-66" on="0"/>
        <pt x="106" y="-34" on="1"/>
        <pt x="15" y="33" on="0"/>
        <pt x="15" y="154" on="1"/>
        <pt x="15" y="248" on="0"/>
        <pt x="89" y="411" on="0"/>
        <pt x="213" y="532" on="0"/>
        <pt x="374" y="601" on="0"/>
        <pt x="526" y="601" on="0"/>
        <pt x="636" y="566" on="0"/>
        <pt x="676" y="532" on="1"/>
        <pt x="763" y="461" on="0"/>
        <pt x="763" y="333" on="1"/>
        <pt x="763" y="215" on="0"/>
        <pt x="699" y="138" on="1"/>
        <pt x="639" y="66" on="0"/>
        <pt x="549" y="66" on="1"/>
        <pt x="504" y="66" on="0"/>
        <pt x="456" y="96" on="0"/>
        <pt x="449" y="135" on="1"/>
        <pt x="433" y="95" on="0"/>
        <pt x="376" y="66" on="0"/>
        <pt x="336" y="66" on="1"/>
        <pt x="208" y="66" on="0"/>
        <pt x="208" y="217" on="1"/>
        <pt x="208" y="312" on="0"/>
        <pt x="264" y="379" on="1"/>
        <pt x="321" y="448" on="0"/>
        <pt x="407" y="448" on="1"/>
        <pt x="440" y="448" on="0"/>
        <pt x="472" y="435" on="1"/>
        <pt x="580" y="448" on="1"/>
        <pt x="534" y="178" on="1"/>
        <pt x="533" y="173" on="0"/>
        <pt x="533" y="168" on="1"/>
      </contour>
      <contour>
        <pt x="449" y="401" on="1"/>
        <pt x="437" y="411" on="0"/>
        <pt x="401" y="411" on="0"/>
        <pt x="368" y="371" on="0"/>
        <pt x="356" y="336" on="1"/>
        <pt x="330" y="262" on="0"/>
        <pt x="330" y="158" on="1"/>
        <pt x="330" y="139" on="0"/>
        <pt x="346" y="119" on="0"/>
        <pt x="354" y="119" on="1"/>
        <pt x="374" y="119" on="0"/>
        <pt x="404" y="159" on="0"/>
        <pt x="410" y="191" on="1"/>
      </contour>
    </TTGlyph>
    <TTGlyph name="atilde" xMin="16" yMin="-20" xMax="591" yMax="724">
      <component glyphName="a" x="0" y="0" flags="0x1204"/>
      <component glyphName="tilde" x="211" y="-3" flags="0x1004"/>
    </TTGlyph>
    <TTGlyph name="b" xMin="4" yMin="-20" xMax="571" yMax="720">
      <contour>
        <pt x="4" y="48" on="1"/>
        <pt x="128" y="700" on="1"/>
        <pt x="331" y="720" on="1"/>
        <pt x="300" y="567" on="1"/>
        <pt x="289" y="520" on="0"/>
        <pt x="275" y="487" on="1"/>
        <pt x="297" y="515" on="0"/>
        <pt x="345" y="526" on="1"/>
        <pt x="359" y="530" on="0"/>
        <pt x="376" y="530" on="1"/>
        <pt x="469" y="530" on="0"/>
        <pt x="571" y="417" on="0"/>
        <pt x="571" y="308" on="1"/>
        <pt x="571" y="166" on="0"/>
        <pt x="490" y="77" on="1"/>
        <pt x="403" y="-20" on="0"/>
        <pt x="245" y="-20" on="1"/>
        <pt x="136" y="-20" on="0"/>
        <pt x="54" y="16" on="1"/>
        <pt x="25" y="29" on="0"/>
      </contour>
      <contour>
        <pt x="205" y="57" on="1"/>
        <pt x="226" y="39" on="0"/>
        <pt x="278" y="39" on="0"/>
        <pt x="308" y="59" on="0"/>
        <pt x="319" y="79" on="1"/>
        <pt x="349" y="133" on="0"/>
        <pt x="373" y="298" on="1"/>
        <pt x="380" y="345" on="0"/>
        <pt x="380" y="439" on="0"/>
        <pt x="359" y="469" on="0"/>
        <pt x="339" y="469" on="1"/>
        <pt x="278" y="469" on="0"/>
        <pt x="258" y="350" on="1"/>
      </contour>
    </TTGlyph>
    <TTGlyph name="backslash" xMin="53" yMin="-200" xMax="250" yMax="803">
      <contour>
        <pt x="199" y="-157" on="0"/>
        <pt x="158" y="-200" on="0"/>
        <pt x="57" y="-200" on="0"/>
        <pt x="53" y="-196" on="1"/>
        <pt x="99" y="684" on="1"/>
        <pt x="105" y="758" on="0"/>
        <pt x="136" y="793" on="0"/>
        <pt x="178" y="803" on="0"/>
        <pt x="244" y="803" on="0"/>
        <pt x="250" y="800" on="1"/>
        <pt x="204" y="-105" on="1"/>
      </contour>
    </TTGlyph>
    <TTGlyph name="bar" xMin="-42" yMin="-200" xMax="295" yMax="800">
      <contour>
        <pt x="-42" y="-200" on="1"/>
        <pt x="153" y="800" on="1"/>
        <pt x="295" y="800" on="1"/>
        <pt x="104" y="-200" on="1"/>
      </contour>
    </TTGlyph>
    <TTGlyph name="braceleft" xMin="-3" yMin="-200" xMax="447" yMax="800">
      <contour>
        <pt x="-3" y="275" on="1"/>
        <pt x="11" y="347" on="1"/>
        <pt x="106" y="347" on="0"/>
        <pt x="124" y="445" on="1"/>
        <pt x="167" y="682" on="1"/>
        <pt x="178" y="743" on="0"/>
        <pt x="261" y="800" on="0"/>
        <pt x="336" y="800" on="1"/>
        <pt x="404" y="800" on="0"/>
        <pt x="447" y="792" on="1"/>
        <pt x="436" y="734" on="1"/>
        <pt x="406" y="734" on="1"/>
        <pt x="363" y="734" on="0"/>
        <pt x="317" y="690" on="0"/>
        <pt x="309" y="642" on="1"/>
        <pt x="269" y="419" on="1"/>
        <pt x="260" y="370" on="0"/>
        <pt x="204" y="323" on="0"/>
        <pt x="147" y="316" on="1"/>
        <pt x="195" y="310" on="0"/>
        <pt x="225" y="285" on="0"/>
        <pt x="233" y="261" on="0"/>
        <pt x="233" y="244" on="1"/>
        <pt x="233" y="227" on="0"/>
        <pt x="230" y="209" on="1"/>
        <pt x="185" y="-19" on="1"/>
        <pt x="180" y="-42" on="0"/>
        <pt x="180" y="-62" on="1"/>
        <pt x="180" y="-133" on="0"/>
        <pt x="244" y="-133" on="1"/>
        <pt x="274" y="-133" on="1"/>
        <pt x="262" y="-192" on="1"/>
        <pt x="208" y="-200" on="0"/>
        <pt x="150" y="-200" on="1"/>
        <pt x="20" y="-200" on="0"/>
        <pt x="20" y="-110" on="1"/>
        <pt x="20" y="-97" on="0"/>
        <pt x="24" y="-77" on="1"/>
        <pt x="74" y="178" on="1"/>
        <pt x="77" y="196" on="0"/>
        <pt x="77" y="211" on="1"/>
        <pt x="76" y="275" on="0"/>
      </contour>
    </TTGlyph>
    <TTGlyph name="braceright" xMin="-90" yMin="-200" xMax="366" yMax="800">
      <contour>
        <pt x="-90" y="-192" on="1"/>
        <pt x="-79" y="-134" on="1"/>
        <pt x="-49" y="-134" on="1"/>
        <pt x="-6" y="-134" on="0"/>
        <pt x="40" y="-90" on="0"/>
        <pt x="49" y="-42" on="1"/>
        <pt x="95" y="204" on="1"/>
        <pt x="104" y="253" on="0"/>
        <pt x="159" y="300" on="0"/>
        <pt x="216" y="307" on="1"/>
        <pt x="168" y="313" on="0"/>
        <pt x="138" y="338" on="0"/>
        <pt x="130" y="362" on="0"/>
        <pt x="130" y="379" on="1"/>
        <pt x="130" y="396" on="0"/>
        <pt x="133" y="414" on="1"/>
        <pt x="172" y="619" on="1"/>
        <pt x="177" y="642" on="0"/>
        <pt x="177" y="662" on="1"/>
        <pt x="177" y="733" on="0"/>
        <pt x="113" y="733" on="1"/>
        <pt x="83" y="733" on="1"/>
        <pt x="95" y="792" on="1"/>
        <pt x="149" y="800" on="0"/>
        <pt x="233" y="800" on="0"/>
        <pt x="279" y="790" on="0"/>
        <pt x="296" y="779" on="1"/>
        <pt x="333" y="755" on="0"/>
        <pt x="333" y="707" on="1"/>
        <pt x="333" y="693" on="1"/>
        <pt x="333" y="685" on="0"/>
        <pt x="331" y="677" on="1"/>
        <pt x="289" y="445" on="1"/>
        <pt x="286" y="427" on="0"/>
        <pt x="286" y="412" on="1"/>
        <pt x="287" y="348" on="0"/>
        <pt x="366" y="348" on="1"/>
        <pt x="352" y="276" on="1"/>
        <pt x="257" y="276" on="0"/>
        <pt x="239" y="178" on="1"/>
        <pt x="190" y="-82" on="1"/>
        <pt x="168" y="-200" on="0"/>
        <pt x="21" y="-200" on="1"/>
        <pt x="-47" y="-200" on="0"/>
      </contour>
    </TTGlyph>
    <TTGlyph name="bracketleft" xMin="-39" yMin="-200" xMax="432" yMax="800">
      <contour>
        <pt x="-39" y="-200" on="1"/>
        <pt x="149" y="800" on="1"/>
        <pt x="432" y="800" on="1"/>
        <pt x="420" y="734" on="0"/>
        <pt x="336" y="734" on="1"/>
        <pt x="286" y="734" on="1"/>
        <pt x="124" y="-133" on="1"/>
        <pt x="154" y="-133" on="1"/>
        <pt x="199" y="-133" on="0"/>
        <pt x="238" y="-157" on="0"/>
        <pt x="238" y="-185" on="1"/>
        <pt x="238" y="-196" on="0"/>
        <pt x="237" y="-200" on="1"/>
      </contour>
    </TTGlyph>
    <TTGlyph name="bracketright" xMin="-103" yMin="-200" xMax="364" yMax="800">
      <contour>
        <pt x="-103" y="-200" on="1"/>
        <pt x="-97" y="-166" on="0"/>
        <pt x="-53" y="-134" on="0"/>
        <pt x="-11" y="-134" on="1"/>
        <pt x="39" y="-134" on="1"/>
        <pt x="201" y="733" on="1"/>
        <pt x="161" y="733" on="1"/>
        <pt x="118" y="733" on="0"/>
        <pt x="85" y="757" on="0"/>
        <pt x="85" y="787" on="1"/>
        <pt x="85" y="796" on="0"/>
        <pt x="86" y="800" on="1"/>
        <pt x="364" y="800" on="1"/>
        <pt x="176" y="-200" on="1"/>
      </contour>
    </TTGlyph>
    <TTGlyph name="breve" xMin="-28" yMin="587" xMax="288" yMax="720">
      <contour>
        <pt x="-28" y="693" on="1"/>
        <pt x="-28" y="705" on="0"/>
        <pt x="-25" y="720" on="1"/>
        <pt x="75" y="720" on="1"/>
        <pt x="71" y="701" on="0"/>
        <pt x="71" y="666" on="0"/>
        <pt x="95" y="636" on="0"/>
        <pt x="128" y="636" on="0"/>
        <pt x="154" y="649" on="0"/>
        <pt x="164" y="660" on="1"/>
        <pt x="188" y="686" on="0"/>
        <pt x="194" y="720" on="1"/>
        <pt x="288" y="720" on="1"/>
        <pt x="269" y="626" on="0"/>
        <pt x="170" y="596" on="1"/>
        <pt x="139" y="587" on="0"/>
        <pt x="103" y="587" on="1"/>
        <pt x="40" y="587" on="0"/>
        <pt x="-28" y="643" on="0"/>
      </contour>
    </TTGlyph>
    <TTGlyph name="brokenbar" xMin="0" yMin="0" xMax="271" yMax="660">
      <contour>
        <pt x="0" y="0" on="1"/>
        <pt x="53" y="272" on="1"/>
        <pt x="196" y="272" on="1"/>
        <pt x="144" y="0" on="1"/>
      </contour>
      <contour>
        <pt x="75" y="388" on="1"/>
        <pt x="128" y="660" on="1"/>
        <pt x="271" y="660" on="1"/>
        <pt x="219" y="388" on="1"/>
      </contour>
    </TTGlyph>
    <TTGlyph name="bullet" xMin="29" yMin="154" xMax="281" yMax="363">
      <contour>
        <pt x="104" y="363" on="0"/>
        <pt x="214" y="363" on="0"/>
        <pt x="281" y="309" on="0"/>
        <pt x="281" y="258" on="1"/>
        <pt x="281" y="207" on="0"/>
        <pt x="207" y="154" on="0"/>
        <pt x="98" y="154" on="0"/>
        <pt x="29" y="207" on="0"/>
        <pt x="29" y="307" on="0"/>
      </contour>
    </TTGlyph>
    <TTGlyph name="c" xMin="17" yMin="-20" xMax="508" yMax="530">
      <contour>
        <pt x="508" y="416" on="1"/>
        <pt x="508" y="374" on="0"/>
        <pt x="438" y="322" on="0"/>
        <pt x="381" y="322" on="1"/>
        <pt x="357" y="322" on="0"/>
        <pt x="343" y="329" on="1"/>
        <pt x="354" y="355" on="0"/>
        <pt x="361" y="420" on="0"/>
        <pt x="361" y="429" on="1"/>
        <pt x="361" y="471" on="0"/>
        <pt x="332" y="471" on="1"/>
        <pt x="312" y="471" on="0"/>
        <pt x="267" y="421" on="0"/>
        <pt x="248" y="382" on="1"/>
        <pt x="206" y="292" on="0"/>
        <pt x="206" y="201" on="1"/>
        <pt x="206" y="151" on="0"/>
        <pt x="244" y="106" on="0"/>
        <pt x="286" y="106" on="1"/>
        <pt x="344" y="106" on="0"/>
        <pt x="390" y="154" on="1"/>
        <pt x="403" y="169" on="0"/>
        <pt x="410" y="186" on="1"/>
        <pt x="448" y="166" on="0"/>
        <pt x="448" y="111" on="1"/>
        <pt x="448" y="55" on="0"/>
        <pt x="386" y="18" on="1"/>
        <pt x="322" y="-20" on="0"/>
        <pt x="220" y="-20" on="1"/>
        <pt x="17" y="-20" on="0"/>
        <pt x="17" y="195" on="1"/>
        <pt x="17" y="352" on="0"/>
        <pt x="106" y="442" on="1"/>
        <pt x="192" y="530" on="0"/>
        <pt x="508" y="530" on="0"/>
      </contour>
    </TTGlyph>
    <TTGlyph name="caron" xMin="32" yMin="565" xMax="378" yMax="757">
      <contour>
        <pt x="32" y="711" on="1"/>
        <pt x="82" y="757" on="1"/>
        <pt x="199" y="685" on="1"/>
        <pt x="347" y="757" on="1"/>
        <pt x="378" y="711" on="1"/>
        <pt x="185" y="565" on="1"/>
      </contour>
    </TTGlyph>
    <TTGlyph name="ccaron" xMin="17" yMin="-20" xMax="535" yMax="757">
      <component glyphName="c" x="0" y="0" flags="0x1204"/>
      <component glyphName="caron" x="157" y="0" flags="0x1004"/>
    </TTGlyph>
    <TTGlyph name="ccedilla" xMin="17" yMin="-258" xMax="508" yMax="530">
      <component glyphName="c" x="0" y="0" flags="0x1204"/>
      <component glyphName="cedilla" x="12" y="0" flags="0x1004"/>
    </TTGlyph>
    <TTGlyph name="cedilla" xMin="85" yMin="-258" xMax="333" yMax="11">
      <contour>
        <pt x="180" y="-59" on="1"/>
        <pt x="196" y="-57" on="0"/>
        <pt x="271" y="-57" on="0"/>
        <pt x="333" y="-103" on="0"/>
        <pt x="333" y="-137" on="1"/>
        <pt x="333" y="-191" on="0"/>
        <pt x="250" y="-258" on="0"/>
        <pt x="182" y="-258" on="1"/>
        <pt x="137" y="-258" on="0"/>
        <pt x="85" y="-230" on="0"/>
        <pt x="85" y="-182" on="0"/>
        <pt x="103" y="-168" on="1"/>
        <pt x="122" y="-200" on="0"/>
        <pt x="170" y="-200" on="1"/>
        <pt x="199" y="-200" on="0"/>
        <pt x="230" y="-177" on="0"/>
        <pt x="230" y="-157" on="1"/>
        <pt x="230" y="-110" on="0"/>
        <pt x="154" y="-110" on="1"/>
        <pt x="134" y="-110" on="0"/>
        <pt x="112" y="-112" on="1"/>
        <pt x="149" y="11" on="1"/>
        <pt x="201" y="11" on="1"/>
      </contour>
    </TTGlyph>
    <TTGlyph name="cent" xMin="27" yMin="-49" xMax="519" yMax="687">
      <contour>
        <pt x="421" y="251" on="1"/>
        <pt x="459" y="232" on="0"/>
        <pt x="459" y="176" on="1"/>
        <pt x="459" y="125" on="0"/>
        <pt x="410" y="91" on="1"/>
        <pt x="366" y="60" on="0"/>
        <pt x="296" y="49" on="1"/>
        <pt x="292" y="26" on="1"/>
        <pt x="284" y="-18" on="0"/>
        <pt x="254" y="-49" on="0"/>
        <pt x="196" y="-49" on="0"/>
        <pt x="178" y="-44" on="1"/>
        <pt x="196" y="47" on="1"/>
        <pt x="107" y="59" on="0"/>
        <pt x="27" y="174" on="0"/>
        <pt x="27" y="333" on="0"/>
        <pt x="67" y="449" on="0"/>
        <pt x="103" y="491" on="1"/>
        <pt x="175" y="576" on="0"/>
        <pt x="303" y="592" on="1"/>
        <pt x="307" y="612" on="1"/>
        <pt x="314" y="655" on="0"/>
        <pt x="344" y="687" on="0"/>
        <pt x="398" y="687" on="0"/>
        <pt x="418" y="682" on="1"/>
        <pt x="400" y="592" on="1"/>
        <pt x="519" y="579" on="0"/>
        <pt x="519" y="481" on="1"/>
        <pt x="519" y="440" on="0"/>
        <pt x="452" y="387" on="0"/>
        <pt x="392" y="387" on="1"/>
        <pt x="370" y="387" on="0"/>
        <pt x="354" y="394" on="1"/>
        <pt x="376" y="449" on="0"/>
        <pt x="376" y="537" on="0"/>
        <pt x="319" y="537" on="0"/>
        <pt x="272" y="473" on="0"/>
        <pt x="237" y="384" on="0"/>
        <pt x="217" y="293" on="0"/>
        <pt x="217" y="221" on="0"/>
        <pt x="251" y="171" on="0"/>
        <pt x="297" y="171" on="1"/>
        <pt x="334" y="171" on="0"/>
        <pt x="360" y="188" on="1"/>
        <pt x="407" y="216" on="0"/>
      </contour>
    </TTGlyph>
    <TTGlyph name="circumflex" xMin="-30" yMin="578" xMax="318" yMax="770">
      <contour>
        <pt x="-30" y="640" on="1"/>
        <pt x="165" y="770" on="1"/>
        <pt x="318" y="639" on="1"/>
        <pt x="268" y="578" on="1"/>
        <pt x="151" y="650" on="1"/>
        <pt x="3" y="578" on="1"/>
      </contour>
    </TTGlyph>
    <TTGlyph name="colon" xMin="-1" yMin="-20" xMax="275" yMax="530">
      <contour>
        <pt x="-1" y="59" on="1"/>
        <pt x="-1" y="97" on="0"/>
        <pt x="58" y="139" on="0"/>
        <pt x="100" y="139" on="1"/>
        <pt x="142" y="139" on="0"/>
        <pt x="193" y="97" on="0"/>
        <pt x="193" y="59" on="1"/>
        <pt x="193" y="21" on="0"/>
        <pt x="136" y="-20" on="0"/>
        <pt x="94" y="-20" on="1"/>
        <pt x="52" y="-20" on="0"/>
        <pt x="-1" y="21" on="0"/>
      </contour>
      <contour>
        <pt x="81" y="450" on="1"/>
        <pt x="81" y="488" on="0"/>
        <pt x="140" y="530" on="0"/>
        <pt x="182" y="530" on="1"/>
        <pt x="224" y="530" on="0"/>
        <pt x="275" y="488" on="0"/>
        <pt x="275" y="450" on="1"/>
        <pt x="275" y="412" on="0"/>
        <pt x="218" y="371" on="0"/>
        <pt x="176" y="371" on="1"/>
        <pt x="134" y="371" on="0"/>
        <pt x="81" y="412" on="0"/>
      </contour>
    </TTGlyph>
    <TTGlyph name="comma" xMin="-71" yMin="-135" xMax="169" yMax="139">
      <contour>
        <pt x="-71" y="-129" on="1"/>
        <pt x="6" y="-46" on="0"/>
        <pt x="6" y="58" on="1"/>
        <pt x="6" y="90" on="0"/>
        <pt x="-5" y="120" on="1"/>
        <pt x="7" y="128" on="0"/>
        <pt x="55" y="139" on="0"/>
        <pt x="73" y="139" on="1"/>
        <pt x="117" y="139" on="0"/>
        <pt x="169" y="92" on="0"/>
        <pt x="169" y="10" on="0"/>
        <pt x="137" y="-56" on="0"/>
        <pt x="110" y="-81" on="1"/>
        <pt x="52" y="-135" on="0"/>
        <pt x="-28" y="-135" on="1"/>
        <pt x="-44" y="-135" on="0"/>
      </contour>
    </TTGlyph>
    <TTGlyph name="copyright" xMin="16" yMin="-76" xMax="738" yMax="614">
      <contour>
        <pt x="16" y="179" on="1"/>
        <pt x="16" y="269" on="0"/>
        <pt x="84" y="427" on="0"/>
        <pt x="202" y="545" on="0"/>
        <pt x="359" y="614" on="0"/>
        <pt x="448" y="614" on="1"/>
        <pt x="586" y="614" on="0"/>
        <pt x="738" y="479" on="0"/>
        <pt x="738" y="357" on="1"/>
        <pt x="738" y="264" on="0"/>
        <pt x="672" y="105" on="0"/>
        <pt x="555" y="-10" on="0"/>
        <pt x="395" y="-76" on="0"/>
        <pt x="301" y="-76" on="1"/>
        <pt x="160" y="-76" on="0"/>
        <pt x="16" y="53" on="0"/>
      </contour>
      <contour>
        <pt x="119" y="199" on="1"/>
        <pt x="119" y="92" on="0"/>
        <pt x="222" y="-7" on="0"/>
        <pt x="333" y="-7" on="1"/>
        <pt x="465" y="-7" on="0"/>
        <pt x="635" y="182" on="0"/>
        <pt x="635" y="329" on="1"/>
        <pt x="635" y="432" on="0"/>
        <pt x="523" y="543" on="0"/>
        <pt x="419" y="543" on="1"/>
        <pt x="355" y="543" on="0"/>
        <pt x="245" y="491" on="0"/>
        <pt x="205" y="444" on="1"/>
        <pt x="119" y="345" on="0"/>
      </contour>
      <contour>
        <pt x="431" y="327" on="1"/>
        <pt x="444" y="358" on="0"/>
        <pt x="444" y="427" on="0"/>
        <pt x="424" y="427" on="1"/>
        <pt x="396" y="427" on="0"/>
        <pt x="368" y="362" on="1"/>
        <pt x="340" y="295" on="0"/>
        <pt x="340" y="197" on="0"/>
        <pt x="365" y="165" on="0"/>
        <pt x="416" y="165" on="0"/>
        <pt x="456" y="195" on="0"/>
        <pt x="467" y="221" on="1"/>
        <pt x="492" y="208" on="0"/>
        <pt x="492" y="167" on="1"/>
        <pt x="492" y="129" on="0"/>
        <pt x="452" y="102" on="1"/>
        <pt x="412" y="75" on="0"/>
        <pt x="353" y="75" on="1"/>
        <pt x="212" y="75" on="0"/>
        <pt x="212" y="226" on="1"/>
        <pt x="212" y="338" on="0"/>
        <pt x="272" y="404" on="1"/>
        <pt x="331" y="469" on="0"/>
        <pt x="542" y="469" on="0"/>
        <pt x="542" y="389" on="1"/>
        <pt x="542" y="360" on="0"/>
        <pt x="495" y="322" on="0"/>
        <pt x="438" y="322" on="0"/>
      </contour>
    </TTGlyph>
    <TTGlyph name="currency" xMin="41" yMin="96" xMax="535" yMax="581">
      <contour>
        <pt x="41" y="161" on="1"/>
        <pt x="127" y="238" on="1"/>
        <pt x="114" y="268" on="0"/>
        <pt x="114" y="375" on="0"/>
        <pt x="147" y="425" on="1"/>
        <pt x="58" y="505" on="1"/>
        <pt x="112" y="579" on="1"/>
        <pt x="208" y="484" on="1"/>
        <pt x="251" y="510" on="0"/>
        <pt x="350" y="510" on="0"/>
        <pt x="383" y="495" on="1"/>
        <pt x="471" y="581" on="1"/>
        <pt x="535" y="516" on="1"/>
        <pt x="447" y="437" on="1"/>
        <pt x="465" y="402" on="0"/>
        <pt x="465" y="300" on="0"/>
        <pt x="440" y="255" on="1"/>
        <pt x="534" y="172" on="1"/>
        <pt x="475" y="102" on="1"/>
        <pt x="383" y="192" on="1"/>
        <pt x="335" y="161" on="0"/>
        <pt x="220" y="161" on="0"/>
        <pt x="187" y="177" on="1"/>
        <pt x="105" y="96" on="1"/>
      </contour>
      <contour>
        <pt x="214" y="327" on="1"/>
        <pt x="214" y="288" on="0"/>
        <pt x="248" y="253" on="0"/>
        <pt x="322" y="253" on="0"/>
        <pt x="365" y="301" on="0"/>
        <pt x="365" y="378" on="0"/>
        <pt x="326" y="417" on="0"/>
        <pt x="292" y="417" on="1"/>
        <pt x="258" y="417" on="0"/>
        <pt x="214" y="366" on="0"/>
      </contour>
    </TTGlyph>
    <TTGlyph name="d" xMin="16" yMin="-20" xMax="629" yMax="720">
      <contour>
        <pt x="332" y="530" on="1"/>
        <pt x="368" y="530" on="0"/>
        <pt x="396" y="522" on="1"/>
        <pt x="397" y="526" on="0"/>
        <pt x="399" y="537" on="1"/>
        <pt x="404" y="568" on="1"/>
        <pt x="408" y="588" on="0"/>
        <pt x="414" y="621" on="1"/>
        <pt x="430" y="700" on="1"/>
        <pt x="629" y="720" on="1"/>
        <pt x="518" y="140" on="1"/>
        <pt x="517" y="134" on="0"/>
        <pt x="517" y="124" on="1"/>
        <pt x="517" y="108" on="1"/>
        <pt x="517" y="86" on="0"/>
        <pt x="539" y="53" on="0"/>
        <pt x="557" y="53" on="1"/>
        <pt x="537" y="6" on="0"/>
        <pt x="476" y="-14" on="1"/>
        <pt x="455" y="-20" on="0"/>
        <pt x="396" y="-20" on="0"/>
        <pt x="342" y="11" on="0"/>
        <pt x="334" y="37" on="1"/>
        <pt x="318" y="11" on="0"/>
        <pt x="254" y="-20" on="0"/>
        <pt x="161" y="-20" on="0"/>
        <pt x="84" y="4" on="0"/>
        <pt x="60" y="30" on="1"/>
        <pt x="16" y="81" on="0"/>
        <pt x="16" y="197" on="1"/>
        <pt x="16" y="347" on="0"/>
        <pt x="104" y="438" on="1"/>
        <pt x="192" y="530" on="0"/>
      </contour>
      <contour>
        <pt x="288" y="470" on="0"/>
        <pt x="248" y="390" on="0"/>
        <pt x="207" y="192" on="0"/>
        <pt x="207" y="103" on="1"/>
        <pt x="207" y="42" on="0"/>
        <pt x="243" y="42" on="1"/>
        <pt x="275" y="42" on="0"/>
        <pt x="320" y="106" on="0"/>
        <pt x="329" y="159" on="1"/>
        <pt x="383" y="452" on="1"/>
        <pt x="362" y="470" on="0"/>
      </contour>
    </TTGlyph>
    <TTGlyph name="dagger" xMin="36" yMin="-144" xMax="462" yMax="671">
      <contour>
        <pt x="180" y="361" on="1"/>
        <pt x="117" y="354" on="0"/>
        <pt x="43" y="331" on="1"/>
        <pt x="36" y="345" on="0"/>
        <pt x="36" y="386" on="0"/>
        <pt x="42" y="422" on="0"/>
        <pt x="48" y="439" on="1"/>
        <pt x="58" y="471" on="0"/>
        <pt x="76" y="496" on="1"/>
        <pt x="133" y="477" on="0"/>
        <pt x="200" y="466" on="1"/>
        <pt x="203" y="491" on="0"/>
        <pt x="203" y="588" on="0"/>
        <pt x="186" y="645" on="1"/>
        <pt x="234" y="671" on="0"/>
        <pt x="352" y="671" on="0"/>
        <pt x="389" y="645" on="1"/>
        <pt x="338" y="544" on="0"/>
        <pt x="314" y="464" on="1"/>
        <pt x="363" y="470" on="0"/>
        <pt x="452" y="498" on="1"/>
        <pt x="462" y="482" on="0"/>
        <pt x="462" y="438" on="0"/>
        <pt x="455" y="402" on="0"/>
        <pt x="449" y="386" on="1"/>
        <pt x="437" y="352" on="0"/>
        <pt x="417" y="332" on="1"/>
        <pt x="349" y="353" on="0"/>
        <pt x="295" y="361" on="1"/>
        <pt x="244" y="-59" on="1"/>
        <pt x="243" y="-65" on="0"/>
        <pt x="243" y="-71" on="1"/>
        <pt x="243" y="-82" on="1"/>
        <pt x="243" y="-101" on="0"/>
        <pt x="246" y="-113" on="1"/>
        <pt x="194" y="-144" on="0"/>
        <pt x="137" y="-144" on="1"/>
        <pt x="66" y="-144" on="0"/>
        <pt x="66" y="-75" on="1"/>
        <pt x="66" y="-46" on="0"/>
        <pt x="85" y="27" on="0"/>
        <pt x="98" y="71" on="1"/>
      </contour>
    </TTGlyph>
    <TTGlyph name="daggerdbl" xMin="-10" yMin="-144" xMax="471" yMax="671">
      <contour>
        <pt x="107" y="74" on="1"/>
        <pt x="38" y="62" on="0"/>
        <pt x="-3" y="48" on="1"/>
        <pt x="-10" y="62" on="0"/>
        <pt x="-10" y="103" on="0"/>
        <pt x="-4" y="139" on="0"/>
        <pt x="2" y="156" on="1"/>
        <pt x="12" y="188" on="0"/>
        <pt x="30" y="213" on="1"/>
        <pt x="88" y="194" on="0"/>
        <pt x="140" y="187" on="1"/>
        <pt x="189" y="361" on="1"/>
        <pt x="126" y="354" on="0"/>
        <pt x="52" y="331" on="1"/>
        <pt x="45" y="345" on="0"/>
        <pt x="45" y="386" on="0"/>
        <pt x="51" y="422" on="0"/>
        <pt x="56" y="439" on="1"/>
        <pt x="67" y="471" on="0"/>
        <pt x="85" y="496" on="1"/>
        <pt x="142" y="477" on="0"/>
        <pt x="209" y="466" on="1"/>
        <pt x="212" y="491" on="0"/>
        <pt x="212" y="588" on="0"/>
        <pt x="195" y="645" on="1"/>
        <pt x="243" y="671" on="0"/>
        <pt x="361" y="671" on="0"/>
        <pt x="398" y="645" on="1"/>
        <pt x="347" y="544" on="0"/>
        <pt x="323" y="464" on="1"/>
        <pt x="372" y="470" on="0"/>
        <pt x="461" y="498" on="1"/>
        <pt x="471" y="482" on="0"/>
        <pt x="471" y="438" on="0"/>
        <pt x="464" y="402" on="0"/>
        <pt x="458" y="386" on="1"/>
        <pt x="446" y="352" on="0"/>
        <pt x="426" y="332" on="1"/>
        <pt x="358" y="353" on="0"/>
        <pt x="304" y="361" on="1"/>
        <pt x="292" y="280" on="1"/>
        <pt x="285" y="233" on="0"/>
        <pt x="279" y="186" on="1"/>
        <pt x="348" y="196" on="0"/>
        <pt x="406" y="216" on="1"/>
        <pt x="416" y="200" on="0"/>
        <pt x="416" y="156" on="0"/>
        <pt x="409" y="120" on="0"/>
        <pt x="403" y="103" on="1"/>
        <pt x="391" y="69" on="0"/>
        <pt x="371" y="49" on="1"/>
        <pt x="314" y="66" on="0"/>
        <pt x="263" y="75" on="1"/>
        <pt x="253" y="20" on="0"/>
        <pt x="253" y="-95" on="0"/>
        <pt x="255" y="-113" on="1"/>
        <pt x="203" y="-144" on="0"/>
        <pt x="106" y="-144" on="0"/>
        <pt x="75" y="-105" on="0"/>
        <pt x="75" y="-44" on="0"/>
        <pt x="96" y="36" on="0"/>
      </contour>
    </TTGlyph>
    <TTGlyph name="degree" xMin="60" yMin="370" xMax="398" yMax="684">
      <contour>
        <pt x="133" y="370" on="0"/>
        <pt x="60" y="435" on="0"/>
        <pt x="60" y="541" on="0"/>
        <pt x="94" y="611" on="0"/>
        <pt x="122" y="635" on="1"/>
        <pt x="181" y="684" on="0"/>
        <pt x="265" y="684" on="1"/>
        <pt x="327" y="684" on="0"/>
        <pt x="398" y="619" on="0"/>
        <pt x="398" y="514" on="0"/>
        <pt x="365" y="444" on="0"/>
        <pt x="337" y="420" on="1"/>
        <pt x="280" y="370" on="0"/>
        <pt x="195" y="370" on="1"/>
      </contour>
      <contour>
        <pt x="178" y="566" on="0"/>
        <pt x="164" y="522" on="0"/>
        <pt x="164" y="469" on="0"/>
        <pt x="186" y="430" on="0"/>
        <pt x="224" y="430" on="0"/>
        <pt x="257" y="449" on="0"/>
        <pt x="270" y="465" on="1"/>
        <pt x="298" y="501" on="0"/>
        <pt x="298" y="578" on="0"/>
        <pt x="273" y="619" on="0"/>
        <pt x="233" y="619" on="0"/>
        <pt x="202" y="599" on="0"/>
      </contour>
    </TTGlyph>
    <TTGlyph name="dieresis" xMin="-48" yMin="589" xMax="376" yMax="720">
      <contour>
        <pt x="4" y="589" on="0"/>
        <pt x="-48" y="623" on="0"/>
        <pt x="-48" y="686" on="0"/>
        <pt x="9" y="720" on="0"/>
        <pt x="51" y="720" on="1"/>
        <pt x="93" y="720" on="0"/>
        <pt x="143" y="686" on="0"/>
        <pt x="143" y="623" on="0"/>
        <pt x="87" y="589" on="0"/>
      </contour>
      <contour>
        <pt x="237" y="589" on="0"/>
        <pt x="185" y="623" on="0"/>
        <pt x="185" y="686" on="0"/>
        <pt x="242" y="720" on="0"/>
        <pt x="284" y="720" on="1"/>
        <pt x="326" y="720" on="0"/>
        <pt x="376" y="686" on="0"/>
        <pt x="376" y="623" on="0"/>
        <pt x="320" y="589" on="0"/>
      </contour>
    </TTGlyph>
    <TTGlyph name="divide" xMin="10" yMin="14" xMax="440" yMax="467">
      <contour>
        <pt x="14" y="191" on="1"/>
        <pt x="10" y="207" on="0"/>
        <pt x="10" y="253" on="0"/>
        <pt x="52" y="290" on="0"/>
        <pt x="84" y="290" on="1"/>
        <pt x="435" y="290" on="1"/>
        <pt x="440" y="270" on="0"/>
        <pt x="440" y="224" on="0"/>
        <pt x="400" y="191" on="0"/>
        <pt x="358" y="191" on="1"/>
      </contour>
      <contour>
        <pt x="116" y="76" on="1"/>
        <pt x="116" y="106" on="0"/>
        <pt x="162" y="139" on="0"/>
        <pt x="227" y="139" on="0"/>
        <pt x="268" y="106" on="0"/>
        <pt x="268" y="76" on="1"/>
        <pt x="268" y="46" on="0"/>
        <pt x="223" y="14" on="0"/>
        <pt x="158" y="14" on="0"/>
        <pt x="116" y="46" on="0"/>
      </contour>
      <contour>
        <pt x="183" y="404" on="1"/>
        <pt x="183" y="434" on="0"/>
        <pt x="229" y="467" on="0"/>
        <pt x="294" y="467" on="0"/>
        <pt x="335" y="434" on="0"/>
        <pt x="335" y="404" on="1"/>
        <pt x="335" y="374" on="0"/>
        <pt x="290" y="342" on="0"/>
        <pt x="225" y="342" on="0"/>
        <pt x="183" y="374" on="0"/>
      </contour>
    </TTGlyph>
    <TTGlyph name="dollar" xMin="-7" yMin="-117" xMax="565" yMax="777">
      <contour>
        <pt x="83" y="-13" on="0"/>
        <pt x="-7" y="48" on="0"/>
        <pt x="-7" y="150" on="0"/>
        <pt x="54" y="216" on="0"/>
        <pt x="102" y="216" on="1"/>
        <pt x="145" y="216" on="0"/>
        <pt x="175" y="203" on="1"/>
        <pt x="155" y="169" on="0"/>
        <pt x="155" y="82" on="0"/>
        <pt x="184" y="48" on="0"/>
        <pt x="256" y="48" on="0"/>
        <pt x="308" y="91" on="0"/>
        <pt x="308" y="163" on="0"/>
        <pt x="271" y="207" on="0"/>
        <pt x="215" y="242" on="0"/>
        <pt x="150" y="276" on="0"/>
        <pt x="122" y="300" on="1"/>
        <pt x="57" y="354" on="0"/>
        <pt x="57" y="443" on="1"/>
        <pt x="57" y="528" on="0"/>
        <pt x="126" y="594" on="1"/>
        <pt x="194" y="659" on="0"/>
        <pt x="300" y="675" on="1"/>
        <pt x="305" y="702" on="1"/>
        <pt x="313" y="746" on="0"/>
        <pt x="342" y="777" on="0"/>
        <pt x="394" y="777" on="0"/>
        <pt x="416" y="772" on="1"/>
        <pt x="397" y="678" on="1"/>
        <pt x="478" y="672" on="0"/>
        <pt x="565" y="610" on="0"/>
        <pt x="565" y="513" on="0"/>
        <pt x="498" y="457" on="0"/>
        <pt x="444" y="457" on="1"/>
        <pt x="411" y="457" on="0"/>
        <pt x="387" y="467" on="1"/>
        <pt x="393" y="480" on="0"/>
        <pt x="405" y="525" on="0"/>
        <pt x="405" y="551" on="0"/>
        <pt x="401" y="580" on="0"/>
        <pt x="394" y="592" on="1"/>
        <pt x="380" y="617" on="0"/>
        <pt x="299" y="617" on="0"/>
        <pt x="251" y="563" on="0"/>
        <pt x="251" y="490" on="0"/>
        <pt x="290" y="447" on="0"/>
        <pt x="347" y="407" on="0"/>
        <pt x="415" y="367" on="0"/>
        <pt x="444" y="343" on="1"/>
        <pt x="511" y="286" on="0"/>
        <pt x="511" y="214" on="1"/>
        <pt x="511" y="125" on="0"/>
        <pt x="440" y="62" on="1"/>
        <pt x="370" y="1" on="0"/>
        <pt x="264" y="-15" on="1"/>
        <pt x="259" y="-42" on="1"/>
        <pt x="250" y="-86" on="0"/>
        <pt x="221" y="-117" on="0"/>
        <pt x="163" y="-117" on="0"/>
        <pt x="145" y="-112" on="1"/>
        <pt x="163" y="-18" on="1"/>
      </contour>
    </TTGlyph>
    <TTGlyph name="dotaccent" xMin="37" yMin="589" xMax="228" yMax="720">
      <contour>
        <pt x="89" y="589" on="0"/>
        <pt x="37" y="623" on="0"/>
        <pt x="37" y="686" on="0"/>
        <pt x="94" y="720" on="0"/>
        <pt x="136" y="720" on="1"/>
        <pt x="178" y="720" on="0"/>
        <pt x="228" y="686" on="0"/>
        <pt x="228" y="623" on="0"/>
        <pt x="172" y="589" on="0"/>
      </contour>
    </TTGlyph>
    <TTGlyph name="dotlessi" xMin="17" yMin="-20" xMax="292" yMax="530">
      <contour>
        <pt x="255" y="55" on="1"/>
        <pt x="224" y="-20" on="0"/>
        <pt x="125" y="-20" on="1"/>
        <pt x="75" y="-20" on="0"/>
        <pt x="44" y="15" on="1"/>
        <pt x="17" y="44" on="0"/>
        <pt x="17" y="77" on="1"/>
        <pt x="17" y="158" on="0"/>
        <pt x="54" y="316" on="1"/>
        <pt x="91" y="510" on="1"/>
        <pt x="292" y="530" on="1"/>
        <pt x="231" y="214" on="1"/>
        <pt x="214" y="140" on="0"/>
        <pt x="214" y="114" on="1"/>
        <pt x="214" y="57" on="0"/>
      </contour>
    </TTGlyph>
    <TTGlyph name="e" xMin="15" yMin="-20" xMax="515" yMax="530">
      <contour>
        <pt x="422" y="169" on="1"/>
        <pt x="447" y="152" on="0"/>
        <pt x="447" y="77" on="0"/>
        <pt x="409" y="29" on="0"/>
        <pt x="378" y="13" on="1"/>
        <pt x="314" y="-20" on="0"/>
        <pt x="176" y="-20" on="0"/>
        <pt x="95" y="10" on="0"/>
        <pt x="68" y="38" on="1"/>
        <pt x="15" y="91" on="0"/>
        <pt x="15" y="188" on="1"/>
        <pt x="15" y="339" on="0"/>
        <pt x="97" y="431" on="1"/>
        <pt x="185" y="530" on="0"/>
        <pt x="338" y="530" on="1"/>
        <pt x="433" y="530" on="0"/>
        <pt x="480" y="490" on="1"/>
        <pt x="515" y="460" on="0"/>
        <pt x="515" y="411" on="1"/>
        <pt x="515" y="235" on="0"/>
        <pt x="211" y="235" on="1"/>
        <pt x="207" y="209" on="0"/>
        <pt x="207" y="187" on="1"/>
        <pt x="207" y="141" on="0"/>
        <pt x="248" y="106" on="0"/>
        <pt x="324" y="106" on="0"/>
        <pt x="405" y="141" on="0"/>
      </contour>
      <contour>
        <pt x="218" y="278" on="1"/>
        <pt x="289" y="278" on="0"/>
        <pt x="330" y="322" on="1"/>
        <pt x="371" y="364" on="0"/>
        <pt x="371" y="431" on="1"/>
        <pt x="371" y="454" on="0"/>
        <pt x="354" y="479" on="0"/>
        <pt x="320" y="479" on="0"/>
        <pt x="291" y="466" on="0"/>
        <pt x="276" y="444" on="1"/>
        <pt x="239" y="394" on="0"/>
      </contour>
    </TTGlyph>
    <TTGlyph name="eacute" xMin="15" yMin="-20" xMax="521" yMax="769">
      <component glyphName="e" x="0" y="0" flags="0x1204"/>
      <component glyphName="acute" x="285" y="33" flags="0x1004"/>
    </TTGlyph>
    <TTGlyph name="ecircumflex" xMin="15" yMin="-20" xMax="515" yMax="768">
      <component glyphName="e" x="0" y="0" flags="0x1204"/>
      <component glyphName="circumflex" x="197" y="-2" flags="0x1004"/>
    </TTGlyph>
    <TTGlyph name="edieresis" xMin="15" yMin="-20" xMax="551" yMax="720">
      <component glyphName="e" x="0" y="0" flags="0x1204"/>
      <component glyphName="dieresis" x="175" y="7" scalex="1.0" scaley="0.989990234375" flags="0x1004"/>
    </TTGlyph>
    <TTGlyph name="egrave" xMin="15" yMin="-20" xMax="515" yMax="766">
      <component glyphName="e" x="0" y="0" flags="0x1204"/>
      <component glyphName="grave" x="210" y="33" flags="0x1004"/>
    </TTGlyph>
    <TTGlyph name="eight" xMin="2" yMin="-20" xMax="541" yMax="680">
      <contour>
        <pt x="2" y="139" on="1"/>
        <pt x="2" y="254" on="0"/>
        <pt x="152" y="327" on="1"/>
        <pt x="86" y="381" on="0"/>
        <pt x="86" y="451" on="1"/>
        <pt x="86" y="547" on="0"/>
        <pt x="166" y="614" on="1"/>
        <pt x="245" y="680" on="0"/>
        <pt x="363" y="680" on="1"/>
        <pt x="443" y="680" on="0"/>
        <pt x="492" y="642" on="1"/>
        <pt x="541" y="604" on="0"/>
        <pt x="541" y="547" on="1"/>
        <pt x="541" y="460" on="0"/>
        <pt x="453" y="400" on="1"/>
        <pt x="428" y="383" on="0"/>
        <pt x="401" y="371" on="1"/>
        <pt x="466" y="317" on="0"/>
        <pt x="482" y="294" on="1"/>
        <pt x="509" y="257" on="0"/>
        <pt x="509" y="167" on="0"/>
        <pt x="464" y="79" on="0"/>
        <pt x="424" y="48" on="1"/>
        <pt x="340" y="-20" on="0"/>
        <pt x="217" y="-20" on="1"/>
        <pt x="119" y="-20" on="0"/>
        <pt x="60" y="24" on="1"/>
        <pt x="2" y="68" on="0"/>
      </contour>
      <contour>
        <pt x="212" y="272" on="1"/>
        <pt x="161" y="233" on="0"/>
        <pt x="161" y="167" on="1"/>
        <pt x="161" y="132" on="0"/>
        <pt x="194" y="84" on="0"/>
        <pt x="256" y="84" on="0"/>
        <pt x="303" y="130" on="0"/>
        <pt x="303" y="165" on="1"/>
        <pt x="303" y="196" on="0"/>
        <pt x="282" y="213" on="1"/>
      </contour>
      <contour>
        <pt x="339" y="420" on="1"/>
        <pt x="394" y="446" on="0"/>
        <pt x="394" y="507" on="1"/>
        <pt x="394" y="539" on="0"/>
        <pt x="360" y="581" on="0"/>
        <pt x="298" y="581" on="0"/>
        <pt x="257" y="545" on="0"/>
        <pt x="257" y="522" on="1"/>
        <pt x="257" y="483" on="0"/>
        <pt x="280" y="464" on="1"/>
      </contour>
    </TTGlyph>
    <TTGlyph name="ellipsis" xMin="-13" yMin="-20" xMax="631" yMax="139">
      <contour>
        <pt x="-13" y="59" on="1"/>
        <pt x="-13" y="97" on="0"/>
        <pt x="46" y="139" on="0"/>
        <pt x="88" y="139" on="1"/>
        <pt x="130" y="139" on="0"/>
        <pt x="181" y="97" on="0"/>
        <pt x="181" y="59" on="1"/>
        <pt x="181" y="21" on="0"/>
        <pt x="124" y="-20" on="0"/>
        <pt x="82" y="-20" on="1"/>
        <pt x="40" y="-20" on="0"/>
        <pt x="-13" y="21" on="0"/>
      </contour>
      <contour>
        <pt x="212" y="59" on="1"/>
        <pt x="212" y="97" on="0"/>
        <pt x="271" y="139" on="0"/>
        <pt x="313" y="139" on="1"/>
        <pt x="355" y="139" on="0"/>
        <pt x="406" y="97" on="0"/>
        <pt x="406" y="59" on="1"/>
        <pt x="406" y="21" on="0"/>
        <pt x="349" y="-20" on="0"/>
        <pt x="307" y="-20" on="1"/>
        <pt x="265" y="-20" on="0"/>
        <pt x="212" y="21" on="0"/>
      </contour>
      <contour>
        <pt x="437" y="59" on="1"/>
        <pt x="437" y="97" on="0"/>
        <pt x="496" y="139" on="0"/>
        <pt x="538" y="139" on="1"/>
        <pt x="580" y="139" on="0"/>
        <pt x="631" y="97" on="0"/>
        <pt x="631" y="59" on="1"/>
        <pt x="631" y="21" on="0"/>
        <pt x="574" y="-20" on="0"/>
        <pt x="532" y="-20" on="1"/>
        <pt x="490" y="-20" on="0"/>
        <pt x="437" y="21" on="0"/>
      </contour>
    </TTGlyph>
    <TTGlyph name="emdash" xMin="29" yMin="190" xMax="1029" yMax="292">
      <contour>
        <pt x="29" y="218" on="1"/>
        <pt x="29" y="251" on="0"/>
        <pt x="71" y="292" on="0"/>
        <pt x="103" y="292" on="1"/>
        <pt x="1024" y="292" on="1"/>
        <pt x="1029" y="275" on="0"/>
        <pt x="1029" y="263" on="1"/>
        <pt x="1029" y="233" on="0"/>
        <pt x="988" y="190" on="0"/>
        <pt x="946" y="190" on="1"/>
        <pt x="33" y="190" on="1"/>
        <pt x="29" y="203" on="0"/>
      </contour>
    </TTGlyph>
    <TTGlyph name="endash" xMin="29" yMin="190" xMax="524" yMax="292">
      <contour>
        <pt x="29" y="218" on="1"/>
        <pt x="29" y="251" on="0"/>
        <pt x="71" y="292" on="0"/>
        <pt x="103" y="292" on="1"/>
        <pt x="524" y="292" on="1"/>
        <pt x="538" y="240" on="0"/>
        <pt x="508" y="210" on="1"/>
        <pt x="487" y="190" on="0"/>
        <pt x="446" y="190" on="1"/>
        <pt x="33" y="190" on="1"/>
        <pt x="29" y="203" on="0"/>
      </contour>
    </TTGlyph>
    <TTGlyph name="eogonek" xMin="15" yMin="-258" xMax="515" yMax="530">
      <component glyphName="e" x="0" y="0" flags="0x1204"/>
      <component glyphName="ogonek" x="95" y="0" flags="0x1004"/>
    </TTGlyph>
    <TTGlyph name="equal" xMin="46" yMin="88" xMax="472" yMax="364">
      <contour>
        <pt x="46" y="116" on="1"/>
        <pt x="46" y="148" on="0"/>
        <pt x="87" y="189" on="0"/>
        <pt x="119" y="189" on="1"/>
        <pt x="467" y="189" on="1"/>
        <pt x="472" y="172" on="0"/>
        <pt x="472" y="159" on="1"/>
        <pt x="472" y="129" on="0"/>
        <pt x="432" y="88" on="0"/>
        <pt x="390" y="88" on="1"/>
        <pt x="50" y="88" on="1"/>
        <pt x="46" y="101" on="0"/>
      </contour>
      <contour>
        <pt x="46" y="292" on="1"/>
        <pt x="46" y="324" on="0"/>
        <pt x="87" y="364" on="0"/>
        <pt x="119" y="364" on="1"/>
        <pt x="467" y="364" on="1"/>
        <pt x="472" y="347" on="0"/>
        <pt x="472" y="334" on="1"/>
        <pt x="472" y="304" on="0"/>
        <pt x="432" y="264" on="0"/>
        <pt x="390" y="264" on="1"/>
        <pt x="50" y="264" on="1"/>
        <pt x="46" y="277" on="0"/>
      </contour>
    </TTGlyph>
    <TTGlyph name="eth" xMin="14" yMin="-20" xMax="611" yMax="720">
      <contour>
        <pt x="598" y="720" on="1"/>
        <pt x="611" y="709" on="0"/>
        <pt x="611" y="683" on="1"/>
        <pt x="611" y="653" on="0"/>
        <pt x="561" y="635" on="1"/>
        <pt x="532" y="625" on="1"/>
        <pt x="564" y="564" on="0"/>
        <pt x="564" y="480" on="1"/>
        <pt x="564" y="274" on="0"/>
        <pt x="482" y="140" on="1"/>
        <pt x="437" y="65" on="0"/>
        <pt x="306" y="-20" on="0"/>
        <pt x="225" y="-20" on="1"/>
        <pt x="14" y="-20" on="0"/>
        <pt x="14" y="181" on="1"/>
        <pt x="14" y="331" on="0"/>
        <pt x="98" y="424" on="1"/>
        <pt x="183" y="519" on="0"/>
        <pt x="317" y="519" on="1"/>
        <pt x="368" y="519" on="0"/>
        <pt x="392" y="508" on="1"/>
        <pt x="398" y="535" on="0"/>
        <pt x="398" y="548" on="1"/>
        <pt x="398" y="567" on="0"/>
        <pt x="396" y="577" on="1"/>
        <pt x="293" y="540" on="1"/>
        <pt x="278" y="555" on="0"/>
        <pt x="278" y="571" on="1"/>
        <pt x="278" y="604" on="0"/>
        <pt x="311" y="615" on="1"/>
        <pt x="368" y="636" on="1"/>
        <pt x="348" y="651" on="0"/>
        <pt x="299" y="651" on="0"/>
        <pt x="286" y="642" on="1"/>
        <pt x="282" y="648" on="0"/>
        <pt x="282" y="658" on="1"/>
        <pt x="282" y="689" on="0"/>
        <pt x="338" y="720" on="0"/>
        <pt x="446" y="720" on="0"/>
        <pt x="490" y="680" on="1"/>
      </contour>
      <contour>
        <pt x="380" y="441" on="1"/>
        <pt x="357" y="460" on="0"/>
        <pt x="281" y="460" on="0"/>
        <pt x="238" y="390" on="0"/>
        <pt x="224" y="315" on="1"/>
        <pt x="202" y="190" on="0"/>
        <pt x="202" y="76" on="0"/>
        <pt x="219" y="39" on="0"/>
        <pt x="260" y="39" on="0"/>
        <pt x="295" y="84" on="0"/>
        <pt x="312" y="132" on="1"/>
        <pt x="343" y="220" on="0"/>
      </contour>
    </TTGlyph>
    <TTGlyph name="exclam" xMin="-10" yMin="-21" xMax="295" yMax="680">
      <contour>
        <pt x="-10" y="59" on="1"/>
        <pt x="-10" y="97" on="0"/>
        <pt x="47" y="138" on="0"/>
        <pt x="89" y="138" on="1"/>
        <pt x="131" y="138" on="0"/>
        <pt x="184" y="97" on="0"/>
        <pt x="184" y="59" on="1"/>
        <pt x="184" y="21" on="0"/>
        <pt x="125" y="-21" on="0"/>
        <pt x="83" y="-21" on="1"/>
        <pt x="41" y="-21" on="0"/>
        <pt x="-10" y="21" on="0"/>
      </contour>
      <contour>
        <pt x="44" y="247" on="1"/>
        <pt x="44" y="254" on="0"/>
        <pt x="46" y="264" on="1"/>
        <pt x="124" y="666" on="1"/>
        <pt x="161" y="680" on="0"/>
        <pt x="249" y="680" on="0"/>
        <pt x="295" y="624" on="0"/>
        <pt x="295" y="541" on="0"/>
        <pt x="263" y="448" on="0"/>
        <pt x="224" y="354" on="0"/>
        <pt x="191" y="257" on="0"/>
        <pt x="190" y="206" on="1"/>
        <pt x="167" y="180" on="0"/>
        <pt x="87" y="180" on="0"/>
        <pt x="44" y="217" on="0"/>
      </contour>
    </TTGlyph>
    <TTGlyph name="exclamdown" xMin="-34" yMin="-171" xMax="271" yMax="530">
      <contour>
        <pt x="12" y="-171" on="0"/>
        <pt x="-34" y="-115" on="0"/>
        <pt x="-34" y="-32" on="0"/>
        <pt x="-2" y="61" on="0"/>
        <pt x="37" y="155" on="0"/>
        <pt x="70" y="252" on="0"/>
        <pt x="71" y="303" on="1"/>
        <pt x="94" y="329" on="0"/>
        <pt x="174" y="329" on="0"/>
        <pt x="217" y="292" on="0"/>
        <pt x="217" y="262" on="1"/>
        <pt x="217" y="255" on="0"/>
        <pt x="215" y="245" on="1"/>
        <pt x="137" y="-157" on="1"/>
        <pt x="100" y="-171" on="0"/>
      </contour>
      <contour>
        <pt x="77" y="450" on="1"/>
        <pt x="77" y="488" on="0"/>
        <pt x="136" y="530" on="0"/>
        <pt x="178" y="530" on="1"/>
        <pt x="220" y="530" on="0"/>
        <pt x="271" y="488" on="0"/>
        <pt x="271" y="450" on="1"/>
        <pt x="271" y="412" on="0"/>
        <pt x="214" y="371" on="0"/>
        <pt x="172" y="371" on="1"/>
        <pt x="130" y="371" on="0"/>
        <pt x="77" y="412" on="0"/>
      </contour>
    </TTGlyph>
    <TTGlyph name="f" xMin="16" yMin="-20" xMax="564" yMax="720">
      <contour>
        <pt x="407" y="580" on="1"/>
        <pt x="421" y="604" on="0"/>
        <pt x="421" y="630" on="1"/>
        <pt x="421" y="676" on="0"/>
        <pt x="393" y="676" on="1"/>
        <pt x="350" y="676" on="0"/>
        <pt x="332" y="588" on="1"/>
        <pt x="317" y="510" on="1"/>
        <pt x="408" y="510" on="1"/>
        <pt x="402" y="465" on="1"/>
        <pt x="308" y="465" on="1"/>
        <pt x="218" y="0" on="1"/>
        <pt x="16" y="-20" on="1"/>
        <pt x="112" y="465" on="1"/>
        <pt x="41" y="465" on="1"/>
        <pt x="50" y="510" on="1"/>
        <pt x="120" y="510" on="1"/>
        <pt x="141" y="589" on="1"/>
        <pt x="159" y="662" on="0"/>
        <pt x="236" y="696" on="1"/>
        <pt x="292" y="720" on="0"/>
        <pt x="480" y="720" on="0"/>
        <pt x="564" y="672" on="0"/>
        <pt x="564" y="608" on="0"/>
        <pt x="514" y="568" on="0"/>
        <pt x="486" y="568" on="1"/>
        <pt x="431" y="568" on="0"/>
      </contour>
    </TTGlyph>
    <TTGlyph name="five" xMin="-6" yMin="-20" xMax="507" yMax="695">
      <contour>
        <pt x="178" y="411" on="1"/>
        <pt x="236" y="416" on="0"/>
        <pt x="308" y="416" on="0"/>
        <pt x="384" y="390" on="0"/>
        <pt x="412" y="368" on="1"/>
        <pt x="474" y="319" on="0"/>
        <pt x="474" y="194" on="0"/>
        <pt x="429" y="94" on="0"/>
        <pt x="390" y="58" on="1"/>
        <pt x="307" y="-20" on="0"/>
        <pt x="181" y="-20" on="1"/>
        <pt x="90" y="-20" on="0"/>
        <pt x="-6" y="38" on="0"/>
        <pt x="-6" y="149" on="0"/>
        <pt x="29" y="179" on="1"/>
        <pt x="71" y="108" on="0"/>
        <pt x="160" y="108" on="1"/>
        <pt x="214" y="108" on="0"/>
        <pt x="274" y="158" on="0"/>
        <pt x="274" y="206" on="1"/>
        <pt x="274" y="302" on="0"/>
        <pt x="135" y="302" on="1"/>
        <pt x="82" y="302" on="0"/>
        <pt x="48" y="298" on="1"/>
        <pt x="142" y="660" on="1"/>
        <pt x="377" y="660" on="1"/>
        <pt x="456" y="660" on="0"/>
        <pt x="481" y="695" on="1"/>
        <pt x="507" y="672" on="0"/>
        <pt x="507" y="621" on="1"/>
        <pt x="507" y="573" on="0"/>
        <pt x="469" y="539" on="1"/>
        <pt x="431" y="505" on="0"/>
        <pt x="377" y="505" on="1"/>
        <pt x="206" y="505" on="1"/>
      </contour>
    </TTGlyph>
    <TTGlyph name="florin" xMin="-151" yMin="-180" xMax="659" yMax="743">
      <contour>
        <pt x="534" y="388" on="1"/>
        <pt x="534" y="342" on="0"/>
        <pt x="458" y="342" on="1"/>
        <pt x="362" y="342" on="1"/>
        <pt x="302" y="36" on="1"/>
        <pt x="281" y="-72" on="0"/>
        <pt x="204" y="-128" on="1"/>
        <pt x="132" y="-180" on="0"/>
        <pt x="22" y="-180" on="1"/>
        <pt x="-54" y="-180" on="0"/>
        <pt x="-102" y="-155" on="1"/>
        <pt x="-151" y="-129" on="0"/>
        <pt x="-151" y="-42" on="0"/>
        <pt x="-102" y="0" on="0"/>
        <pt x="-48" y="0" on="1"/>
        <pt x="-20" y="0" on="0"/>
        <pt x="3" y="-13" on="1"/>
        <pt x="-14" y="-43" on="0"/>
        <pt x="-14" y="-96" on="0"/>
        <pt x="1" y="-116" on="0"/>
        <pt x="42" y="-116" on="0"/>
        <pt x="86" y="-44" on="0"/>
        <pt x="104" y="40" on="1"/>
        <pt x="167" y="342" on="1"/>
        <pt x="70" y="342" on="1"/>
        <pt x="65" y="357" on="0"/>
        <pt x="65" y="392" on="0"/>
        <pt x="102" y="417" on="0"/>
        <pt x="132" y="417" on="1"/>
        <pt x="183" y="417" on="1"/>
        <pt x="215" y="568" on="1"/>
        <pt x="232" y="650" on="0"/>
        <pt x="364" y="743" on="0"/>
        <pt x="486" y="743" on="1"/>
        <pt x="560" y="743" on="0"/>
        <pt x="609" y="714" on="1"/>
        <pt x="659" y="685" on="0"/>
        <pt x="659" y="645" on="1"/>
        <pt x="659" y="552" on="0"/>
        <pt x="549" y="552" on="1"/>
        <pt x="519" y="552" on="0"/>
        <pt x="498" y="565" on="1"/>
        <pt x="516" y="599" on="0"/>
        <pt x="516" y="626" on="1"/>
        <pt x="516" y="679" on="0"/>
        <pt x="481" y="679" on="1"/>
        <pt x="458" y="679" on="0"/>
        <pt x="417" y="615" on="0"/>
        <pt x="406" y="564" on="1"/>
        <pt x="377" y="417" on="1"/>
        <pt x="528" y="417" on="1"/>
        <pt x="534" y="402" on="0"/>
      </contour>
    </TTGlyph>
    <TTGlyph name="four" xMin="-7" yMin="-20" xMax="529" yMax="681">
      <contour>
        <pt x="518" y="263" on="1"/>
        <pt x="529" y="242" on="0"/>
        <pt x="529" y="160" on="0"/>
        <pt x="468" y="103" on="0"/>
        <pt x="401" y="103" on="1"/>
        <pt x="395" y="103" on="1"/>
        <pt x="379" y="0" on="1"/>
        <pt x="352" y="-20" on="0"/>
        <pt x="304" y="-20" on="1"/>
        <pt x="242" y="-20" on="0"/>
        <pt x="222" y="18" on="1"/>
        <pt x="214" y="32" on="0"/>
        <pt x="214" y="44" on="1"/>
        <pt x="214" y="58" on="0"/>
        <pt x="216" y="74" on="1"/>
        <pt x="223" y="112" on="1"/>
        <pt x="-7" y="136" on="1"/>
        <pt x="-7" y="262" on="1"/>
        <pt x="367" y="681" on="1"/>
        <pt x="367" y="680" on="1"/>
        <pt x="368" y="681" on="1"/>
        <pt x="507" y="666" on="1"/>
        <pt x="460" y="474" on="0"/>
        <pt x="420" y="253" on="1"/>
        <pt x="443" y="253" on="1"/>
        <pt x="500" y="253" on="0"/>
      </contour>
      <contour>
        <pt x="100" y="260" on="1"/>
        <pt x="251" y="255" on="1"/>
        <pt x="284" y="402" on="0"/>
        <pt x="317" y="513" on="1"/>
      </contour>
    </TTGlyph>
    <TTGlyph name="fraction" xMin="-68" yMin="-91" xMax="341" yMax="720">
      <contour>
        <pt x="-68" y="-62" on="1"/>
        <pt x="-68" y="-52" on="0"/>
        <pt x="-62" y="-37" on="1"/>
        <pt x="265" y="718" on="1"/>
        <pt x="275" y="720" on="0"/>
        <pt x="316" y="720" on="0"/>
        <pt x="341" y="709" on="0"/>
        <pt x="341" y="677" on="0"/>
        <pt x="332" y="652" on="1"/>
        <pt x="9" y="-88" on="1"/>
        <pt x="3" y="-91" on="0"/>
        <pt x="-22" y="-91" on="1"/>
        <pt x="-68" y="-91" on="0"/>
      </contour>
    </TTGlyph>
    <TTGlyph name="g" xMin="-34" yMin="-200" xMax="577" yMax="530">
      <contour>
        <pt x="122" y="466" on="0"/>
        <pt x="225" y="530" on="0"/>
        <pt x="351" y="530" on="0"/>
        <pt x="381" y="510" on="1"/>
        <pt x="577" y="530" on="1"/>
        <pt x="509" y="146" on="1"/>
        <pt x="474" y="-50" on="0"/>
        <pt x="400" y="-127" on="1"/>
        <pt x="329" y="-200" on="0"/>
        <pt x="191" y="-200" on="1"/>
        <pt x="86" y="-200" on="0"/>
        <pt x="-34" y="-134" on="0"/>
        <pt x="-34" y="-79" on="1"/>
        <pt x="-34" y="-38" on="0"/>
        <pt x="28" y="9" on="0"/>
        <pt x="76" y="9" on="1"/>
        <pt x="118" y="9" on="0"/>
        <pt x="150" y="-10" on="1"/>
        <pt x="169" y="-20" on="0"/>
        <pt x="178" y="-34" on="1"/>
        <pt x="155" y="-54" on="0"/>
        <pt x="155" y="-87" on="1"/>
        <pt x="155" y="-130" on="0"/>
        <pt x="195" y="-130" on="1"/>
        <pt x="262" y="-130" on="0"/>
        <pt x="300" y="28" on="1"/>
        <pt x="311" y="71" on="0"/>
        <pt x="320" y="114" on="1"/>
        <pt x="275" y="59" on="0"/>
        <pt x="173" y="59" on="1"/>
        <pt x="102" y="59" on="0"/>
        <pt x="20" y="127" on="0"/>
        <pt x="20" y="207" on="1"/>
        <pt x="20" y="257" on="0"/>
        <pt x="54" y="370" on="0"/>
      </contour>
      <contour>
        <pt x="218" y="204" on="1"/>
        <pt x="218" y="136" on="0"/>
        <pt x="253" y="136" on="1"/>
        <pt x="277" y="136" on="0"/>
        <pt x="300" y="162" on="1"/>
        <pt x="318" y="183" on="0"/>
        <pt x="325" y="214" on="1"/>
        <pt x="376" y="471" on="1"/>
        <pt x="371" y="472" on="0"/>
        <pt x="366" y="474" on="1"/>
        <pt x="356" y="478" on="0"/>
        <pt x="343" y="478" on="1"/>
        <pt x="282" y="478" on="0"/>
        <pt x="246" y="378" on="1"/>
        <pt x="218" y="300" on="0"/>
      </contour>
    </TTGlyph>
    <TTGlyph name="germandbls" xMin="-130" yMin="-188" xMax="717" yMax="761">
      <contour>
        <pt x="-130" y="-128" on="1"/>
        <pt x="-87" y="-128" on="0"/>
        <pt x="-16" y="-43" on="0"/>
        <pt x="0" y="29" on="1"/>
        <pt x="109" y="560" on="1"/>
        <pt x="128" y="659" on="0"/>
        <pt x="282" y="761" on="0"/>
        <pt x="410" y="761" on="1"/>
        <pt x="507" y="761" on="0"/>
        <pt x="568" y="723" on="1"/>
        <pt x="627" y="685" on="0"/>
        <pt x="627" y="625" on="1"/>
        <pt x="627" y="585" on="0"/>
        <pt x="584" y="533" on="0"/>
        <pt x="531" y="488" on="0"/>
        <pt x="488" y="443" on="0"/>
        <pt x="488" y="411" on="1"/>
        <pt x="488" y="394" on="0"/>
        <pt x="522" y="368" on="0"/>
        <pt x="548" y="352" on="1"/>
        <pt x="618" y="308" on="1"/>
        <pt x="672" y="275" on="0"/>
        <pt x="717" y="217" on="0"/>
        <pt x="717" y="138" on="0"/>
        <pt x="675" y="64" on="0"/>
        <pt x="638" y="37" on="1"/>
        <pt x="560" y="-20" on="0"/>
        <pt x="441" y="-20" on="1"/>
        <pt x="376" y="-20" on="0"/>
        <pt x="279" y="47" on="0"/>
        <pt x="279" y="129" on="0"/>
        <pt x="335" y="179" on="0"/>
        <pt x="420" y="179" on="0"/>
        <pt x="446" y="163" on="1"/>
        <pt x="433" y="134" on="0"/>
        <pt x="433" y="75" on="1"/>
        <pt x="436" y="29" on="0"/>
        <pt x="471" y="29" on="1"/>
        <pt x="497" y="29" on="0"/>
        <pt x="513" y="42" on="1"/>
        <pt x="539" y="64" on="0"/>
        <pt x="539" y="115" on="0"/>
        <pt x="503" y="161" on="0"/>
        <pt x="430" y="208" on="0"/>
        <pt x="381" y="253" on="0"/>
        <pt x="363" y="276" on="1"/>
        <pt x="324" y="326" on="0"/>
        <pt x="324" y="391" on="0"/>
        <pt x="345" y="438" on="0"/>
        <pt x="377" y="480" on="0"/>
        <pt x="415" y="520" on="0"/>
        <pt x="431" y="542" on="1"/>
        <pt x="468" y="591" on="0"/>
        <pt x="468" y="641" on="1"/>
        <pt x="468" y="673" on="0"/>
        <pt x="432" y="716" on="0"/>
        <pt x="389" y="716" on="0"/>
        <pt x="357" y="692" on="0"/>
        <pt x="343" y="671" on="1"/>
        <pt x="314" y="628" on="0"/>
        <pt x="300" y="556" on="1"/>
        <pt x="198" y="28" on="1"/>
        <pt x="176" y="-87" on="0"/>
        <pt x="125" y="-138" on="1"/>
        <pt x="75" y="-188" on="0"/>
        <pt x="-98" y="-188" on="0"/>
      </contour>
    </TTGlyph>
    <TTGlyph name="grave" xMin="-46" yMin="539" xMax="226" yMax="733">
      <contour>
        <pt x="-34" y="625" on="1"/>
        <pt x="-46" y="643" on="0"/>
        <pt x="-46" y="666" on="1"/>
        <pt x="-46" y="719" on="0"/>
        <pt x="-10" y="733" on="1"/>
        <pt x="226" y="587" on="1"/>
        <pt x="205" y="539" on="1"/>
        <pt x="82" y="562" on="1"/>
        <pt x="-2" y="577" on="0"/>
      </contour>
    </TTGlyph>
    <TTGlyph name="greater" xMin="-20" yMin="6" xMax="300" yMax="467">
      <contour>
        <pt x="-20" y="41" on="1"/>
        <pt x="46" y="106" on="1"/>
        <pt x="164" y="229" on="1"/>
        <pt x="98" y="318" on="1"/>
        <pt x="83" y="337" on="0"/>
        <pt x="59" y="369" on="0"/>
        <pt x="59" y="401" on="0"/>
        <pt x="69" y="429" on="0"/>
        <pt x="80" y="440" on="1"/>
        <pt x="103" y="465" on="0"/>
        <pt x="143" y="467" on="1"/>
        <pt x="300" y="242" on="1"/>
        <pt x="102" y="38" on="1"/>
        <pt x="70" y="6" on="0"/>
        <pt x="30" y="6" on="1"/>
        <pt x="15" y="6" on="0"/>
        <pt x="-14" y="24" on="0"/>
      </contour>
    </TTGlyph>
    <TTGlyph name="greaterequal" xMin="-22" yMin="0" xMax="364" yMax="462">
      <contour>
        <pt x="-18" y="0" on="1"/>
        <pt x="-22" y="15" on="0"/>
        <pt x="-22" y="60" on="0"/>
        <pt x="15" y="92" on="0"/>
        <pt x="47" y="92" on="1"/>
        <pt x="339" y="92" on="1"/>
        <pt x="344" y="74" on="0"/>
        <pt x="344" y="33" on="0"/>
        <pt x="307" y="0" on="0"/>
        <pt x="266" y="0" on="1"/>
      </contour>
      <contour>
        <pt x="36" y="167" on="1"/>
        <pt x="211" y="284" on="1"/>
        <pt x="108" y="364" on="1"/>
        <pt x="88" y="378" on="0"/>
        <pt x="88" y="395" on="1"/>
        <pt x="88" y="425" on="0"/>
        <pt x="144" y="462" on="1"/>
        <pt x="364" y="284" on="1"/>
        <pt x="173" y="150" on="1"/>
        <pt x="148" y="133" on="0"/>
        <pt x="117" y="123" on="0"/>
        <pt x="81" y="123" on="0"/>
        <pt x="46" y="150" on="0"/>
      </contour>
    </TTGlyph>
    <TTGlyph name="guillemotleft" xMin="24" yMin="126" xMax="540" yMax="510">
      <contour>
        <pt x="24" y="317" on="1"/>
        <pt x="191" y="510" on="1"/>
        <pt x="311" y="510" on="1"/>
        <pt x="188" y="317" on="1"/>
        <pt x="236" y="126" on="1"/>
        <pt x="119" y="126" on="1"/>
      </contour>
      <contour>
        <pt x="253" y="317" on="1"/>
        <pt x="420" y="510" on="1"/>
        <pt x="540" y="510" on="1"/>
        <pt x="417" y="317" on="1"/>
        <pt x="465" y="126" on="1"/>
        <pt x="348" y="126" on="1"/>
      </contour>
    </TTGlyph>
    <TTGlyph name="guillemotright" xMin="-1" yMin="126" xMax="511" yMax="510">
      <contour>
        <pt x="-1" y="126" on="1"/>
        <pt x="118" y="317" on="1"/>
        <pt x="67" y="510" on="1"/>
        <pt x="187" y="510" on="1"/>
        <pt x="282" y="317" on="1"/>
        <pt x="116" y="126" on="1"/>
      </contour>
      <contour>
        <pt x="228" y="126" on="1"/>
        <pt x="347" y="317" on="1"/>
        <pt x="296" y="510" on="1"/>
        <pt x="416" y="510" on="1"/>
        <pt x="511" y="317" on="1"/>
        <pt x="345" y="126" on="1"/>
      </contour>
    </TTGlyph>
    <TTGlyph name="guilsinglleft" xMin="24" yMin="126" xMax="311" yMax="510">
      <contour>
        <pt x="24" y="317" on="1"/>
        <pt x="191" y="510" on="1"/>
        <pt x="311" y="510" on="1"/>
        <pt x="188" y="317" on="1"/>
        <pt x="236" y="126" on="1"/>
        <pt x="119" y="126" on="1"/>
      </contour>
    </TTGlyph>
    <TTGlyph name="guilsinglright" xMin="-1" yMin="126" xMax="282" yMax="510">
      <contour>
        <pt x="-1" y="126" on="1"/>
        <pt x="118" y="317" on="1"/>
        <pt x="67" y="510" on="1"/>
        <pt x="187" y="510" on="1"/>
        <pt x="282" y="317" on="1"/>
        <pt x="116" y="126" on="1"/>
      </contour>
    </TTGlyph>
    <TTGlyph name="h" xMin="-8" yMin="-21" xMax="569" yMax="720">
      <contour>
        <pt x="520" y="111" on="1"/>
        <pt x="520" y="67" on="0"/>
        <pt x="565" y="54" on="1"/>
        <pt x="554" y="17" on="0"/>
        <pt x="511" y="-3" on="1"/>
        <pt x="475" y="-20" on="0"/>
        <pt x="396" y="-20" on="0"/>
        <pt x="355" y="1" on="0"/>
        <pt x="344" y="18" on="1"/>
        <pt x="326" y="44" on="0"/>
        <pt x="326" y="93" on="1"/>
        <pt x="326" y="122" on="0"/>
        <pt x="342" y="202" on="1"/>
        <pt x="356" y="278" on="1"/>
        <pt x="373" y="365" on="0"/>
        <pt x="373" y="397" on="1"/>
        <pt x="373" y="453" on="0"/>
        <pt x="342" y="453" on="1"/>
        <pt x="303" y="453" on="0"/>
        <pt x="278" y="396" on="1"/>
        <pt x="268" y="374" on="0"/>
        <pt x="261" y="341" on="1"/>
        <pt x="193" y="0" on="1"/>
        <pt x="-8" y="-20" on="1"/>
        <pt x="133" y="700" on="1"/>
        <pt x="334" y="720" on="1"/>
        <pt x="326" y="680" on="1"/>
        <pt x="298" y="526" on="0"/>
        <pt x="274" y="474" on="1"/>
        <pt x="330" y="530" on="0"/>
        <pt x="433" y="530" on="1"/>
        <pt x="542" y="530" on="0"/>
        <pt x="562" y="458" on="1"/>
        <pt x="569" y="435" on="0"/>
        <pt x="569" y="395" on="0"/>
        <pt x="566" y="364" on="0"/>
        <pt x="561" y="336" on="1"/>
        <pt x="548" y="264" on="1"/>
        <pt x="525" y="151" on="1"/>
        <pt x="520" y="128" on="0"/>
      </contour>
    </TTGlyph>
    <TTGlyph name="hungarumlaut" xMin="-38" yMin="541" xMax="383" yMax="789">
      <contour>
        <pt x="-38" y="568" on="1"/>
        <pt x="121" y="789" on="1"/>
        <pt x="148" y="781" on="0"/>
        <pt x="182" y="733" on="0"/>
        <pt x="182" y="699" on="1"/>
        <pt x="182" y="637" on="0"/>
        <pt x="102" y="593" on="1"/>
        <pt x="8" y="541" on="1"/>
      </contour>
      <contour>
        <pt x="163" y="568" on="1"/>
        <pt x="322" y="789" on="1"/>
        <pt x="349" y="781" on="0"/>
        <pt x="383" y="733" on="0"/>
        <pt x="383" y="700" on="1"/>
        <pt x="383" y="637" on="0"/>
        <pt x="303" y="593" on="1"/>
        <pt x="209" y="541" on="1"/>
      </contour>
    </TTGlyph>
    <TTGlyph name="hyphen" xMin="22" yMin="162" xMax="340" yMax="315">
      <contour>
        <pt x="54" y="162" on="1"/>
        <pt x="22" y="185" on="0"/>
        <pt x="22" y="229" on="1"/>
        <pt x="22" y="253" on="0"/>
        <pt x="46" y="292" on="0"/>
        <pt x="70" y="295" on="1"/>
        <pt x="267" y="295" on="1"/>
        <pt x="300" y="295" on="0"/>
        <pt x="310" y="315" on="1"/>
        <pt x="326" y="306" on="0"/>
        <pt x="340" y="268" on="0"/>
        <pt x="340" y="228" on="0"/>
        <pt x="309" y="189" on="0"/>
        <pt x="286" y="187" on="1"/>
        <pt x="103" y="187" on="1"/>
        <pt x="82" y="187" on="0"/>
        <pt x="62" y="174" on="0"/>
      </contour>
    </TTGlyph>
    <TTGlyph name="i" xMin="17" yMin="-20" xMax="325" yMax="730">
      <contour>
        <pt x="257" y="55" on="1"/>
        <pt x="226" y="-20" on="0"/>
        <pt x="127" y="-20" on="1"/>
        <pt x="76" y="-20" on="0"/>
        <pt x="44" y="15" on="1"/>
        <pt x="17" y="46" on="0"/>
        <pt x="17" y="77" on="1"/>
        <pt x="17" y="158" on="0"/>
        <pt x="54" y="316" on="1"/>
        <pt x="91" y="510" on="1"/>
        <pt x="294" y="530" on="1"/>
        <pt x="233" y="214" on="1"/>
        <pt x="216" y="140" on="0"/>
        <pt x="216" y="114" on="1"/>
        <pt x="216" y="57" on="0"/>
      </contour>
      <contour>
        <pt x="109" y="649" on="1"/>
        <pt x="109" y="688" on="0"/>
        <pt x="174" y="730" on="0"/>
        <pt x="221" y="730" on="1"/>
        <pt x="268" y="730" on="0"/>
        <pt x="325" y="688" on="0"/>
        <pt x="325" y="649" on="1"/>
        <pt x="325" y="610" on="0"/>
        <pt x="262" y="570" on="0"/>
        <pt x="215" y="570" on="1"/>
        <pt x="168" y="570" on="0"/>
        <pt x="109" y="610" on="0"/>
      </contour>
    </TTGlyph>
    <TTGlyph name="iacute" xMin="17" yMin="-20" xMax="361" yMax="769">
      <component glyphName="dotlessi" x="0" y="0" flags="0x1204"/>
      <component glyphName="acute" x="125" y="33" flags="0x1004"/>
    </TTGlyph>
    <TTGlyph name="icircumflex" xMin="17" yMin="-20" xMax="344" yMax="766">
      <contour>
        <pt x="255" y="55" on="1"/>
        <pt x="224" y="-20" on="0"/>
        <pt x="125" y="-20" on="1"/>
        <pt x="75" y="-20" on="0"/>
        <pt x="44" y="15" on="1"/>
        <pt x="17" y="44" on="0"/>
        <pt x="17" y="77" on="1"/>
        <pt x="17" y="158" on="0"/>
        <pt x="54" y="316" on="1"/>
        <pt x="91" y="510" on="1"/>
        <pt x="292" y="530" on="1"/>
        <pt x="231" y="214" on="1"/>
        <pt x="214" y="140" on="0"/>
        <pt x="214" y="114" on="1"/>
        <pt x="214" y="57" on="0"/>
      </contour>
      <contour>
        <pt x="68" y="619" on="1"/>
        <pt x="222" y="766" on="1"/>
        <pt x="344" y="619" on="1"/>
        <pt x="303" y="573" on="1"/>
        <pt x="211" y="645" on="1"/>
        <pt x="93" y="573" on="1"/>
      </contour>
    </TTGlyph>
    <TTGlyph name="idieresis" xMin="17" yMin="-20" xMax="408" yMax="720">
      <contour>
        <pt x="255" y="55" on="1"/>
        <pt x="224" y="-20" on="0"/>
        <pt x="125" y="-20" on="1"/>
        <pt x="75" y="-20" on="0"/>
        <pt x="44" y="15" on="1"/>
        <pt x="17" y="44" on="0"/>
        <pt x="17" y="77" on="1"/>
        <pt x="17" y="158" on="0"/>
        <pt x="54" y="316" on="1"/>
        <pt x="91" y="510" on="1"/>
        <pt x="292" y="530" on="1"/>
        <pt x="231" y="214" on="1"/>
        <pt x="214" y="140" on="0"/>
        <pt x="214" y="114" on="1"/>
        <pt x="214" y="57" on="0"/>
      </contour>
      <contour>
        <pt x="38" y="655" on="1"/>
        <pt x="38" y="687" on="0"/>
        <pt x="90" y="720" on="0"/>
        <pt x="164" y="720" on="0"/>
        <pt x="210" y="687" on="0"/>
        <pt x="210" y="655" on="1"/>
        <pt x="210" y="623" on="0"/>
        <pt x="160" y="591" on="0"/>
        <pt x="85" y="591" on="0"/>
        <pt x="38" y="623" on="0"/>
      </contour>
      <contour>
        <pt x="237" y="655" on="1"/>
        <pt x="237" y="687" on="0"/>
        <pt x="288" y="720" on="0"/>
        <pt x="326" y="720" on="1"/>
        <pt x="364" y="720" on="0"/>
        <pt x="408" y="687" on="0"/>
        <pt x="408" y="655" on="1"/>
        <pt x="408" y="623" on="0"/>
        <pt x="358" y="591" on="0"/>
        <pt x="284" y="591" on="0"/>
        <pt x="237" y="623" on="0"/>
      </contour>
    </TTGlyph>
    <TTGlyph name="igrave" xMin="17" yMin="-20" xMax="354" yMax="766">
      <component glyphName="dotlessi" x="0" y="0" flags="0x1204"/>
      <component glyphName="grave" x="128" y="33" flags="0x1004"/>
    </TTGlyph>
    <TTGlyph name="infinity" xMin="21" yMin="116" xMax="651" yMax="460">
      <contour>
        <pt x="357" y="352" on="1"/>
        <pt x="441" y="460" on="0"/>
        <pt x="534" y="460" on="1"/>
        <pt x="595" y="460" on="0"/>
        <pt x="651" y="390" on="0"/>
        <pt x="651" y="299" on="0"/>
        <pt x="622" y="221" on="0"/>
        <pt x="596" y="189" on="1"/>
        <pt x="538" y="116" on="0"/>
        <pt x="459" y="116" on="1"/>
        <pt x="417" y="116" on="0"/>
        <pt x="344" y="167" on="0"/>
        <pt x="312" y="232" on="1"/>
        <pt x="272" y="173" on="0"/>
        <pt x="189" y="116" on="0"/>
        <pt x="89" y="116" on="0"/>
        <pt x="21" y="183" on="0"/>
        <pt x="21" y="237" on="1"/>
        <pt x="21" y="273" on="0"/>
        <pt x="51" y="352" on="0"/>
        <pt x="78" y="385" on="1"/>
        <pt x="139" y="460" on="0"/>
        <pt x="224" y="460" on="1"/>
        <pt x="271" y="460" on="0"/>
        <pt x="331" y="403" on="0"/>
      </contour>
      <contour>
        <pt x="114" y="235" on="1"/>
        <pt x="140" y="202" on="0"/>
        <pt x="214" y="202" on="0"/>
        <pt x="271" y="244" on="0"/>
        <pt x="293" y="270" on="1"/>
        <pt x="269" y="321" on="0"/>
        <pt x="253" y="337" on="1"/>
        <pt x="223" y="370" on="0"/>
        <pt x="147" y="370" on="0"/>
        <pt x="100" y="321" on="0"/>
        <pt x="100" y="252" on="0"/>
      </contour>
      <contour>
        <pt x="381" y="311" on="1"/>
        <pt x="443" y="209" on="0"/>
        <pt x="501" y="209" on="1"/>
        <pt x="531" y="209" on="0"/>
        <pt x="552" y="238" on="1"/>
        <pt x="571" y="264" on="0"/>
        <pt x="571" y="326" on="0"/>
        <pt x="534" y="375" on="0"/>
        <pt x="465" y="375" on="0"/>
        <pt x="413" y="350" on="0"/>
      </contour>
    </TTGlyph>
    <TTGlyph name="integral" xMin="-83" yMin="-180" xMax="591" yMax="743">
      <contour>
        <pt x="459" y="565" on="1"/>
        <pt x="482" y="605" on="0"/>
        <pt x="482" y="661" on="0"/>
        <pt x="466" y="679" on="0"/>
        <pt x="431" y="679" on="0"/>
        <pt x="395" y="613" on="0"/>
        <pt x="386" y="564" on="1"/>
        <pt x="280" y="0" on="1"/>
        <pt x="264" y="-83" on="0"/>
        <pt x="146" y="-180" on="0"/>
        <pt x="53" y="-180" on="1"/>
        <pt x="-5" y="-180" on="0"/>
        <pt x="-83" y="-134" on="0"/>
        <pt x="-83" y="-47" on="0"/>
        <pt x="-43" y="0" on="0"/>
        <pt x="3" y="0" on="1"/>
        <pt x="32" y="0" on="0"/>
        <pt x="49" y="-13" on="1"/>
        <pt x="25" y="-42" on="0"/>
        <pt x="25" y="-116" on="0"/>
        <pt x="58" y="-116" on="1"/>
        <pt x="81" y="-116" on="0"/>
        <pt x="114" y="-50" on="0"/>
        <pt x="123" y="-1" on="1"/>
        <pt x="233" y="568" on="1"/>
        <pt x="249" y="651" on="0"/>
        <pt x="363" y="743" on="0"/>
        <pt x="456" y="743" on="1"/>
        <pt x="514" y="743" on="0"/>
        <pt x="591" y="687" on="0"/>
        <pt x="591" y="643" on="1"/>
        <pt x="591" y="599" on="0"/>
        <pt x="552" y="552" on="0"/>
        <pt x="505" y="552" on="1"/>
        <pt x="476" y="552" on="0"/>
      </contour>
    </TTGlyph>
    <TTGlyph name="j" xMin="-122" yMin="-180" xMax="329" yMax="730">
      <contour>
        <pt x="-122" y="-119" on="1"/>
        <pt x="-70" y="-115" on="0"/>
        <pt x="-32" y="-50" on="1"/>
        <pt x="-3" y="0" on="0"/>
        <pt x="16" y="92" on="1"/>
        <pt x="97" y="510" on="1"/>
        <pt x="298" y="530" on="1"/>
        <pt x="213" y="92" on="1"/>
        <pt x="180" y="-75" on="0"/>
        <pt x="129" y="-130" on="1"/>
        <pt x="102" y="-160" on="0"/>
        <pt x="32" y="-180" on="0"/>
        <pt x="-8" y="-180" on="1"/>
        <pt x="-92" y="-180" on="0"/>
      </contour>
      <contour>
        <pt x="113" y="649" on="1"/>
        <pt x="113" y="688" on="0"/>
        <pt x="178" y="730" on="0"/>
        <pt x="225" y="730" on="1"/>
        <pt x="272" y="730" on="0"/>
        <pt x="329" y="688" on="0"/>
        <pt x="329" y="649" on="1"/>
        <pt x="329" y="610" on="0"/>
        <pt x="266" y="570" on="0"/>
        <pt x="219" y="570" on="1"/>
        <pt x="172" y="570" on="0"/>
        <pt x="113" y="610" on="0"/>
      </contour>
    </TTGlyph>
    <TTGlyph name="k" xMin="-8" yMin="-21" xMax="575" yMax="720">
      <contour>
        <pt x="275" y="474" on="1"/>
        <pt x="329" y="530" on="0"/>
        <pt x="443" y="530" on="1"/>
        <pt x="506" y="530" on="0"/>
        <pt x="575" y="463" on="0"/>
        <pt x="575" y="340" on="0"/>
        <pt x="506" y="253" on="0"/>
        <pt x="442" y="235" on="1"/>
        <pt x="447" y="215" on="0"/>
        <pt x="454" y="194" on="1"/>
        <pt x="468" y="154" on="1"/>
        <pt x="487" y="103" on="0"/>
        <pt x="517" y="67" on="0"/>
        <pt x="537" y="61" on="1"/>
        <pt x="526" y="20" on="0"/>
        <pt x="486" y="-2" on="1"/>
        <pt x="454" y="-20" on="0"/>
        <pt x="410" y="-20" on="1"/>
        <pt x="281" y="-20" on="0"/>
        <pt x="264" y="179" on="1"/>
        <pt x="261" y="207" on="0"/>
        <pt x="261" y="235" on="1"/>
        <pt x="311" y="249" on="0"/>
        <pt x="346" y="296" on="1"/>
        <pt x="381" y="343" on="0"/>
        <pt x="381" y="453" on="0"/>
        <pt x="342" y="453" on="1"/>
        <pt x="314" y="453" on="0"/>
        <pt x="270" y="391" on="0"/>
        <pt x="260" y="338" on="1"/>
        <pt x="194" y="0" on="1"/>
        <pt x="-8" y="-20" on="1"/>
        <pt x="132" y="700" on="1"/>
        <pt x="333" y="720" on="1"/>
        <pt x="310" y="601" on="1"/>
        <pt x="295" y="517" on="0"/>
      </contour>
    </TTGlyph>
    <TTGlyph name="l" xMin="18" yMin="-20" xMax="329" yMax="720">
      <contour>
        <pt x="256" y="55" on="1"/>
        <pt x="225" y="-20" on="0"/>
        <pt x="126" y="-20" on="1"/>
        <pt x="76" y="-20" on="0"/>
        <pt x="44" y="15" on="1"/>
        <pt x="18" y="44" on="0"/>
        <pt x="18" y="77" on="1"/>
        <pt x="18" y="152" on="0"/>
        <pt x="53" y="316" on="1"/>
        <pt x="126" y="700" on="1"/>
        <pt x="329" y="720" on="1"/>
        <pt x="232" y="214" on="1"/>
        <pt x="215" y="140" on="0"/>
        <pt x="215" y="114" on="1"/>
        <pt x="215" y="57" on="0"/>
      </contour>
    </TTGlyph>
    <TTGlyph name="less" xMin="10" yMin="5" xMax="330" yMax="466">
      <contour>
        <pt x="10" y="230" on="1"/>
        <pt x="208" y="434" on="1"/>
        <pt x="240" y="466" on="0"/>
        <pt x="280" y="466" on="1"/>
        <pt x="295" y="466" on="0"/>
        <pt x="324" y="448" on="0"/>
        <pt x="330" y="431" on="1"/>
        <pt x="293" y="395" on="1"/>
        <pt x="146" y="243" on="1"/>
        <pt x="239" y="118" on="1"/>
        <pt x="251" y="103" on="0"/>
        <pt x="251" y="70" on="0"/>
        <pt x="241" y="43" on="0"/>
        <pt x="230" y="32" on="1"/>
        <pt x="208" y="7" on="0"/>
        <pt x="167" y="5" on="1"/>
      </contour>
    </TTGlyph>
    <TTGlyph name="lessequal" xMin="-6" yMin="0" xMax="360" yMax="459">
      <contour>
        <pt x="-2" y="0" on="1"/>
        <pt x="-6" y="15" on="0"/>
        <pt x="-6" y="60" on="0"/>
        <pt x="31" y="92" on="0"/>
        <pt x="63" y="92" on="1"/>
        <pt x="355" y="92" on="1"/>
        <pt x="360" y="74" on="0"/>
        <pt x="360" y="33" on="0"/>
        <pt x="323" y="0" on="0"/>
        <pt x="282" y="0" on="1"/>
      </contour>
      <contour>
        <pt x="28" y="298" on="1"/>
        <pt x="219" y="432" on="1"/>
        <pt x="244" y="449" on="0"/>
        <pt x="275" y="459" on="0"/>
        <pt x="311" y="459" on="0"/>
        <pt x="346" y="432" on="0"/>
        <pt x="356" y="415" on="1"/>
        <pt x="181" y="298" on="1"/>
        <pt x="286" y="208" on="1"/>
        <pt x="306" y="194" on="0"/>
        <pt x="306" y="177" on="1"/>
        <pt x="306" y="147" on="0"/>
        <pt x="250" y="110" on="1"/>
      </contour>
    </TTGlyph>
    <TTGlyph name="logicalnot" xMin="12" yMin="-3" xMax="480" yMax="292">
      <contour>
        <pt x="12" y="218" on="1"/>
        <pt x="12" y="251" on="0"/>
        <pt x="54" y="292" on="0"/>
        <pt x="86" y="292" on="1"/>
        <pt x="480" y="292" on="1"/>
        <pt x="425" y="1" on="1"/>
        <pt x="417" y="-3" on="0"/>
        <pt x="344" y="-3" on="0"/>
        <pt x="318" y="22" on="0"/>
        <pt x="318" y="58" on="0"/>
        <pt x="320" y="68" on="1"/>
        <pt x="323" y="92" on="1"/>
        <pt x="341" y="190" on="1"/>
        <pt x="16" y="190" on="1"/>
        <pt x="12" y="203" on="0"/>
      </contour>
    </TTGlyph>
    <TTGlyph name="lozenge" xMin="26" yMin="0" xMax="600" yMax="660">
      <contour>
        <pt x="26" y="330" on="1"/>
        <pt x="302" y="660" on="1"/>
        <pt x="483" y="660" on="1"/>
        <pt x="600" y="328" on="1"/>
        <pt x="324" y="0" on="1"/>
        <pt x="143" y="0" on="1"/>
      </contour>
      <contour>
        <pt x="191" y="382" on="1"/>
        <pt x="284" y="91" on="1"/>
        <pt x="434" y="276" on="1"/>
        <pt x="342" y="568" on="1"/>
      </contour>
    </TTGlyph>
    <TTGlyph name="lslash" xMin="-17" yMin="-20" xMax="396" yMax="720">
      <contour>
        <pt x="4" y="217" on="1"/>
        <pt x="-17" y="236" on="0"/>
        <pt x="-17" y="259" on="1"/>
        <pt x="-17" y="305" on="0"/>
        <pt x="28" y="322" on="1"/>
        <pt x="377" y="451" on="1"/>
        <pt x="396" y="435" on="0"/>
        <pt x="396" y="400" on="1"/>
        <pt x="396" y="357" on="0"/>
        <pt x="326" y="333" on="1"/>
      </contour>
      <contour>
        <pt x="294" y="55" on="1"/>
        <pt x="263" y="-20" on="0"/>
        <pt x="164" y="-20" on="1"/>
        <pt x="114" y="-20" on="0"/>
        <pt x="82" y="15" on="1"/>
        <pt x="56" y="44" on="0"/>
        <pt x="56" y="77" on="1"/>
        <pt x="56" y="152" on="0"/>
        <pt x="91" y="316" on="1"/>
        <pt x="164" y="700" on="1"/>
        <pt x="367" y="720" on="1"/>
        <pt x="270" y="214" on="1"/>
        <pt x="253" y="140" on="0"/>
        <pt x="253" y="114" on="1"/>
        <pt x="253" y="57" on="0"/>
      </contour>
    </TTGlyph>
    <TTGlyph name="m" xMin="-8" yMin="-20" xMax="861" yMax="530">
      <contour>
        <pt x="737" y="-20" on="1"/>
        <pt x="616" y="-20" on="0"/>
        <pt x="616" y="74" on="1"/>
        <pt x="616" y="115" on="0"/>
        <pt x="651" y="274" on="0"/>
        <pt x="657" y="306" on="1"/>
        <pt x="671" y="379" on="0"/>
        <pt x="671" y="402" on="1"/>
        <pt x="671" y="453" on="0"/>
        <pt x="633" y="453" on="1"/>
        <pt x="608" y="453" on="0"/>
        <pt x="560" y="384" on="0"/>
        <pt x="549" y="315" on="1"/>
        <pt x="487" y="0" on="1"/>
        <pt x="292" y="-20" on="1"/>
        <pt x="346" y="252" on="1"/>
        <pt x="355" y="297" on="0"/>
        <pt x="371" y="399" on="0"/>
        <pt x="371" y="407" on="1"/>
        <pt x="371" y="453" on="0"/>
        <pt x="337" y="453" on="1"/>
        <pt x="314" y="453" on="0"/>
        <pt x="264" y="385" on="0"/>
        <pt x="250" y="315" on="1"/>
        <pt x="189" y="0" on="1"/>
        <pt x="-8" y="-20" on="1"/>
        <pt x="97" y="510" on="1"/>
        <pt x="260" y="530" on="1"/>
        <pt x="243" y="429" on="1"/>
        <pt x="269" y="483" on="0"/>
        <pt x="365" y="530" on="0"/>
        <pt x="440" y="530" on="1"/>
        <pt x="483" y="530" on="0"/>
        <pt x="539" y="488" on="0"/>
        <pt x="548" y="454" on="1"/>
        <pt x="565" y="489" on="0"/>
        <pt x="652" y="530" on="0"/>
        <pt x="759" y="530" on="0"/>
        <pt x="812" y="507" on="0"/>
        <pt x="828" y="488" on="1"/>
        <pt x="855" y="453" on="0"/>
        <pt x="855" y="389" on="1"/>
        <pt x="855" y="326" on="0"/>
        <pt x="828" y="195" on="1"/>
        <pt x="814" y="131" on="0"/>
        <pt x="814" y="84" on="0"/>
        <pt x="841" y="56" on="0"/>
        <pt x="861" y="54" on="1"/>
        <pt x="851" y="20" on="0"/>
        <pt x="782" y="-20" on="0"/>
      </contour>
    </TTGlyph>
    <TTGlyph name="macron" xMin="-36" yMin="618" xMax="276" yMax="710">
      <contour>
        <pt x="-34" y="618" on="1"/>
        <pt x="-37" y="628" on="0"/>
        <pt x="-35" y="675" on="0"/>
        <pt x="2" y="710" on="0"/>
        <pt x="31" y="710" on="1"/>
        <pt x="272" y="710" on="1"/>
        <pt x="276" y="698" on="0"/>
        <pt x="276" y="654" on="0"/>
        <pt x="238" y="618" on="0"/>
        <pt x="200" y="618" on="1"/>
      </contour>
    </TTGlyph>
    <TTGlyph name="minus" xMin="38" yMin="190" xMax="468" yMax="292">
      <contour>
        <pt x="463" y="292" on="1"/>
        <pt x="468" y="272" on="0"/>
        <pt x="468" y="262" on="1"/>
        <pt x="468" y="230" on="0"/>
        <pt x="423" y="190" on="0"/>
        <pt x="385" y="190" on="1"/>
        <pt x="42" y="190" on="1"/>
        <pt x="38" y="203" on="0"/>
        <pt x="38" y="250" on="0"/>
        <pt x="78" y="292" on="0"/>
        <pt x="112" y="292" on="1"/>
      </contour>
    </TTGlyph>
    <TTGlyph name="mu" xMin="-22" yMin="-200" xMax="612" yMax="530">
      <contour>
        <pt x="352" y="42" on="1"/>
        <pt x="302" y="-20" on="0"/>
        <pt x="207" y="-20" on="1"/>
        <pt x="179" y="-180" on="1"/>
        <pt x="-22" y="-200" on="1"/>
        <pt x="97" y="425" on="1"/>
        <pt x="97" y="465" on="0"/>
        <pt x="57" y="465" on="1"/>
        <pt x="66" y="498" on="0"/>
        <pt x="118" y="520" on="1"/>
        <pt x="143" y="530" on="0"/>
        <pt x="209" y="530" on="0"/>
        <pt x="247" y="517" on="0"/>
        <pt x="262" y="506" on="1"/>
        <pt x="293" y="481" on="0"/>
        <pt x="293" y="439" on="1"/>
        <pt x="293" y="432" on="1"/>
        <pt x="293" y="429" on="0"/>
        <pt x="292" y="425" on="1"/>
        <pt x="232" y="108" on="1"/>
        <pt x="231" y="103" on="0"/>
        <pt x="231" y="94" on="1"/>
        <pt x="231" y="48" on="0"/>
        <pt x="271" y="48" on="1"/>
        <pt x="300" y="48" on="0"/>
        <pt x="339" y="118" on="0"/>
        <pt x="348" y="166" on="1"/>
        <pt x="412" y="510" on="1"/>
        <pt x="612" y="530" on="1"/>
        <pt x="537" y="140" on="1"/>
        <pt x="535" y="132" on="0"/>
        <pt x="535" y="124" on="1"/>
        <pt x="535" y="110" on="1"/>
        <pt x="535" y="68" on="0"/>
        <pt x="562" y="58" on="1"/>
        <pt x="569" y="55" on="0"/>
        <pt x="574" y="55" on="1"/>
        <pt x="574" y="33" on="0"/>
        <pt x="536" y="8" on="1"/>
        <pt x="495" y="-20" on="0"/>
        <pt x="453" y="-20" on="1"/>
        <pt x="397" y="-20" on="0"/>
        <pt x="367" y="13" on="1"/>
        <pt x="356" y="25" on="0"/>
      </contour>
    </TTGlyph>
    <TTGlyph name="multiply" xMin="-25" yMin="10" xMax="461" yMax="452">
      <contour>
        <pt x="-25" y="35" on="1"/>
        <pt x="159" y="223" on="1"/>
        <pt x="101" y="301" on="1"/>
        <pt x="88" y="319" on="0"/>
        <pt x="62" y="352" on="0"/>
        <pt x="62" y="406" on="0"/>
        <pt x="99" y="445" on="0"/>
        <pt x="132" y="452" on="1"/>
        <pt x="236" y="303" on="1"/>
        <pt x="348" y="418" on="1"/>
        <pt x="376" y="448" on="0"/>
        <pt x="449" y="448" on="0"/>
        <pt x="461" y="418" on="1"/>
        <pt x="388" y="345" on="1"/>
        <pt x="286" y="239" on="1"/>
        <pt x="304" y="213" on="0"/>
        <pt x="320" y="192" on="1"/>
        <pt x="350" y="153" on="1"/>
        <pt x="365" y="134" on="0"/>
        <pt x="388" y="101" on="0"/>
        <pt x="388" y="85" on="1"/>
        <pt x="388" y="53" on="0"/>
        <pt x="344" y="11" on="0"/>
        <pt x="309" y="10" on="1"/>
        <pt x="303" y="20" on="0"/>
        <pt x="295" y="32" on="1"/>
        <pt x="275" y="62" on="1"/>
        <pt x="207" y="158" on="1"/>
        <pt x="126" y="74" on="1"/>
        <pt x="94" y="39" on="1"/>
        <pt x="66" y="11" on="0"/>
        <pt x="-9" y="11" on="0"/>
      </contour>
    </TTGlyph>
    <TTGlyph name="n" xMin="-8" yMin="-20" xMax="564" yMax="530">
      <contour>
        <pt x="440" y="-20" on="1"/>
        <pt x="319" y="-20" on="0"/>
        <pt x="319" y="74" on="1"/>
        <pt x="320" y="100" on="0"/>
        <pt x="328" y="144" on="1"/>
        <pt x="346" y="236" on="1"/>
        <pt x="373" y="366" on="0"/>
        <pt x="373" y="395" on="1"/>
        <pt x="373" y="453" on="0"/>
        <pt x="339" y="453" on="1"/>
        <pt x="282" y="453" on="0"/>
        <pt x="252" y="304" on="1"/>
        <pt x="193" y="0" on="1"/>
        <pt x="-8" y="-20" on="1"/>
        <pt x="96" y="511" on="1"/>
        <pt x="260" y="530" on="1"/>
        <pt x="244" y="432" on="1"/>
        <pt x="291" y="530" on="0"/>
        <pt x="435" y="530" on="1"/>
        <pt x="505" y="530" on="0"/>
        <pt x="564" y="471" on="0"/>
        <pt x="564" y="405" on="1"/>
        <pt x="564" y="343" on="0"/>
        <pt x="532" y="198" on="1"/>
        <pt x="517" y="133" on="0"/>
        <pt x="517" y="84" on="0"/>
        <pt x="544" y="56" on="0"/>
        <pt x="564" y="54" on="1"/>
        <pt x="554" y="20" on="0"/>
        <pt x="485" y="-20" on="0"/>
      </contour>
    </TTGlyph>
    <TTGlyph name="nine" xMin="24" yMin="-20" xMax="548" yMax="683">
      <contour>
        <pt x="60" y="148" on="1"/>
        <pt x="90" y="109" on="0"/>
        <pt x="161" y="109" on="1"/>
        <pt x="254" y="109" on="0"/>
        <pt x="306" y="174" on="1"/>
        <pt x="341" y="219" on="0"/>
        <pt x="357" y="300" on="1"/>
        <pt x="331" y="257" on="0"/>
        <pt x="262" y="212" on="0"/>
        <pt x="166" y="212" on="0"/>
        <pt x="105" y="246" on="0"/>
        <pt x="86" y="274" on="1"/>
        <pt x="50" y="326" on="0"/>
        <pt x="50" y="474" on="0"/>
        <pt x="102" y="578" on="0"/>
        <pt x="144" y="613" on="1"/>
        <pt x="226" y="683" on="0"/>
        <pt x="335" y="683" on="1"/>
        <pt x="430" y="683" on="0"/>
        <pt x="488" y="621" on="1"/>
        <pt x="548" y="555" on="0"/>
        <pt x="548" y="437" on="1"/>
        <pt x="548" y="358" on="0"/>
        <pt x="494" y="196" on="0"/>
        <pt x="396" y="64" on="0"/>
        <pt x="262" y="-20" on="0"/>
        <pt x="110" y="-20" on="0"/>
        <pt x="24" y="28" on="0"/>
        <pt x="24" y="72" on="1"/>
        <pt x="24" y="120" on="0"/>
      </contour>
      <contour>
        <pt x="233" y="479" on="0"/>
        <pt x="226" y="424" on="0"/>
        <pt x="226" y="370" on="0"/>
        <pt x="257" y="320" on="0"/>
        <pt x="299" y="320" on="0"/>
        <pt x="332" y="344" on="0"/>
        <pt x="346" y="365" on="1"/>
        <pt x="375" y="411" on="0"/>
        <pt x="375" y="521" on="0"/>
        <pt x="340" y="572" on="0"/>
        <pt x="284" y="572" on="0"/>
        <pt x="251" y="533" on="0"/>
      </contour>
    </TTGlyph>
    <TTGlyph name="notequal" xMin="14" yMin="-58" xMax="440" yMax="543">
      <contour>
        <pt x="14" y="116" on="1"/>
        <pt x="14" y="148" on="0"/>
        <pt x="55" y="189" on="0"/>
        <pt x="87" y="189" on="1"/>
        <pt x="435" y="189" on="1"/>
        <pt x="440" y="172" on="0"/>
        <pt x="440" y="159" on="1"/>
        <pt x="440" y="129" on="0"/>
        <pt x="400" y="88" on="0"/>
        <pt x="358" y="88" on="1"/>
        <pt x="18" y="88" on="1"/>
        <pt x="14" y="101" on="0"/>
      </contour>
      <contour>
        <pt x="14" y="292" on="1"/>
        <pt x="14" y="324" on="0"/>
        <pt x="55" y="364" on="0"/>
        <pt x="87" y="364" on="1"/>
        <pt x="435" y="364" on="1"/>
        <pt x="440" y="347" on="0"/>
        <pt x="440" y="334" on="1"/>
        <pt x="440" y="304" on="0"/>
        <pt x="400" y="264" on="0"/>
        <pt x="358" y="264" on="1"/>
        <pt x="18" y="264" on="1"/>
        <pt x="14" y="277" on="0"/>
      </contour>
      <contour>
        <pt x="52" y="11" on="1"/>
        <pt x="52" y="39" on="0"/>
        <pt x="67" y="65" on="1"/>
        <pt x="303" y="465" on="1"/>
        <pt x="310" y="478" on="0"/>
        <pt x="322" y="497" on="0"/>
        <pt x="327" y="506" on="1"/>
        <pt x="348" y="543" on="1"/>
        <pt x="369" y="543" on="0"/>
        <pt x="384" y="529" on="1"/>
        <pt x="411" y="504" on="0"/>
        <pt x="411" y="445" on="0"/>
        <pt x="395" y="416" on="1"/>
        <pt x="136" y="-18" on="1"/>
        <pt x="114" y="-58" on="1"/>
        <pt x="83" y="-58" on="0"/>
        <pt x="52" y="-17" on="0"/>
      </contour>
    </TTGlyph>
    <TTGlyph name="ntilde" xMin="-8" yMin="-20" xMax="564" yMax="724">
      <component glyphName="tilde" x="189" y="-3" flags="0x1004"/>
      <component glyphName="n" x="0" y="0" flags="0x1004"/>
    </TTGlyph>
    <TTGlyph name="numbersign" xMin="18" yMin="0" xMax="606" yMax="660">
      <contour>
        <pt x="24" y="143" on="1"/>
        <pt x="18" y="165" on="0"/>
        <pt x="18" y="218" on="0"/>
        <pt x="56" y="258" on="0"/>
        <pt x="91" y="258" on="1"/>
        <pt x="134" y="258" on="1"/>
        <pt x="156" y="387" on="1"/>
        <pt x="55" y="387" on="1"/>
        <pt x="49" y="409" on="0"/>
        <pt x="49" y="463" on="0"/>
        <pt x="87" y="502" on="0"/>
        <pt x="122" y="502" on="1"/>
        <pt x="175" y="502" on="1"/>
        <pt x="191" y="599" on="1"/>
        <pt x="202" y="660" on="0"/>
        <pt x="257" y="660" on="1"/>
        <pt x="279" y="660" on="0"/>
        <pt x="308" y="648" on="1"/>
        <pt x="285" y="502" on="1"/>
        <pt x="396" y="502" on="1"/>
        <pt x="412" y="599" on="1"/>
        <pt x="417" y="628" on="0"/>
        <pt x="451" y="660" on="0"/>
        <pt x="501" y="660" on="0"/>
        <pt x="528" y="648" on="1"/>
        <pt x="506" y="502" on="1"/>
        <pt x="601" y="502" on="1"/>
        <pt x="606" y="479" on="0"/>
        <pt x="606" y="426" on="0"/>
        <pt x="569" y="387" on="0"/>
        <pt x="534" y="387" on="1"/>
        <pt x="488" y="387" on="1"/>
        <pt x="468" y="258" on="1"/>
        <pt x="569" y="258" on="1"/>
        <pt x="575" y="235" on="0"/>
        <pt x="575" y="182" on="0"/>
        <pt x="537" y="143" on="0"/>
        <pt x="502" y="143" on="1"/>
        <pt x="451" y="143" on="1"/>
        <pt x="439" y="61" on="1"/>
        <pt x="435" y="32" on="0"/>
        <pt x="391" y="0" on="0"/>
        <pt x="338" y="0" on="0"/>
        <pt x="313" y="12" on="1"/>
        <pt x="336" y="143" on="1"/>
        <pt x="230" y="143" on="1"/>
        <pt x="218" y="61" on="1"/>
        <pt x="214" y="32" on="0"/>
        <pt x="170" y="0" on="0"/>
        <pt x="117" y="0" on="0"/>
        <pt x="92" y="12" on="1"/>
        <pt x="114" y="143" on="1"/>
      </contour>
      <contour>
        <pt x="248" y="258" on="1"/>
        <pt x="355" y="258" on="1"/>
        <pt x="377" y="387" on="1"/>
        <pt x="267" y="387" on="1"/>
      </contour>
    </TTGlyph>
    <TTGlyph name="o" xMin="15" yMin="-20" xMax="549" yMax="530">
      <contour>
        <pt x="235" y="-20" on="1"/>
        <pt x="15" y="-20" on="0"/>
        <pt x="15" y="187" on="1"/>
        <pt x="15" y="334" on="0"/>
        <pt x="96" y="429" on="1"/>
        <pt x="182" y="530" on="0"/>
        <pt x="331" y="530" on="1"/>
        <pt x="439" y="530" on="0"/>
        <pt x="549" y="430" on="0"/>
        <pt x="549" y="325" on="1"/>
        <pt x="549" y="165" on="0"/>
        <pt x="463" y="72" on="1"/>
        <pt x="379" y="-20" on="0"/>
      </contour>
      <contour>
        <pt x="249" y="388" on="0"/>
        <pt x="230" y="307" on="0"/>
        <pt x="206" y="179" on="0"/>
        <pt x="206" y="100" on="1"/>
        <pt x="206" y="74" on="0"/>
        <pt x="223" y="40" on="0"/>
        <pt x="269" y="40" on="0"/>
        <pt x="298" y="62" on="0"/>
        <pt x="309" y="88" on="1"/>
        <pt x="329" y="134" on="0"/>
        <pt x="361" y="305" on="0"/>
        <pt x="364" y="379" on="0"/>
        <pt x="364" y="434" on="0"/>
        <pt x="348" y="470" on="0"/>
        <pt x="303" y="470" on="0"/>
        <pt x="273" y="442" on="0"/>
      </contour>
    </TTGlyph>
    <TTGlyph name="oacute" xMin="15" yMin="-20" xMax="549" yMax="769">
      <component glyphName="o" x="0" y="0" flags="0x1204"/>
      <component glyphName="acute" x="275" y="33" flags="0x1004"/>
    </TTGlyph>
    <TTGlyph name="ocircumflex" xMin="15" yMin="-20" xMax="549" yMax="768">
      <component glyphName="o" x="0" y="0" flags="0x1204"/>
      <component glyphName="circumflex" x="202" y="-2" flags="0x1004"/>
    </TTGlyph>
    <TTGlyph name="odieresis" xMin="15" yMin="-20" xMax="565" yMax="720">
      <component glyphName="o" x="0" y="0" flags="0x1204"/>
      <component glyphName="dieresis" x="189" y="7" scalex="1.0" scaley="0.989990234375" flags="0x1004"/>
    </TTGlyph>
    <TTGlyph name="oe" xMin="16" yMin="-21" xMax="843" yMax="530">
      <contour>
        <pt x="399" y="21" on="1"/>
        <pt x="330" y="-20" on="0"/>
        <pt x="209" y="-20" on="1"/>
        <pt x="115" y="-20" on="0"/>
        <pt x="16" y="90" on="0"/>
        <pt x="16" y="193" on="1"/>
        <pt x="16" y="345" on="0"/>
        <pt x="102" y="437" on="1"/>
        <pt x="189" y="530" on="0"/>
        <pt x="327" y="530" on="1"/>
        <pt x="376" y="530" on="0"/>
        <pt x="443" y="514" on="0"/>
        <pt x="473" y="494" on="1"/>
        <pt x="524" y="514" on="0"/>
        <pt x="610" y="530" on="0"/>
        <pt x="749" y="530" on="0"/>
        <pt x="843" y="467" on="0"/>
        <pt x="843" y="411" on="1"/>
        <pt x="843" y="235" on="0"/>
        <pt x="539" y="235" on="1"/>
        <pt x="535" y="201" on="0"/>
        <pt x="535" y="187" on="1"/>
        <pt x="535" y="106" on="0"/>
        <pt x="610" y="106" on="1"/>
        <pt x="677" y="106" on="0"/>
        <pt x="727" y="144" on="1"/>
        <pt x="742" y="156" on="0"/>
        <pt x="750" y="169" on="1"/>
        <pt x="775" y="151" on="0"/>
        <pt x="775" y="81" on="0"/>
        <pt x="741" y="34" on="0"/>
        <pt x="711" y="16" on="1"/>
        <pt x="648" y="-20" on="0"/>
        <pt x="452" y="-20" on="0"/>
      </contour>
      <contour>
        <pt x="230" y="312" on="0"/>
        <pt x="208" y="187" on="0"/>
        <pt x="208" y="78" on="0"/>
        <pt x="224" y="39" on="0"/>
        <pt x="264" y="39" on="0"/>
        <pt x="308" y="102" on="0"/>
        <pt x="326" y="152" on="1"/>
        <pt x="365" y="265" on="0"/>
        <pt x="365" y="387" on="1"/>
        <pt x="365" y="434" on="0"/>
        <pt x="351" y="471" on="0"/>
        <pt x="310" y="471" on="0"/>
        <pt x="265" y="410" on="0"/>
      </contour>
      <contour>
        <pt x="546" y="278" on="1"/>
        <pt x="615" y="278" on="0"/>
        <pt x="699" y="362" on="0"/>
        <pt x="699" y="431" on="1"/>
        <pt x="699" y="479" on="0"/>
        <pt x="659" y="479" on="1"/>
        <pt x="623" y="479" on="0"/>
        <pt x="563" y="375" on="0"/>
      </contour>
    </TTGlyph>
    <TTGlyph name="ogonek" xMin="67" yMin="-258" xMax="306" yMax="22">
      <contour>
        <pt x="288" y="-166" on="1"/>
        <pt x="306" y="-180" on="0"/>
        <pt x="306" y="-221" on="0"/>
        <pt x="252" y="-258" on="0"/>
        <pt x="133" y="-258" on="0"/>
        <pt x="67" y="-198" on="0"/>
        <pt x="67" y="-141" on="1"/>
        <pt x="67" y="-81" on="0"/>
        <pt x="116" y="-36" on="1"/>
        <pt x="160" y="5" on="0"/>
        <pt x="226" y="22" on="1"/>
        <pt x="265" y="6" on="1"/>
        <pt x="170" y="-54" on="0"/>
        <pt x="170" y="-142" on="1"/>
        <pt x="170" y="-191" on="0"/>
        <pt x="270" y="-191" on="0"/>
      </contour>
    </TTGlyph>
    <TTGlyph name="ograve" xMin="15" yMin="-20" xMax="549" yMax="766">
      <component glyphName="o" x="0" y="0" flags="0x1204"/>
      <component glyphName="grave" x="227" y="33" flags="0x1004"/>
    </TTGlyph>
    <TTGlyph name="one" xMin="6" yMin="-17" xMax="476" yMax="679">
      <contour>
        <pt x="138" y="-11" on="1"/>
        <pt x="107" y="-10" on="0"/>
        <pt x="42" y="-10" on="0"/>
        <pt x="10" y="-14" on="1"/>
        <pt x="6" y="2" on="0"/>
        <pt x="6" y="21" on="1"/>
        <pt x="6" y="61" on="0"/>
        <pt x="51" y="109" on="0"/>
        <pt x="86" y="109" on="1"/>
        <pt x="140" y="109" on="1"/>
        <pt x="224" y="487" on="1"/>
        <pt x="193" y="456" on="0"/>
        <pt x="129" y="456" on="1"/>
        <pt x="97" y="456" on="0"/>
        <pt x="72" y="486" on="1"/>
        <pt x="47" y="514" on="0"/>
        <pt x="43" y="554" on="1"/>
        <pt x="191" y="580" on="0"/>
        <pt x="412" y="679" on="1"/>
        <pt x="444" y="641" on="1"/>
        <pt x="347" y="109" on="1"/>
        <pt x="372" y="109" on="1"/>
        <pt x="432" y="109" on="0"/>
        <pt x="463" y="120" on="1"/>
        <pt x="476" y="98" on="0"/>
        <pt x="476" y="26" on="0"/>
        <pt x="423" y="-17" on="0"/>
        <pt x="379" y="-17" on="1"/>
        <pt x="290" y="-17" on="0"/>
        <pt x="202" y="-13" on="1"/>
      </contour>
    </TTGlyph>
    <TTGlyph name="oneeighth" xMin="51" yMin="-91" xMax="781" yMax="720">
      <contour>
        <pt x="84" y="285" on="1"/>
        <pt x="62" y="285" on="0"/>
        <pt x="53" y="282" on="1"/>
        <pt x="51" y="287" on="0"/>
        <pt x="51" y="292" on="1"/>
        <pt x="51" y="302" on="1"/>
        <pt x="51" y="325" on="0"/>
        <pt x="76" y="353" on="0"/>
        <pt x="94" y="353" on="1"/>
        <pt x="251" y="353" on="1"/>
        <pt x="278" y="353" on="0"/>
        <pt x="299" y="359" on="1"/>
        <pt x="307" y="347" on="0"/>
        <pt x="307" y="306" on="0"/>
        <pt x="278" y="281" on="0"/>
        <pt x="255" y="281" on="1"/>
      </contour>
      <contour>
        <pt x="70" y="608" on="1"/>
        <pt x="152" y="621" on="0"/>
        <pt x="276" y="679" on="1"/>
        <pt x="293" y="657" on="1"/>
        <pt x="227" y="303" on="1"/>
        <pt x="113" y="303" on="1"/>
        <pt x="171" y="569" on="1"/>
        <pt x="157" y="552" on="0"/>
        <pt x="120" y="552" on="1"/>
        <pt x="102" y="552" on="0"/>
        <pt x="72" y="585" on="0"/>
      </contour>
      <contour>
        <pt x="190" y="-62" on="1"/>
        <pt x="190" y="-52" on="0"/>
        <pt x="196" y="-37" on="1"/>
        <pt x="523" y="718" on="1"/>
        <pt x="533" y="720" on="0"/>
        <pt x="574" y="720" on="0"/>
        <pt x="599" y="709" on="0"/>
        <pt x="599" y="677" on="0"/>
        <pt x="590" y="652" on="1"/>
        <pt x="267" y="-88" on="1"/>
        <pt x="261" y="-91" on="0"/>
        <pt x="236" y="-91" on="1"/>
        <pt x="190" y="-91" on="0"/>
      </contour>
      <contour>
        <pt x="473" y="78" on="1"/>
        <pt x="473" y="145" on="0"/>
        <pt x="559" y="186" on="1"/>
        <pt x="521" y="217" on="0"/>
        <pt x="521" y="285" on="0"/>
        <pt x="546" y="333" on="0"/>
        <pt x="567" y="350" on="1"/>
        <pt x="612" y="388" on="0"/>
        <pt x="726" y="388" on="0"/>
        <pt x="781" y="344" on="0"/>
        <pt x="781" y="274" on="0"/>
        <pt x="732" y="225" on="0"/>
        <pt x="701" y="211" on="1"/>
        <pt x="736" y="182" on="0"/>
        <pt x="763" y="147" on="0"/>
        <pt x="763" y="94" on="0"/>
        <pt x="737" y="44" on="0"/>
        <pt x="714" y="26" on="1"/>
        <pt x="668" y="-13" on="0"/>
        <pt x="538" y="-13" on="0"/>
        <pt x="473" y="38" on="0"/>
      </contour>
      <contour>
        <pt x="593" y="155" on="1"/>
        <pt x="564" y="131" on="0"/>
        <pt x="564" y="94" on="1"/>
        <pt x="564" y="74" on="0"/>
        <pt x="582" y="47" on="0"/>
        <pt x="618" y="47" on="0"/>
        <pt x="646" y="73" on="0"/>
        <pt x="646" y="109" on="0"/>
        <pt x="633" y="120" on="1"/>
      </contour>
      <contour>
        <pt x="666" y="239" on="1"/>
        <pt x="698" y="254" on="0"/>
        <pt x="698" y="289" on="1"/>
        <pt x="698" y="307" on="0"/>
        <pt x="678" y="331" on="0"/>
        <pt x="642" y="331" on="0"/>
        <pt x="619" y="311" on="0"/>
        <pt x="619" y="275" on="0"/>
        <pt x="632" y="265" on="1"/>
      </contour>
    </TTGlyph>
</ttFont>
